<?xml version="1.0" encoding="UTF-8"?>
<svg width="127px" height="50px" viewBox="0 0 127 50" version="1.1" xmlns="http://www.w3.org/2000/svg" xmlns:xlink="http://www.w3.org/1999/xlink">
    <title>Group 37</title>
    <defs>
        <path d="M7.86969697,2.98636364 C6.72727273,3.56060606 1.07575758,6.52121212 1.07575758,6.52121212 L1.07575758,6.52121212 L3.48787879,7.76363636 L11.1075758,4.13181818 L11.2848485,3.3530303 L10.7227273,2.28636364 L8.95454545,1.38484848 C8.95454545,1.38484848 9.01212121,2.41363636 7.86969697,2.98636364" id="path-1"></path>
        <path d="M1.9030303,1.57121212 L0.41969697,9.20151515 L2.67727273,10.3333333 C2.67727273,10.3333333 3.61363636,5.65909091 3.86212121,4.40151515 L3.86212121,4.40151515 C4.11060606,3.14242424 5.11363636,2.92878788 5.11363636,2.92878788 L5.11363636,2.92878788 L4.52878788,1.90606061 L3.35909091,1.3 L1.9030303,1.57121212 Z" id="path-3"></path>
        <path d="M0.903030303,2.15757576 L0.616666667,2.31666667 L0.0878787879,3.01969697 L0.122727273,3.41666667 L7.59848485,6.91363636 L10.0560606,5.68181818 C10.0560606,5.68181818 4.71363636,2.57878788 3.56515152,2.01515152 L3.56515152,2.01515152 C2.41818182,1.45454545 2.47121212,1.37878788 2.47121212,1.37878788 L2.47121212,1.37878788 L0.903030303,2.15757576 Z" id="path-5"></path>
        <polygon id="path-7" points="0.000470354102 0.0196969697 48.0554545 0.0196969697 48.0554545 47.484697 0.000470354102 47.484697"></polygon>
    </defs>
    <g id="Symbols" stroke="none" stroke-width="1" fill="none" fill-rule="evenodd">
        <g id="Group-37">
            <g id="Group-5" transform="translate(0.000000, 0.495606)" fill="#FFB600">
                <path d="M31.1960606,12.1771212 L2.72333333,26.2256061 C1.94,26.6134848 1.38242424,27.3468182 1.21727273,28.2089394 L3.90818182,32.3968182 C3.82181818,32.8892424 5.1869697,34.0513636 5.64606061,34.2483333 L28.3278788,44.0468182 C29.2960606,44.4634848 29.5430303,43.8089394 29.7263636,42.7695455 L31.3263636,39.8498485 L10.0672727,30.6710606 L30.2490909,20.5710606 C30.370303,20.5104545 30.4566667,20.3937879 30.4793939,20.2589394 L31.809697,12.6392424 C31.870303,12.2907576 31.5112121,12.0210606 31.1960606,12.1771212" id="Fill-1"></path>
                <path d="M75.2968182,15.5787879 L47.2422727,1.27727273 L44.3907576,3.4530303 L44.1831818,9.11969697 L67.2498485,20.619697 L50.9043939,31.7318182 C50.7225758,31.8242424 46.7740909,31.5939394 46.7392424,31.7939394 L45.9498485,37.5378788 C45.8574242,38.0590909 47.5998485,36.9090909 48.0725758,36.6757576 L71.0786364,24.5045455 C71.2013636,24.4439394 73.3665152,23.4530303 73.3892424,23.3181818 L76.1468182,17.2878788 C76.2695455,16.5924242 75.9240909,15.8984848 75.2968182,15.5787879" id="Fill-3"></path>
            </g>
            <g id="Group-8" transform="translate(65.151515, 14.131970)">
                <mask id="mask-2" fill="white">
                    <use xlink:href="#path-1"></use>
                </mask>
                <g id="Clip-7"></g>
                <path d="M7.86969697,2.98636364 C6.72727273,3.56060606 1.07575758,6.52121212 1.07575758,6.52121212 L1.07575758,6.52121212 L3.48787879,7.76363636 L11.1075758,4.13181818 L11.2848485,3.3530303 L10.7227273,2.28636364 L8.95454545,1.38484848 C8.95454545,1.38484848 9.01212121,2.41363636 7.86969697,2.98636364" id="Fill-6" mask="url(#mask-2)"></path>
            </g>
            <g id="Group-11" transform="translate(43.939394, 0.495606)">
                <mask id="mask-4" fill="white">
                    <use xlink:href="#path-3"></use>
                </mask>
                <g id="Clip-10"></g>
                <path d="M1.9030303,1.57121212 L0.41969697,9.20151515 L2.67727273,10.3333333 C2.67727273,10.3333333 3.61363636,5.65909091 3.86212121,4.40151515 L3.86212121,4.40151515 C4.11060606,3.14242424 5.11363636,2.92878788 5.11363636,2.92878788 L5.11363636,2.92878788 L4.52878788,1.90606061 L3.35909091,1.3 L1.9030303,1.57121212 Z" id="Fill-9" mask="url(#mask-4)"></path>
            </g>
            <g id="Group-14" transform="translate(1.515152, 24.738030)">
                <mask id="mask-6" fill="white">
                    <use xlink:href="#path-5"></use>
                </mask>
                <g id="Clip-13"></g>
                <path d="M0.903030303,2.15757576 L0.616666667,2.31666667 L0.0878787879,3.01969697 L0.122727273,3.41666667 L7.59848485,6.91363636 L10.0560606,5.68181818 C10.0560606,5.68181818 4.71363636,2.57878788 3.56515152,2.01515152 L3.56515152,2.01515152 C2.41818182,1.45454545 2.47121212,1.37878788 2.47121212,1.37878788 L2.47121212,1.37878788 L0.903030303,2.15757576 Z" id="Fill-12" mask="url(#mask-6)"></path>
            </g>
            <g id="Group-36" transform="translate(0.000000, 1.495606)">
                <path d="M75.7495455,14.8280303 L75.4737879,14.6825758 C75.6465152,14.794697 75.8813636,15.0068182 75.8813636,15.3128788 C75.8813636,15.6143939 75.5283333,15.8719697 75.3677273,15.975 L67.664697,19.4143939 L46.4465152,29.9098485 C46.2662121,30.0007576 46.1389394,30.1734848 46.1025758,30.3734848 L44.8722727,37.3537879 L44.8722727,37.3537879 C44.764697,37.8886364 45.3162121,38.3128788 45.8025758,38.0719697 L52.8798485,34.5810606 L74.5313636,23.8795455 C74.9843939,23.655303 75.295,23.2174242 75.3586364,22.7143939 L76.5313636,16.3689394 C76.6086364,15.7462121 76.2995455,15.1280303 75.7495455,14.8280303" id="Fill-15" fill="#FFC900"></path>
                <g id="Group-19" transform="translate(0.000000, -0.000000)">
                    <mask id="mask-8" fill="white">
                        <use xlink:href="#path-7"></use>
                    </mask>
                    <g id="Clip-18"></g>
                    <path d="M46.4933333,1.42106061 C46.5478788,1.24227273 46.7069697,0.84530303 47.0918182,0.672575758 C47.5160606,0.483181818 48.0554545,0.698333333 48.0554545,0.698333333 L47.3236364,0.313484848 C46.9387879,0.119545455 46.5160606,0.0195454545 46.0857576,0.0195454545 L40.31,0.0195454545 C39.0539394,0.0195454545 37.979697,0.924090909 37.7615152,2.16651515 L31.6463636,36.9634848 C31.4766667,37.9301515 30.4539394,38.4831818 29.5569697,38.0968182 L10.0539394,29.6740909 L2.67818182,26.4892424 C2.67969697,26.4892424 2.67969697,26.4907576 2.67969697,26.4907576 L2.66909091,26.484697 L2.66909091,26.4862121 L2.54030303,26.4301515 C2.34333333,26.3256061 2.00545455,26.1104545 2.00545455,25.8680303 C2.00545455,25.6922727 2.46151515,25.395303 2.64787879,25.265 L2.04636364,25.6074242 C1.66,25.8271212 1.38878788,26.2059091 1.3069697,26.6422727 L0.0236363636,33.3771212 C-0.0975757576,34.0589394 0.266060606,34.7331818 0.899393939,35.0074242 L28.8887879,47.0922727 C29.4872727,47.3513636 30.1342424,47.484697 30.7857576,47.484697 L36.2251515,47.484697 C37.4827273,47.484697 38.5569697,46.5801515 38.7751515,45.3377273 L45.2236364,8.64984848 L46.4933333,1.42106061 Z" id="Fill-17" fill="#FFC900" mask="url(#mask-8)"></path>
                </g>
                <path d="M92.4687879,9.02424242 C92.4687879,9.25151515 92.3324242,9.38787879 92.1051515,9.38787879 L89.8324242,9.38787879 C89.5824242,9.38787879 89.4687879,9.25151515 89.4687879,9.02424242 L89.4687879,7.20606061 C89.4687879,6.61515152 89.1506061,6.2969697 88.559697,6.2969697 L87.3793939,6.2969697 C86.7642424,6.2969697 86.470303,6.61515152 86.470303,7.20606061 L86.470303,17.5681818 C86.470303,18.1818182 86.7869697,18.4772727 87.3793939,18.4772727 L88.559697,18.4772727 C89.1506061,18.4772727 89.4687879,18.1818182 89.4687879,17.5681818 L89.4687879,15.75 C89.4687879,15.5227273 89.5824242,15.3863636 89.8324242,15.3863636 L92.1051515,15.3863636 C92.3324242,15.3863636 92.4687879,15.5227273 92.4687879,15.75 L92.4687879,18.2045455 C92.4687879,20.3409091 91.309697,21.4757576 89.1960606,21.4757576 L86.6521212,21.4757576 C84.5142424,21.4757576 83.3566667,20.3409091 83.3566667,18.2045455 L83.3566667,6.56969697 C83.3566667,4.43333333 84.5142424,3.29848485 86.6521212,3.29848485 L89.1960606,3.29848485 C91.309697,3.29848485 92.4687879,4.43333333 92.4687879,6.56969697 L92.4687879,9.02424242 Z" id="Fill-20" fill="#2C2C2C"></path>
                <path d="M99.9927273,18.545 C100.583636,18.545 100.901818,18.2495455 100.901818,17.6359091 L100.901818,7.13893939 C100.901818,6.5480303 100.583636,6.22984848 99.9927273,6.22984848 L98.6745455,6.22984848 C98.0836364,6.22984848 97.7654545,6.5480303 97.7654545,7.13893939 L97.7654545,17.6359091 C97.7654545,18.2495455 98.0836364,18.545 98.6745455,18.545 L99.9927273,18.545 Z M94.7442424,6.56924242 C94.7442424,4.43439394 95.8790909,3.2980303 98.0154545,3.2980303 L100.560909,3.2980303 C102.697273,3.2980303 103.833636,4.43439394 103.833636,6.56924242 L103.833636,18.2040909 C103.833636,20.3404545 102.697273,21.4768182 100.560909,21.4768182 L98.0154545,21.4768182 C95.8790909,21.4768182 94.7442424,20.3404545 94.7442424,18.2040909 L94.7442424,6.56924242 Z" id="Fill-22" fill="#2C2C2C"></path>
                <path d="M111.289697,18.4768182 C111.880606,18.4768182 112.198788,18.1813636 112.198788,17.5677273 L112.198788,7.22833333 C112.198788,6.61469697 111.880606,6.29651515 111.289697,6.29651515 L109.198788,6.29651515 L109.198788,18.4768182 L111.289697,18.4768182 Z M106.109394,3.66166667 C106.109394,3.43439394 106.221515,3.2980303 106.47303,3.2980303 L111.926061,3.2980303 C114.062424,3.2980303 115.198788,4.45712121 115.198788,6.5919697 L115.198788,18.2040909 C115.198788,20.3404545 114.062424,21.475303 111.926061,21.475303 L106.47303,21.475303 C106.221515,21.475303 106.109394,21.3631818 106.109394,21.1116667 L106.109394,3.66166667 Z" id="Fill-24" fill="#2C2C2C"></path>
                <path d="M126.540455,5.93393939 C126.540455,6.15969697 126.449545,6.31878788 126.176818,6.31878788 L120.496515,6.31878788 L120.496515,10.8642424 L124.835909,10.8642424 C125.063182,10.8642424 125.199545,11.0006061 125.199545,11.2506061 L125.199545,13.5006061 C125.199545,13.7506061 125.063182,13.8869697 124.835909,13.8869697 L120.496515,13.8869697 L120.496515,18.4763636 L126.176818,18.4763636 C126.449545,18.4763636 126.540455,18.5915152 126.540455,18.84 L126.540455,21.1127273 C126.540455,21.34 126.449545,21.4763636 126.176818,21.4763636 L117.814697,21.4763636 C117.610152,21.4763636 117.473788,21.34 117.473788,21.1127273 L117.473788,3.66121212 C117.473788,3.43393939 117.610152,3.29757576 117.814697,3.29757576 L126.176818,3.29757576 C126.449545,3.29757576 126.540455,3.43393939 126.540455,3.66121212 L126.540455,5.93393939 Z" id="Fill-26" fill="#2C2C2C"></path>
                <path d="M88.5372727,41.2071212 C89.1281818,41.2071212 89.4463636,40.9116667 89.4463636,40.2980303 L89.4463636,29.9586364 C89.4463636,29.345 89.1281818,29.0268182 88.5372727,29.0268182 L86.4463636,29.0268182 L86.4463636,41.2071212 L88.5372727,41.2071212 Z M83.3569697,26.3919697 C83.3569697,26.164697 83.4690909,26.0283333 83.7190909,26.0283333 L89.1736364,26.0283333 C91.31,26.0283333 92.4463636,27.1874242 92.4463636,29.3222727 L92.4463636,40.9343939 C92.4463636,43.0707576 91.31,44.2071212 89.1736364,44.2071212 L83.7190909,44.2071212 C83.4690909,44.2071212 83.3569697,44.0934848 83.3569697,43.8434848 L83.3569697,26.3919697 Z" id="Fill-28" fill="#2C2C2C"></path>
                <path d="M100.060758,35.1169697 C100.651667,35.1169697 100.969848,34.800303 100.969848,34.2078788 L100.969848,29.9366667 C100.969848,29.3457576 100.651667,29.0275758 100.060758,29.0275758 L97.8122727,29.0275758 L97.8122727,35.1169697 L100.060758,35.1169697 Z M104.060758,34.8442424 C104.060758,36.3669697 103.492576,37.3669697 102.401667,37.8442424 L103.969848,43.7972727 C104.03803,44.07 103.901667,44.2078788 103.651667,44.2078788 L101.28803,44.2078788 C101.062273,44.2078788 100.947121,44.0927273 100.901667,43.8881818 L99.3789394,38.1169697 L97.8122727,38.1169697 L97.8122727,43.8427273 C97.8122727,44.07 97.6759091,44.2078788 97.4471212,44.2078788 L95.085,44.2078788 C94.8577273,44.2078788 94.7213636,44.07 94.7213636,43.8427273 L94.7213636,26.3912121 C94.7213636,26.1639394 94.8577273,26.0275758 95.085,26.0275758 L100.78803,26.0275758 C102.924394,26.0275758 104.060758,27.1639394 104.060758,29.300303 L104.060758,34.8442424 Z" id="Fill-30" fill="#2C2C2C"></path>
                <path d="M111.130758,41.2751515 C111.721667,41.2751515 112.039848,40.979697 112.039848,40.3660606 L112.039848,29.8690909 C112.039848,29.2781818 111.721667,28.96 111.130758,28.96 L109.812576,28.96 C109.221667,28.96 108.903485,29.2781818 108.903485,29.8690909 L108.903485,40.3660606 C108.903485,40.979697 109.221667,41.2751515 109.812576,41.2751515 L111.130758,41.2751515 Z M105.882273,29.2993939 C105.882273,27.1645455 107.018636,26.0281818 109.153485,26.0281818 L111.698939,26.0281818 C113.835303,26.0281818 114.971667,27.1645455 114.971667,29.2993939 L114.971667,40.9342424 C114.971667,43.0706061 113.835303,44.2069697 111.698939,44.2069697 L109.153485,44.2069697 C107.018636,44.2069697 105.882273,43.0706061 105.882273,40.9342424 L105.882273,29.2993939 Z" id="Fill-32" fill="#2C2C2C"></path>
                <path d="M122.336667,35.1169697 C122.950303,35.1169697 123.245758,34.7760606 123.245758,34.2078788 L123.245758,29.9366667 C123.245758,29.3457576 122.950303,29.0275758 122.336667,29.0275758 L120.338182,29.0275758 L120.338182,35.1169697 L122.336667,35.1169697 Z M117.247273,26.3912121 C117.247273,26.1639394 117.382121,26.0275758 117.610909,26.0275758 L123.063939,26.0275758 C125.200303,26.0275758 126.336667,27.1639394 126.336667,29.300303 L126.336667,34.8442424 C126.336667,36.9578788 125.200303,38.1169697 123.063939,38.1169697 L120.338182,38.1169697 L120.338182,43.8427273 C120.338182,44.07 120.22303,44.2078788 119.97303,44.2078788 L117.610909,44.2078788 C117.382121,44.2078788 117.247273,44.07 117.247273,43.8427273 L117.247273,26.3912121 Z" id="Fill-34" fill="#2C2C2C"></path>
            </g>
        </g>
    </g>
</svg>