<?xml version="1.0" encoding="UTF-8"?>
<svg width="264px" height="49px" viewBox="0 0 264 49" version="1.1" xmlns="http://www.w3.org/2000/svg" xmlns:xlink="http://www.w3.org/1999/xlink">
    <title>Group 37</title>
    <defs>
        <path d="M6.61418182,1.53864706 C5.52309091,2.06964706 0.129454545,4.81376471 0.129454545,4.81376471 L0.129454545,4.81376471 L2.43218182,5.96523529 L9.70509091,2.601 L9.87309091,1.87782353 L9.33781818,0.889411765 L7.64854545,0.0554117647 C7.64854545,0.0554117647 7.70490909,1.00729412 6.61418182,1.53864706" id="path-1"></path>
        <path d="M1.67,0.31725 L0.171538462,7.8279375 L2.45134615,8.943 C2.45134615,8.943 3.39634615,4.3408125 3.6475,3.1029375 L3.6475,3.1029375 C3.89884615,1.8650625 4.91153846,1.65375 4.91153846,1.65375 L4.91153846,1.65375 L4.32057692,0.6470625 L3.14019231,0.051 L1.67,0.31725 Z" id="path-3"></path>
        <path d="M0.884716981,0.977225806 L0.601698113,1.13903226 L0.0794339623,1.85341935 L0.113207547,2.25735484 L7.51811321,5.81051613 L9.95415094,4.55941935 C9.95415094,4.55941935 4.66188679,1.40458065 3.52415094,0.833612903 L3.52415094,0.833612903 C2.38660377,0.262451613 2.43943396,0.185612903 2.43943396,0.185612903 L2.43943396,0.185612903 L0.884716981,0.977225806 Z" id="path-5"></path>
        <polygon id="path-7" points="0 0.155628685 48.9542358 0.155628685 48.9542358 48.8047809 0 48.8047809"></polygon>
    </defs>
    <g id="Symbols" stroke="none" stroke-width="1" fill="none" fill-rule="evenodd">
        <g id="Group-37">
            <g id="Group-21" transform="translate(1.270833, 1.000000)">
                <path d="M103.868221,17.3260903 C103.868221,17.7787451 103.595874,18.0503381 103.141962,18.0503381 L98.6034267,18.0503381 C98.104221,18.0503381 97.8771674,17.7787451 97.8771674,17.3260903 L97.8771674,13.7052407 C97.8771674,12.5283381 97.2418857,11.8950106 96.0619095,11.8950106 L93.701762,11.8950106 C92.4764923,11.8950106 91.8863089,12.5283381 91.8863089,13.7052407 L91.8863089,34.343577 C91.8863089,35.5658425 92.5217858,36.1540018 93.701762,36.1540018 L96.0619095,36.1540018 C97.2418857,36.1540018 97.8771674,35.5658425 97.8771674,34.343577 L97.8771674,30.7231168 C97.8771674,30.2702673 98.104221,29.9986743 98.6034267,29.9986743 L103.141962,29.9986743 C103.595874,29.9986743 103.868221,30.2702673 103.868221,30.7231168 L103.868221,35.6110106 C103.868221,39.865577 101.553562,42.1284619 97.3326681,42.1284619 L92.2494386,42.1284619 C87.9832508,42.1284619 85.6685921,39.865577 85.6685921,35.6110106 L85.6685921,12.4381965 C85.6685921,8.18363009 87.9832508,5.92074513 92.2494386,5.92074513 L97.3326681,5.92074513 C101.553562,5.92074513 103.868221,8.18363009 103.868221,12.4381965 L103.868221,17.3260903 Z" id="Fill-1" fill="#2F302F"></path>
                <path d="M118.889938,36.289954 C120.069914,36.289954 120.705391,35.7016 120.705391,34.4795292 L120.705391,13.5696 C120.705391,12.392892 120.069914,11.7591752 118.889938,11.7591752 L116.257639,11.7591752 C115.077663,11.7591752 114.442186,12.392892 114.442186,13.5696 L114.442186,34.4795292 C114.442186,35.7016 115.077663,36.289954 116.257639,36.289954 L118.889938,36.289954 Z M108.406034,12.4380602 C108.406034,8.1836885 110.675204,5.92080354 114.941391,5.92080354 L120.024621,5.92080354 C124.291004,5.92080354 126.560174,8.1836885 126.560174,12.4380602 L126.560174,35.611069 C126.560174,39.8654407 124.291004,42.1283257 120.024621,42.1283257 L114.941391,42.1283257 C110.675204,42.1283257 108.406034,39.8654407 108.406034,35.611069 L108.406034,12.4380602 Z" id="Fill-3" fill="#2F302F"></path>
                <path d="M141.446186,36.1540018 C142.626162,36.1540018 143.261639,35.5658425 143.261639,34.343577 L143.261639,13.7506035 C143.261639,12.5283381 142.626162,11.8948159 141.446186,11.8948159 L137.270781,11.8948159 L137.270781,36.1540018 L141.446186,36.1540018 Z M131.098357,6.64499292 C131.098357,6.19214336 131.325411,5.92074513 131.824421,5.92074513 L142.716945,5.92074513 C146.983328,5.92074513 149.252497,8.22879823 149.252497,12.4833646 L149.252497,35.6110106 C149.252497,39.8653823 146.983328,42.1284619 142.716945,42.1284619 L131.824421,42.1284619 C131.325411,42.1284619 131.098357,41.9020372 131.098357,41.4042142 L131.098357,6.64499292 Z" id="Fill-5" fill="#2F302F"></path>
                <path d="M171.899352,11.1707239 C171.899352,11.6233788 171.717982,11.9401398 171.173288,11.9401398 L159.827048,11.9401398 L159.827048,20.992069 L168.495499,20.992069 C168.949607,20.992069 169.221759,21.2636619 169.221759,21.761485 L169.221759,26.2420867 C169.221759,26.7401044 168.949607,27.0115027 168.495499,27.0115027 L159.827048,27.0115027 L159.827048,36.1539628 L171.173288,36.1539628 C171.717982,36.1539628 171.899352,36.3801929 171.899352,36.8782106 L171.899352,41.4041752 C171.899352,41.8566354 171.717982,42.128423 171.173288,42.128423 L154.471471,42.128423 C154.063048,42.128423 153.790701,41.8566354 153.790701,41.4041752 L153.790701,6.64495398 C153.790701,6.19229912 154.063048,5.92070619 154.471471,5.92070619 L171.173288,5.92070619 C171.717982,5.92070619 171.899352,6.19229912 171.899352,6.64495398 L171.899352,11.1707239 Z" id="Fill-7" fill="#2F302F"></path>
                <path d="M186.331589,36.1540018 C187.511565,36.1540018 188.147042,35.5658425 188.147042,34.343577 L188.147042,13.7506035 C188.147042,12.5283381 187.511565,11.8948159 186.331589,11.8948159 L182.155988,11.8948159 L182.155988,36.1540018 L186.331589,36.1540018 Z M175.983565,6.64499292 C175.983565,6.19214336 176.210618,5.92074513 176.710019,5.92074513 L187.602347,5.92074513 C191.868535,5.92074513 194.137705,8.22879823 194.137705,12.4833646 L194.137705,35.6110106 C194.137705,39.8653823 191.868535,42.1284619 187.602347,42.1284619 L176.710019,42.1284619 C176.210618,42.1284619 175.983565,41.9020372 175.983565,41.4042142 L175.983565,6.64499292 Z" id="Fill-9" fill="#2F302F"></path>
                <path d="M209.341553,24.0246619 C210.521725,24.0246619 211.157006,23.3909451 211.157006,22.2140425 L211.157006,13.7052991 C211.157006,12.5283965 210.521725,11.8948743 209.341553,11.8948743 L204.848312,11.8948743 L204.848312,24.0246619 L209.341553,24.0246619 Z M217.32943,23.4814761 C217.32943,26.513777 216.194747,28.5052637 214.016164,29.4557416 L217.147669,41.3137416 C217.284136,41.8567327 217.011789,42.1283257 216.512388,42.1283257 L211.792483,42.1283257 C211.338571,42.1283257 211.111517,41.9020956 211.02093,41.4946088 L207.980012,29.9987327 L204.848312,29.9987327 L204.848312,41.4042726 C204.848312,41.8567327 204.57616,42.1283257 204.122443,42.1283257 L199.402148,42.1283257 C198.948431,42.1283257 198.675889,41.8567327 198.675889,41.4042726 L198.675889,6.64485664 C198.675889,6.19220177 198.948431,5.92080354 199.402148,5.92080354 L210.793877,5.92080354 C215.06026,5.92080354 217.32943,8.1836885 217.32943,12.4380602 L217.32943,23.4814761 Z" id="Fill-11" fill="#2F302F"></path>
                <path d="M231.44385,36.289954 C232.623826,36.289954 233.259108,35.7016 233.259108,34.4795292 L233.259108,13.5696 C233.259108,12.392892 232.623826,11.7591752 231.44385,11.7591752 L228.81155,11.7591752 C227.631379,11.7591752 226.996097,12.392892 226.996097,13.5696 L226.996097,34.4795292 C226.996097,35.7016 227.631379,36.289954 228.81155,36.289954 L231.44385,36.289954 Z M220.95975,12.4380602 C220.95975,8.1836885 223.229115,5.92080354 227.495303,5.92080354 L232.578532,5.92080354 C236.844525,5.92080354 239.11389,8.1836885 239.11389,12.4380602 L239.11389,35.611069 C239.11389,39.8654407 236.844525,42.1283257 232.578532,42.1283257 L227.495303,42.1283257 C223.229115,42.1283257 220.95975,39.8654407 220.95975,35.611069 L220.95975,12.4380602 Z" id="Fill-13" fill="#2F302F"></path>
                <path d="M253.818396,24.0246619 C255.043861,24.0246619 255.633849,23.3455823 255.633849,22.2140425 L255.633849,13.7052991 C255.633849,12.5283965 255.043861,11.8948743 253.818396,11.8948743 L249.824555,11.8948743 L249.824555,24.0246619 L253.818396,24.0246619 Z M243.652132,6.64485664 C243.652132,6.19220177 243.924284,5.92080354 244.378196,5.92080354 L255.270719,5.92080354 C259.536907,5.92080354 261.806272,8.1836885 261.806272,12.4380602 L261.806272,23.4814761 C261.806272,27.690485 259.536907,29.9987327 255.270719,29.9987327 L249.824555,29.9987327 L249.824555,41.4042726 C249.824555,41.8567327 249.597697,42.1283257 249.098296,42.1283257 L244.378196,42.1283257 C243.924284,42.1283257 243.652132,41.8567327 243.652132,41.4042726 L243.652132,6.64485664 Z" id="Fill-15" fill="#2F302F"></path>
                <path d="M30.8049136,11.1709186 L1.62100298,25.5312726 C0.817041729,25.9268832 0.245210134,26.6772195 0.0765305514,27.5578035 L2.83397317,31.8382637 C2.7453383,32.3417327 4.14612072,33.528954 4.61545604,33.7310425 L27.8653204,43.7459097 C28.856313,44.1726708 29.1105037,43.5041044 29.2979255,42.4412903 L30.9390373,39.4572726 L9.14774367,30.0737858 L29.8334441,19.7507239 C29.9585872,19.6882283 30.0466364,19.5700513 30.070845,19.4322106 L31.4335574,11.6426531 C31.4958361,11.2873434 31.1284113,11.0116619 30.8049136,11.1709186" id="Fill-17" fill="#FFB600"></path>
                <path d="M76.0080352,14.6479504 L47.2522662,0.0288530973 L44.3294629,2.25299469 L44.1160754,8.04580885 L67.7599159,19.8004283 L51.0051917,31.1584637 C50.8197222,31.2524991 46.7727788,31.0178973 46.7364659,31.2227115 L45.9272334,37.0937912 C45.8329368,37.6272425 47.6177386,36.4507292 48.1034733,36.2118442 L71.684059,23.7711363 C71.8101782,23.7092248 74.0287833,22.6970301 74.0531872,22.5584106 L76.8791559,16.3949062 C77.0044942,15.684092 76.6507356,14.9752248 76.0080352,14.6479504" id="Fill-19" fill="#FFB600"></path>
            </g>
            <g id="Group-24" transform="translate(68.270833, 14.000000)">
                <mask id="mask-2" fill="white">
                    <use xlink:href="#path-1"></use>
                </mask>
                <g id="Clip-23"></g>
                <path d="M6.61418182,1.53864706 C5.52309091,2.06964706 0.129454545,4.81376471 0.129454545,4.81376471 L0.129454545,4.81376471 L2.43218182,5.96523529 L9.70509091,2.601 L9.87309091,1.87782353 L9.33781818,0.889411765 L7.64854545,0.0554117647 C7.64854545,0.0554117647 7.70490909,1.00729412 6.61418182,1.53864706" id="Fill-22" mask="url(#mask-2)"></path>
            </g>
            <g id="Group-27" transform="translate(45.270833, 1.000000)">
                <mask id="mask-4" fill="white">
                    <use xlink:href="#path-3"></use>
                </mask>
                <g id="Clip-26"></g>
                <path d="M1.67,0.31725 L0.171538462,7.8279375 L2.45134615,8.943 C2.45134615,8.943 3.39634615,4.3408125 3.6475,3.1029375 L3.6475,3.1029375 C3.89884615,1.8650625 4.91153846,1.65375 4.91153846,1.65375 L4.91153846,1.65375 L4.32057692,0.6470625 L3.14019231,0.051 L1.67,0.31725 Z" id="Fill-25" mask="url(#mask-4)"></path>
            </g>
            <g id="Group-30" transform="translate(1.270833, 26.000000)">
                <mask id="mask-6" fill="white">
                    <use xlink:href="#path-5"></use>
                </mask>
                <g id="Clip-29"></g>
                <path d="M0.884716981,0.977225806 L0.601698113,1.13903226 L0.0794339623,1.85341935 L0.113207547,2.25735484 L7.51811321,5.81051613 L9.95415094,4.55941935 C9.95415094,4.55941935 4.66188679,1.40458065 3.52415094,0.833612903 L3.52415094,0.833612903 C2.38660377,0.262451613 2.43943396,0.185612903 2.43943396,0.185612903 L2.43943396,0.185612903 L0.884716981,0.977225806 Z" id="Fill-28" mask="url(#mask-6)"></path>
            </g>
            <g id="Group-36" transform="translate(0.270833, 0.000000)">
                <path d="M77.1660791,15.3338375 L76.8851239,15.1848853 C77.0603328,15.2983076 77.3001537,15.5163673 77.3001537,15.8302797 C77.3001537,16.1391163 76.9413925,16.4040287 76.7768552,16.509447 L68.9299,20.0343235 L47.3145866,30.790702 C47.1302582,30.8847976 47.0006463,31.0612757 46.9645567,31.2666462 L45.7103478,38.4210367 C45.601691,38.9688215 46.1628254,39.4047458 46.6595418,39.1579888 L53.8685269,35.5792319 L75.924094,24.6106502 C76.3862731,24.3806821 76.7031239,23.9318733 76.7671537,23.4157139 L77.9619896,16.9133554 C78.0407657,16.2745984 77.7260493,15.6413076 77.1660791,15.3338375" id="Fill-31" fill="#FFC900"></path>
                <g id="Group-35">
                    <mask id="mask-8" fill="white">
                        <use xlink:href="#path-7"></use>
                    </mask>
                    <g id="Clip-34"></g>
                    <path d="M47.3622209,1.59244143 C47.4173254,1.4093259 47.5797284,1.00170837 47.9724448,0.825425498 C48.4041612,0.631572908 48.9542358,0.852170518 48.9542358,0.852170518 L48.2083851,0.456070916 C47.8170269,0.258509163 47.3855045,0.155628685 46.9477731,0.155628685 L41.0644,0.155628685 C39.7845791,0.155628685 38.6892806,1.08350518 38.4671164,2.35574821 L32.237594,38.0218916 C32.0649075,39.0112622 31.0231612,39.5787641 30.1090866,39.1818837 L10.2419821,30.5504653 L2.72837015,27.2860112 C2.72875821,27.2862064 2.73069851,27.2869873 2.73069851,27.2869873 L2.7182806,27.2817163 C2.71866866,27.2819116 2.71925075,27.2821068 2.71944478,27.282302 L2.58808657,27.225298 C2.3874597,27.1183179 2.04325075,26.898306 2.04325075,26.6492064 C2.04325075,26.4682382 2.50756418,26.1646725 2.69732537,26.0313378 L2.08380299,26.3817562 C1.69089254,26.6072343 1.41575821,26.9951347 1.33077313,27.4431625 L0.0230119403,34.344549 C-0.098838806,35.0434335 0.27078806,35.7350948 0.916325373,36.0152343 L29.4284299,48.4024733 C30.0392358,48.6679713 30.697191,48.8048199 31.3621313,48.8048199 L36.9030418,48.8048199 C38.1828627,48.8048199 39.2779672,47.8771386 39.5003254,46.6045052 L46.0682358,9.00081195 L47.3622209,1.59244143 Z" id="Fill-33" fill="#FFC900" mask="url(#mask-8)"></path>
                </g>
            </g>
        </g>
    </g>
</svg>