<svg xmlns="http://www.w3.org/2000/svg" xmlns:xlink="http://www.w3.org/1999/xlink" width="719" height="488" xmlns:v="https://vecta.io/nano"><style><![CDATA[.B{mask:url(#m)}.C{fill:#d4ecff}.D{fill:#8fb6e5}.E{fill:#18386b}.F{fill:#fff}.G{fill:#618fc6}.H{fill:#ffc900}.I{fill:#ffc2b0}.J{fill:#b2d3ea}.K{stroke:#b2d3ea}.L{stroke-width:2}.M{stroke-linejoin:round}.N{fill:#274f89}.O{fill:#303030}.P{stroke-linecap:square}.Q{stroke-linecap:round}]]></style><defs><path id="A" d="M0 487h719V0H0z"/><path id="B" d="M534.125 449.726l-45.421-26.032c-1.251-.716-1.972-2.618-1.612-4.247l7.866-35.523c.36-1.629 1.666-2.368 2.916-1.651l45.422 26.032c1.25.716 1.972 2.618 1.611 4.247l-7.865 35.523c-.36 1.629-1.666 2.367-2.917 1.651"/><path id="C" d="M475.41 441.938l-2.286-1.143c-.183-.092-.16-.252.051-.358l2.699-1.35c.212-.105.532-.117.715-.025l2.287 1.143c.184.092.16.252-.052.358l-2.697 1.35c-.212.105-.533.117-.717.025"/><path id="D" d="M480.164 439.933l-2.053-1.231c-.164-.099-.144-.272.047-.386l2.034-1.22a.69.69 0 0 1 .643-.028l2.053 1.232c.165.099.145.272-.046.385l-2.034 1.221c-.19.114-.478.127-.644.027"/><path id="E" d="M483.165 441.933l-2.054-1.231c-.164-.099-.144-.272.047-.386l2.034-1.22c.191-.115.479-.127.644-.028l2.053 1.232c.165.099.145.272-.045.385l-2.035 1.221c-.191.114-.479.127-.644.027"/><path id="F" d="M486.165 443.933l-2.054-1.231c-.164-.099-.143-.272.047-.386l2.035-1.22c.191-.115.479-.127.644-.028l2.053 1.232c.165.099.145.272-.046.385l-2.035 1.221c-.19.114-.478.127-.643.027"/><path id="G" d="M490.164 445.933l-2.053-1.231c-.164-.099-.144-.272.047-.386l2.035-1.22a.69.69 0 0 1 .643-.028l2.053 1.232c.165.099.144.272-.046.385l-2.035 1.221c-.191.114-.479.127-.644.027"/><path id="H" d="M493.165 447.933l-2.054-1.231c-.164-.099-.144-.272.046-.386l2.035-1.22c.191-.115.479-.127.644-.028l2.053 1.232c.165.099.145.272-.046.385l-2.034 1.221c-.191.114-.479.127-.644.027"/><path id="I" d="M485.165 438.933l-2.054-1.232c-.164-.099-.144-.272.047-.385l2.034-1.221c.19-.114.478-.126.643-.027l2.053 1.232c.165.099.145.273-.046.386l-2.034 1.221c-.19.114-.479.126-.643.027"/><path id="J" d="M481.165 436.933l-2.054-1.232c-.164-.099-.144-.272.047-.385l2.034-1.221c.19-.114.479-.126.644-.027l2.053 1.232c.165.099.145.273-.046.386l-2.034 1.221c-.19.114-.478.126-.643.027"/><path id="K" d="M488.165 440.933l-2.054-1.232c-.164-.099-.144-.272.046-.385l2.035-1.221c.191-.114.479-.126.644-.027l2.053 1.232c.165.099.145.273-.045.386l-2.035 1.221c-.191.114-.479.126-.644.027"/><path id="L" d="M495.164 444.933l-2.053-1.232c-.164-.099-.144-.272.047-.385l2.034-1.221c.191-.114.479-.126.644-.027l2.053 1.232c.165.099.144.273-.046.386l-2.035 1.221c-.191.114-.479.126-.644.027"/><path id="M" d="M498.165 446.933l-2.054-1.232c-.164-.099-.144-.272.046-.385l2.035-1.221c.191-.114.479-.126.644-.027l2.053 1.232c.165.099.145.272-.046.385l-2.034 1.221c-.191.114-.479.126-.644.027"/><path id="N" d="M515.165 456.933l-2.054-1.232c-.164-.099-.143-.272.047-.385l2.035-1.221c.191-.114.479-.126.644-.027l2.053 1.232c.165.099.145.273-.046.386l-2.034 1.221c-.191.114-.479.126-.644.027"/><path id="O" d="M504.164 446.933l-2.053-1.232c-.164-.099-.144-.272.047-.386l2.034-1.221a.69.69 0 0 1 .643-.028l2.053 1.232c.165.099.145.272-.046.385l-2.034 1.221c-.19.114-.479.126-.644.027"/><path id="P" d="M507.165 448.933l-2.054-1.232c-.164-.099-.144-.272.046-.386l2.035-1.221c.191-.115.479-.127.644-.028l2.053 1.232c.165.099.145.272-.045.385l-2.035 1.221c-.191.114-.479.126-.644.027"/><path id="Q" d="M492.164 435.933l-2.053-1.232c-.164-.099-.144-.272.047-.385l2.034-1.221c.19-.114.478-.126.643-.027l2.053 1.232c.165.099.145.273-.046.386l-2.034 1.221c-.19.114-.479.126-.644.027"/><path id="R" d="M506 292.553c0 .494-.224 1.094-.5 1.341s-.5.047-.5-.447.224-1.094.5-1.341.5-.047.5.447"/><path id="S" d="M527.587 261.708c-.781-.39-.782-1.023-.002-1.414s2.047-.392 2.828-.002.782 1.023.002 1.414-2.047.392-2.828.002"/><path id="T" d="M434 232.106c0 .988-.671 2.189-1.5 2.683s-1.5.094-1.5-.895.671-2.189 1.5-2.682 1.5-.094 1.5.894"/><path id="U" d="M444 226.106c0 .987-.671 2.189-1.5 2.682s-1.5.094-1.5-.894.671-2.189 1.5-2.683 1.5-.094 1.5.895"/><path id="V" d="M354.624 191.691l25.753-14.473c1.449-.821 2.624-3.024 2.624-4.921v-9.041c0-1.897-1.174-2.768-2.624-1.947l-25.753 14.473c-1.449.821-2.624 3.025-2.624 4.922v9.04c0 1.897 1.174 2.768 2.624 1.947"/><path id="W" d="M381.665 161c.401.376.651 1.015.651 1.884v9.052c0 1.899-1.161 4.106-2.594 4.928l-25.462 14.494c-.46.265-.886.336-1.26.273.475.446 1.165.513 1.943.066l25.462-14.493c1.433-.823 2.595-3.029 2.595-4.929v-9.052c0-1.29-.542-2.089-1.335-2.223"/><path id="X" d="M362.489 181.926l2.021-1.475c.27-.197.489-.726.489-1.181v-2.728c0-.455-.219-.664-.489-.467l-2.021 1.474c-.271.197-.489.727-.489 1.181v2.728c0 .456.219.665.489.468"/><path id="Y" d="M370.489 176.926l2.021-1.475c.27-.197.489-.726.489-1.181v-2.728c0-.456-.219-.664-.489-.467l-2.021 1.474c-.271.197-.489.727-.489 1.181v2.728c0 .456.219.665.489.468"/><path id="Z" d="M362.489 280.926l2.021-1.475c.27-.197.489-.726.489-1.18v-2.728c0-.456-.219-.665-.489-.468l-2.021 1.474c-.271.197-.489.727-.489 1.182v2.727c0 .456.219.665.489.468"/><path id="a" d="M332.601 181.715l-59.201-33.892c-1.325-.758-2.399-2.794-2.399-4.546v-11.193c0-1.752 1.074-2.557 2.399-1.799l59.201 33.892c1.325.759 2.399 2.794 2.399 4.546v11.194c0 1.752-1.074 2.557-2.399 1.798"/><path id="b" d="M330.788 177.855l-55.575-32.041c-.669-.387-1.212-1.422-1.212-2.313v-8.44c0-.891.543-1.301 1.212-.915l55.575 32.042c.669.386 1.212 1.421 1.212 2.313v8.44c0 .891-.543 1.301-1.212.915"/><path id="c" d="M286.784 148.862l-8.568-4.666c-.671-.366-1.216-1.348-1.216-2.192s.545-1.232 1.216-.868l8.568 4.666c.672.366 1.216 1.347 1.216 2.191s-.544 1.233-1.216.868"/><path id="d" d="M294 150.894c0 .988-.672 1.389-1.5.894s-1.5-1.695-1.5-2.682.672-1.389 1.5-.894 1.5 1.695 1.5 2.682"/><path id="e" d="M299 153.894c0 .988-.672 1.388-1.5.894s-1.5-1.695-1.5-2.682.672-1.389 1.5-.894 1.5 1.695 1.5 2.682"/><path id="f" d="M303 156.895c0 .987-.672 1.388-1.5.894s-1.5-1.695-1.5-2.683.671-1.388 1.5-.894 1.5 1.696 1.5 2.683"/><path id="g" d="M308 159.895c0 .987-.672 1.388-1.5.894s-1.5-1.695-1.5-2.683.672-1.388 1.5-.894 1.5 1.695 1.5 2.683"/><path id="h" d="M328.298 173.906l-2.596-1.669c-.388-.249-.702-.918-.702-1.494v-3.059c0-.576.314-.84.702-.591l2.596 1.669c.388.249.702.918.702 1.493v3.059c0 .576-.315.841-.702.591"/><path id="i" d="M286.784 167.862l-8.568-4.665c-.671-.366-1.216-1.348-1.216-2.192s.545-1.233 1.216-.868l8.568 4.666c.672.366 1.216 1.347 1.216 2.191s-.544 1.233-1.216.868"/><path id="j" d="M299 173.894c0 .987-.672 1.389-1.5.894s-1.5-1.695-1.5-2.683.672-1.388 1.5-.893 1.5 1.695 1.5 2.682"/><path id="k" d="M303 176.894c0 .987-.672 1.388-1.5.894s-1.5-1.695-1.5-2.683.671-1.388 1.5-.893 1.5 1.695 1.5 2.682"/><path id="l" d="M328.298 193.906l-2.596-1.669c-.388-.249-.702-.918-.702-1.494v-3.059c0-.576.314-.84.702-.591l2.596 1.669c.388.249.702.917.702 1.493v3.059c0 .575-.315.84-.702.591"/></defs><g fill="none" fill-rule="evenodd"><path d="M394.209 365.833l20.744 11.625c1.378.772 1.398 2.072.044 2.886l-39.945 24.037c-1.354.814-3.578.829-4.942.031l-104.013-60.84c-1.364-.798-3.57-.754-4.901.097L251 350.186" class="K L M P"/><path d="M598.79 421.517c3.42 1.971 9.023 1.979 12.449.015l31.186-17.873c3.426-1.963 3.435-5.192.02-7.174l-60.29-34.999c-3.415-1.983-9.002-1.981-12.416.004l-31.182 18.126c-3.414 1.984-3.408 5.221.014 7.193l60.22 34.709z" class="J"/><path d="M415 208l52.944-31.058c1.363-.8 3.589-.79 4.946.022l22.618 13.549c1.356.813 3.587.832 4.957.043L637 112m-222 63l80.161-45.139c1.377-.775 3.633-.784 5.015-.021l23.201 12.817c1.382.764 3.628.736 4.991-.062L608 96" class="K L M Q"/><path d="M534.874 466.442l-37.867 21.279a2.17 2.17 0 0 1-2.18-.029l-45.751-27.348a2.23 2.23 0 0 1 .03-3.829l36.832-21.223a2.17 2.17 0 0 1 2.181.006l46.785 27.293a2.23 2.23 0 0 1-.03 3.853" class="J"/><path d="M613.631 412.067l33.771-19.588c1.11-.644 1.626-1.512 1.589-2.414l.008.002-.014-4.907-1.879 2.203-.377-.237-69.086-39.823c-2.743-1.581-6.889-1.747-9.26-.372l-33.297 19.313-2.086-2.3.015 4.802h.001c-.05 1.082.72 2.235 2.268 3.127l69.086 39.822c2.744 1.581 6.889 1.748 9.261.372" class="G"/><path d="M631.513 400.05l-2.025.904c-.269.12-.488-.006-.488-.285a.87.87 0 0 1 .488-.719l2.025-.905c.269-.12.487.008.487.285a.87.87 0 0 1-.487.72" class="E"/><path d="M577.436 347.304c-2.731-1.581-6.857-1.748-9.217-.372l-33.141 19.314-2.077-2.3.016 4.801h.001c-.05 1.083.716 2.235 2.257 3.129l68.763 39.826c1.424.825 3.227 1.26 4.963 1.297l-.066-47.452-31.498-18.243z" class="D"/><path d="M534.599 362.52l33.775-19.588c2.372-1.376 6.518-1.21 9.261.372l69.093 39.822c2.744 1.581 3.044 3.978.672 5.354l-33.775 19.588c-2.372 1.376-6.518 1.209-9.261-.372l-69.093-39.822c-2.743-1.581-3.044-3.978-.672-5.354" class="C"/><path d="M613.628 408.074l33.778-19.449c1.223-.705 1.73-1.679 1.563-2.672-.06.806-.58 1.571-1.589 2.152l-33.778 19.449c-2.372 1.366-6.519 1.2-9.262-.369l-69.099-39.541c-1.328-.761-2.079-1.711-2.236-2.644-.081 1.092.684 2.262 2.261 3.164l69.099 39.541c2.744 1.57 6.89 1.736 9.262.369" class="F"/><path d="M537.185 363.294l32.359-18.609c1.757-1.011 4.83-.889 6.862.273l67.91 38.814c2.033 1.162 2.256 2.923.498 3.934l-32.357 18.609c-1.758 1.011-4.831.889-6.864-.273l-67.91-38.813c-2.033-1.162-2.256-2.924-.498-3.935" class="E"/><path d="M604.44 396L627 382.84l-1.44-.84L603 395.16zm16.015-3L632 385.896l-1.456-.896L619 392.104z" class="C"/><path d="M614.4 396l3.6-2.161-1.4-.839-3.6 2.16z" class="H"/><path d="M609.399 399l3.601-2.161-1.399-.839-3.601 2.16zm11.08-9l9.521-5.193-1.479-.807-9.521 5.193z" class="F"/><path d="M608.479 397l9.521-5.193-1.479-.807-9.521 5.193z" class="C"/><path d="M615.293 384.854c.39.195 1.023.195 1.414 0s.391-.512 0-.707-1.023-.195-1.414 0-.39.511 0 .707" class="H"/><path d="M613.293 386.854c.39.195 1.023.195 1.414 0s.39-.512 0-.707-1.024-.195-1.414 0-.39.512 0 .707" class="F"/><path d="M610.293 387.854c.391.195 1.024.195 1.414 0s.39-.512 0-.707-1.023-.195-1.414 0-.391.512-.001.707" class="C"/><path d="M608.293 389.854c.39.195 1.023.195 1.414 0s.39-.512 0-.707a1.78 1.78 0 0 0-1.414 0c-.391.195-.391.511 0 .707" class="H"/><path d="M605.293 390.854c.391.195 1.024.195 1.414 0s.391-.512 0-.707-1.024-.195-1.414 0-.391.512 0 .707" class="F"/><path d="M554.399 363l3.601-2.161-1.399-.839-3.601 2.161z" class="H"/><path d="M549.399 366l3.601-2.16-1.399-.84-3.601 2.16zm22-13l3.601-2.16-1.4-.84-3.6 2.16zm-15.872 12l5.473-3.127-1.527-.873-5.473 3.127z" class="F"/><path d="M551.556 367l2.444-1.222-1.555-.778-2.445 1.222z" class="C"/><path d="M484.643 302l-39.105 22.64c-1.363.789-1.362 2.078.003 2.865l72.435 41.713c1.366.786 1.364 2.07-.002 2.855l-72.945 41.828c-1.367.784-1.374 2.076-.014 2.873L476.135 435" class="K L M P"/><path d="M477.547 289.544c-3.401 1.98-3.396 5.213.011 7.183l15.186 8.782c3.406 1.97 8.992 1.991 12.414.045l43.256-24.603c3.421-1.945 3.451-5.182.068-7.192l-15.545-9.236c-3.383-2.01-8.933-2.034-12.334-.054l-43.055 25.074z" class="J"/><path d="M546.16 407.051l-47.709-27.754c-.554-.322-1.117-.372-1.617-.2l.002-.005-.087.033c-.006.003-.013.005-.021.008l-1.724.665 1.548.763-.022.085-8.43 38.627c-.388 1.783.391 3.865 1.74 4.651l46.563 27.087-.166 1.987 1.884-.735c.633-.299 1.14-.973 1.35-1.935l8.43-38.627c.389-1.784-.39-3.866-1.739-4.651" class="E"/><path d="M546.491 406.781l-47.778-27.487c-.555-.319-1.119-.369-1.619-.198l.002-.005-.087.032c-.006.003-.013.005-.021.008l-1.727.659 1.55.756-.022.085-5.789 26.22L514.378 425 548 408.678c-.317-.818-.843-1.514-1.509-1.897" class="G"/><path d="M544.476 412l3.519-1.492c.064-1.357-.5-2.759-1.426-3.508L541 409.333l3.476 2.667z" class="N"/><path d="M535.175 452.702l-48.312-27.588c-1.367-.78-2.155-2.85-1.761-4.623l8.536-38.395c.394-1.773 1.822-2.578 3.188-1.798l48.311 27.588c1.367.781 2.156 2.85 1.761 4.623l-8.536 38.395c-.394 1.774-1.821 2.578-3.187 1.798" class="C"/><g class="F"><path d="M545.14 407.902l-48.24-27.607c-.661-.378-1.334-.377-1.9-.082.454-.098.948-.029 1.437.249l48.24 27.608c1.365.781 2.152 2.853 1.759 4.627l-8.524 38.423c-.202.914-.681 1.565-1.283 1.88.815-.176 1.494-.908 1.747-2.048l8.523-38.424c.394-1.774-.394-3.846-1.759-4.627"/><use xlink:href="#B"/></g><use xlink:href="#B" class="E"/><path d="M534.622 449.567l-45.518-26.052c-1.253-.717-1.975-2.62-1.615-4.25l7.883-35.55c.182-.824.609-1.418 1.146-1.714-.722.184-1.318.855-1.543 1.875l-7.882 35.55c-.361 1.631.362 3.534 1.615 4.251l45.517 26.052c.619.355 1.251.351 1.775.062-.432.111-.909.046-1.378-.222" class="D"/><path d="M534.999 453.624l-6.547-.859-42.262-24.24c-1.355-.777-3.721-.68-5.286.218l-29.947 17.17-3.958-.519v2.232h.004c-.027.516.27 1.012.909 1.378l47.894 27.472c1.355.777 3.722.68 5.286-.217l32.612-18.7c.88-.505 1.319-1.156 1.294-1.766v-2.168z" class="E"/><path d="M503 438.747L500.011 437h-32.867l-16.203 9.463-3.941-.527v2.264h.004c-.027.524.269 1.026.905 1.398l47.686 27.871c.714.417 1.708.584 2.717.516L503 438.747z" class="G"/><path d="M449 446.225l-2-.225v2.18h.005c-.03.505.307.989 1.034 1.346L449 450v-3.775z" class="D"/><path d="M496 477.675c1.429.523 3.474.409 5-.299V472h-5v5.675z" class="N"/><path d="M495.808 474.47l-47.893-27.76c-1.355-.784-1.185-2.156.379-3.064l32.613-18.896c1.564-.906 3.931-1.005 5.285-.22l47.894 27.76c1.355.785 1.185 2.157-.379 3.063l-32.612 18.897c-1.565.906-3.931 1.005-5.286.22" class="C"/><path d="M533.708 454.556l-32.614 18.872c-1.565.906-3.932 1.004-5.287.22l-47.896-27.725c-.444-.258-.722-.577-.843-.924-.212.642.059 1.293.843 1.747l47.896 27.724c1.355.784 3.722.686 5.287-.22l32.614-18.872c1.052-.608 1.47-1.426 1.222-2.135-.154.467-.562.931-1.222 1.313" class="F"/><g class="D"><path d="M468.41 437.938l-2.287-1.143c-.183-.092-.16-.252.052-.358l2.698-1.35c.212-.105.533-.117.716-.025l2.287 1.143c.184.092.159.252-.052.358l-2.698 1.35c-.211.105-.532.117-.716.025m3 2l-2.286-1.143c-.183-.092-.16-.253.052-.358l2.698-1.35c.212-.105.532-.117.716-.025l2.286 1.143c.184.092.16.252-.052.358l-2.698 1.35c-.212.105-.533.117-.717.025"/><use xlink:href="#C"/><use xlink:href="#D"/><use xlink:href="#E"/><use xlink:href="#F"/><use xlink:href="#G"/><use xlink:href="#H"/><use xlink:href="#D" x="17" y="10"/><use xlink:href="#E" x="17" y="10"/><use xlink:href="#F" x="17" y="10"/><use xlink:href="#G" x="17" y="10"/><use xlink:href="#H" x="17" y="10"/><use xlink:href="#I"/><use xlink:href="#J"/><path d="M477.922 435.925l-4.801-3.001c-.179-.112-.157-.307.05-.436l2.209-1.38c.206-.129.518-.144.697-.032l4.801 3c.179.112.157.307-.05.437l-2.209 1.38c-.206.129-.52.144-.698.032m2.042-2.993l-3.844-2.197c-.176-.101-.154-.277.05-.393l2.179-1.246c.203-.116.512-.129.689-.028l3.844 2.196c.177.101.155.278-.049.394l-2.179 1.246c-.203.116-.513.129-.689.028"/><use xlink:href="#K"/><use xlink:href="#J" x="10" y="6"/><use xlink:href="#L"/><use xlink:href="#M"/><use xlink:href="#I" x="16" y="10"/><use xlink:href="#K" x="17" y="10"/><use xlink:href="#J" x="27" y="16"/><use xlink:href="#L" x="17" y="10"/><use xlink:href="#N"/><path d="M520.946 459.925l-4.826-3.017c-.178-.111-.156-.304.049-.432l2.192-1.37c.205-.128.516-.142.693-.032l4.826 3.017c.178.111.156.305-.05.432l-2.191 1.37c-.205.127-.516.142-.693.031m6.104-3.99l-3.935-2.248c-.171-.098-.15-.269.049-.383l2.117-1.21c.198-.113.498-.125.67-.027l3.934 2.248c.171.098.15.269-.048.382l-2.117 1.21c-.198.113-.498.125-.67.027m-32.885-15l-2.054-1.231c-.164-.099-.144-.272.047-.386l2.034-1.22c.19-.115.479-.127.644-.028l2.053 1.232c.165.099.145.272-.046.385l-2.034 1.221c-.19.114-.478.127-.643.027m-4.001-2l-2.054-1.231c-.164-.099-.144-.272.046-.386l2.035-1.221c.191-.115.479-.127.644-.027l2.053 1.231c.165.099.145.272-.046.386l-2.034 1.221c-.191.114-.479.127-.644.027m-3-2l-2.054-1.232c-.164-.099-.144-.272.047-.385l2.034-1.221c.191-.114.479-.127.644-.027l2.053 1.231c.165.099.145.272-.045.386l-2.035 1.22c-.191.114-.479.127-.644.028m-3.001-2l-2.053-1.232c-.164-.099-.144-.272.047-.385l2.034-1.221c.19-.114.478-.126.643-.027l2.053 1.232c.165.099.145.272-.046.386l-2.034 1.221c-.19.114-.479.127-.644.028m13 7.998l-2.054-1.231c-.164-.099-.144-.272.047-.386l2.034-1.22c.191-.115.479-.127.644-.028l2.054 1.232c.164.099.144.272-.046.385l-2.035 1.221c-.191.114-.479.127-.644.027m4.001 2l-2.054-1.231c-.164-.099-.143-.272.047-.386l2.035-1.22c.191-.115.479-.127.644-.028l2.053 1.232c.165.099.145.272-.046.385l-2.034 1.221c-.191.114-.479.127-.644.027"/><use xlink:href="#O"/><use xlink:href="#P"/><path d="M511.165 450.933l-2.054-1.232c-.164-.099-.144-.272.047-.386l2.034-1.221c.19-.115.479-.127.644-.028l2.053 1.232c.165.099.145.272-.046.385l-2.034 1.221c-.19.114-.478.126-.643.027m2.999 2.002l-2.054-1.232c-.164-.099-.144-.272.047-.386l2.034-1.221c.191-.115.479-.127.644-.028l2.053 1.232c.165.099.145.272-.045.385l-2.035 1.221c-.191.114-.479.126-.644.027"/><path d="M517.165 453.933l-2.054-1.232c-.164-.099-.143-.272.047-.386l2.035-1.221c.191-.115.479-.127.644-.028l2.053 1.232c.165.099.145.272-.046.385l-2.034 1.221c-.191.114-.479.126-.644.027"/><use xlink:href="#O" x="17" y="9"/><use xlink:href="#P" x="17" y="9"/><use xlink:href="#Q"/><path d="M489.164 433.933l-2.054-1.232c-.164-.099-.144-.272.047-.386l2.034-1.221c.191-.115.479-.127.644-.028l2.054 1.232c.164.099.144.272-.046.385l-2.035 1.221c-.191.114-.479.126-.644.027m-3.999-1.998l-2.054-1.232c-.164-.099-.144-.272.046-.385l2.035-1.221c.191-.114.479-.127.644-.027l2.053 1.231c.165.099.145.272-.045.386l-2.035 1.22c-.191.114-.479.127-.644.028"/><use xlink:href="#M" x="-16" y="-17"/><path d="M485.38 427.939l-2.258-1.128c-.181-.09-.158-.249.051-.354l.739-.37c.21-.105.526-.116.708-.025l2.259 1.128c.18.09.157.249-.051.354l-.739.37a.9.9 0 0 1-.708.025m4.999 3l-2.259-1.129c-.18-.09-.157-.249.051-.353l.739-.37c.209-.105.526-.116.708-.025l2.258 1.128c.181.091.158.25-.051.354l-.739.37a.9.9 0 0 1-.708.026m3.001 1.999l-2.258-1.129c-.181-.09-.158-.249.051-.353l.739-.37c.21-.106.526-.116.708-.026l2.258 1.129c.181.09.158.249-.051.353l-.739.37a.9.9 0 0 1-.708.025m3 2.001l-2.258-1.128c-.181-.09-.158-.249.051-.354l.738-.37c.21-.105.526-.116.708-.025l2.259 1.128c.181.09.157.249-.051.354l-.739.37a.9.9 0 0 1-.708.025m4 2l-2.259-1.129c-.181-.09-.157-.249.051-.353l.739-.37c.209-.105.526-.116.708-.025l2.258 1.128c.181.091.158.25-.051.354l-.738.37a.9.9 0 0 1-.708.026m18 9.998l-2.258-1.128c-.181-.09-.158-.249.051-.353l.739-.37c.21-.105.526-.116.708-.025l2.258 1.128c.181.091.158.249-.051.354l-.739.37c-.21.105-.526.116-.708.025m4 2l-2.258-1.129c-.181-.09-.158-.249.051-.353l.739-.37c.21-.105.526-.116.708-.025l2.258 1.129c.182.09.158.249-.051.353l-.739.37a.9.9 0 0 1-.708.025m3 2l-2.258-1.128c-.181-.091-.158-.25.051-.354l.739-.37c.209-.106.525-.116.707-.026l2.258 1.129c.181.09.158.249-.051.353l-.739.37c-.209.104-.525.116-.707.025m3 2.001l-2.258-1.128c-.181-.09-.158-.249.051-.353l.739-.37c.21-.105.526-.116.708-.025l2.258 1.128c.181.09.158.249-.051.354l-.739.37a.9.9 0 0 1-.708.025"/><use xlink:href="#K" x="8" y="-3"/><use xlink:href="#J" x="18" y="3"/><use xlink:href="#L" x="7" y="-3"/><use xlink:href="#N" x="-9" y="-13"/><use xlink:href="#Q" x="17" y="10"/><use xlink:href="#K" x="24" y="7"/><path d="M516.165 449.933l-2.054-1.232c-.164-.099-.144-.272.047-.385l2.034-1.221c.19-.114.479-.126.644-.027l2.053 1.232c.165.099.145.273-.046.386l-2.034 1.221c-.19.114-.478.127-.643.028m2.998 1.998l-2.054-1.232c-.164-.099-.144-.272.047-.385l2.034-1.221c.191-.114.479-.126.644-.027l2.054 1.232c.164.099.144.273-.046.386l-2.035 1.221c-.191.114-.479.127-.644.028"/><path d="M522.165 453.933l-2.054-1.232c-.164-.099-.143-.272.047-.385l2.035-1.221c.191-.114.479-.126.644-.027l2.053 1.232c.165.099.145.273-.046.386l-2.034 1.221c-.191.114-.479.127-.644.028m-45.318-15.997l-6.724-3.362c-.184-.091-.161-.252.051-.357l2.261-1.132c.212-.105.532-.118.716-.025l6.724 3.361c.184.092.161.253-.051.358l-2.261 1.132c-.212.105-.532.117-.716.025m41 24l-6.724-3.362c-.184-.091-.161-.252.05-.357l2.262-1.132c.212-.105.532-.117.716-.025l6.724 3.362c.184.091.161.252-.051.357l-2.262 1.132c-.211.105-.531.117-.715.025"/><use xlink:href="#C" x="29" y="16"/><path d="M479.59 444.933l-3.472-1.984c-.175-.1-.153-.273.049-.389l2.563-1.464c.202-.115.506-.127.68-.028l3.473 1.984c.175.099.152.274-.049.388l-2.562 1.465c-.202.114-.506.127-.681.028m21 12l-3.473-1.985c-.175-.099-.153-.273.048-.388l2.564-1.464c.201-.116.505-.128.679-.028l3.473 1.983c.175.099.152.274-.049.388l-2.563 1.465c-.201.115-.505.128-.68.028"/><path d="M484.59 446.932l-3.472-1.984c-.175-.099-.153-.273.049-.389l2.563-1.464c.202-.116.506-.128.68-.028l3.473 1.984c.175.099.152.274-.049.388l-2.562 1.465c-.202.115-.506.128-.681.028"/><path d="M484.375 443l15.48 8.962c.193.111.193.292 0 .403l-2.679 1.551a.77.77 0 0 1-.696 0L481 444.954l3.375-1.954zm29.262 19.046l2.272 1.136c.135.067.118.184-.037.261l-.985.493c-.155.077-.39.086-.523.019l-2.272-1.136c-.135-.067-.118-.184.037-.262l.986-.492a.66.66 0 0 1 .523-.019m-3.001-2.001l2.272 1.136c.134.067.117.184-.038.262l-.985.492a.66.66 0 0 1-.524.019l-2.272-1.136c-.134-.067-.118-.184.037-.261l.986-.493c.155-.077.389-.086.524-.019m-4-2l2.272 1.136c.135.067.118.184-.037.262l-.985.492c-.155.078-.39.086-.523.019l-2.272-1.136c-.135-.067-.118-.184.037-.261l.986-.493c.155-.077.389-.086.523-.019"/><path d="M512.637 459.046l2.272 1.136c.135.067.118.184-.037.261l-.985.493c-.155.077-.389.086-.523.019l-2.272-1.136c-.135-.067-.118-.184.037-.262l.986-.492a.66.66 0 0 1 .523-.019"/></g><path d="M505.754 400L500 397.087l.246-1.087 5.754 2.913z" class="C"/><path d="M504.755 403L499 400.086l.245-1.086 5.755 2.914z" class="F"/><path d="M531.755 441L526 438.086l.245-1.086 5.755 2.914zm-28.001-32L498 406.086l.246-1.086 5.754 2.914z" class="C"/><path d="M204.57 361.438c-3.434 2.003-3.426 5.264.018 7.25l15.325 8.832c3.444 1.985 9.072 1.97 12.506-.032l31.02-18.09c3.434-2.003 3.411-5.237-.053-7.189l-15.569-8.773c-3.464-1.952-9.107-1.91-12.541.093l-30.707 17.908z" class="J"/><path d="M453 251.891l10.733 6.213c1.365.791 3.597.786 4.959-.012l41.832-24.491c1.363-.797 3.594-.801 4.958-.01l35.499 20.599c1.365.792 1.355 2.07-.022 2.841L525.978 271" class="K L M"/><g class="G"><path d="M511.997 290.872h0v-5.185l-11.749-.006-4.062-2.32c-.932-.532-2.56-.466-3.636.149l-3.79 2.165-11.759-.006V291c-.027.36.177.708.624.963l15.186 8.677c.932.532 2.56.465 3.637-.149l14.663-8.378c.621-.354.92-.814.886-1.242"/><path d="M495 283c-.701.016-1.429.187-2.005.506l-3.897 2.166-12.096-.006v5.334c-.028.36.182.708.642.963l15.62 8.679c.462.255 1.087.372 1.736.357V283z"/></g><path d="M478 286.001l-.998-.001v5.571a1.18 1.18 0 0 0 .468 1.007l.53.422v-6.999zm15 14.767c.83.323 2.03.305 3-.031V295h-3v5.768z" class="D"/><path d="M492.813 295.641l-15.184-8.676c-.932-.532-.815-1.463.261-2.078l14.662-8.378c1.076-.615 2.704-.682 3.635-.149l15.184 8.676c.932.532.815 1.463-.261 2.078l-14.661 8.378c-1.076.615-2.703.681-3.636.149" class="C"/><path d="M511.112 285.677l-14.662 8.73c-1.076.641-2.704.711-3.636.155l-15.185-9.04c-.208-.124-.36-.269-.465-.426-.319.531-.175 1.108.465 1.489l15.185 9.041c.932.555 2.56.486 3.636-.155l14.662-8.73c.837-.499 1.091-1.194.726-1.74-.147.243-.389.476-.726.677" class="F"/><use xlink:href="#R" class="C"/><path d="M508 291.553c0 .494-.224 1.094-.499 1.341s-.501.047-.501-.447.224-1.094.501-1.341.499-.047.499.447" class="H"/><use xlink:href="#R" x="4" y="-2" class="C"/><path d="M493.68 290.82l-7.375-4.338c-.453-.266-.396-.731.127-1.039l7.121-4.189c.522-.307 1.313-.34 1.766-.074l7.375 4.338c.453.266.396.731-.127 1.039l-7.121 4.189c-.522.307-1.313.34-1.766.074" class="D"/><path d="M494.904 286.982l-.868-.434c-.053-.027-.046-.073.015-.104l.839-.419c.061-.031.154-.034.207-.008l.868.434c.054.027.047.074-.015.104l-.838.419c-.061.031-.155.034-.207.007" class="C"/><path d="M486.306 285.989l.02.011.106-.068 7.122-3.812c.523-.28 1.314-.31 1.767-.068l7.354 3.937c.417-.277.44-.654.02-.878l-7.375-3.948c-.454-.242-1.244-.212-1.767.068l-7.122 3.812c-.522.28-.58.704-.126.946" class="G"/><path d="M522.663 281.622l21.688-12.567c.429-.249.631-.581.637-.929l.012.009-.003-5.716-1.207 1.013-13.691-7.902c-1.113-.643-2.798-.712-3.762-.153l-20.729 12.011-1.607-.927L504 272.2l.01-.007c.011.421.313.861.912 1.208l13.979 8.069c1.114.643 2.798.711 3.762.153" class="D"/><path d="M543.793 263.434l-13.654-7.903c-1.111-.643-2.79-.711-3.752-.153L521 258.508v23.491c.644.012 1.265-.107 1.723-.373l21.628-12.568c.428-.249.629-.581.637-.929l.012.008-.003-5.717-1.204 1.013" class="G"/><path d="M504.65 265.098l21.688-12.716c.964-.564 2.647-.496 3.761.155l13.979 8.164c1.114.651 1.236 1.636.272 2.201l-21.688 12.716c-.963.564-2.647.496-3.762-.155l-13.979-8.164c-1.114-.651-1.235-1.636-.272-2.201" class="C"/><g class="F"><path d="M522.662 276.625l21.698-12.465c.528-.304.719-.731.611-1.16-.098.216-.276.416-.56.579l-21.699 12.466c-.963.553-2.648.485-3.762-.152l-13.986-8.004c-.504-.288-.793-.643-.883-.997-.235.517.045 1.128.833 1.578l13.986 8.004c1.114.637 2.799.706 3.764.151"/><use xlink:href="#S"/></g><use xlink:href="#S" x="-4" y="3" class="E"/><path d="M518.587 266.708c-.782-.39-.782-1.023-.002-1.414s2.047-.392 2.828-.002.782 1.023.002 1.414-2.047.392-2.828.002" class="H"/><path d="M228.662 368.623l21.688-12.568c.429-.248.631-.58.637-.928l.012.008-.003-5.715-1.206 1.013-13.691-7.901c-1.115-.643-2.798-.712-3.762-.153l-20.73 12.011-1.607-.927v5.739l.009-.008c.011.422.313.862.912 1.208l13.979 8.068c1.114.643 2.798.711 3.762.153" class="D"/><path d="M249.794 350.434l-13.654-7.903c-1.111-.643-2.791-.711-3.752-.153l-5.388 3.13v23.491c.645.012 1.265-.107 1.723-.372l21.63-12.569c.428-.249.629-.581.636-.929l.012.008-.003-5.717-1.203 1.014" class="G"/><path d="M210.65 353.098l21.687-12.716c.964-.565 2.648-.496 3.762.155l13.979 8.164c1.114.65 1.236 1.636.272 2.2l-21.687 12.716c-.964.565-2.648.496-3.762-.155l-13.979-8.163c-1.114-.651-1.236-1.637-.272-2.201" class="C"/><g class="F"><path d="M228.662 363.625l21.698-12.466c.528-.303.718-.73.611-1.159-.098.215-.276.416-.56.579l-21.698 12.466c-.964.554-2.649.486-3.764-.152l-13.986-8.004c-.504-.289-.793-.644-.883-.997-.235.516.045 1.128.833 1.578l13.986 8.004c1.114.637 2.799.706 3.764.151"/><use xlink:href="#S" x="-294" y="87"/></g><use xlink:href="#S" x="-298" y="90" class="E"/><path d="M224.586 354.708c-.781-.39-.782-1.023-.001-1.414s2.046-.392 2.828-.003.782 1.023.002 1.414-2.047.392-2.828.002" class="H"/><g class="J"><path d="M437.557 261c-.869 0-1.737-.233-2.51-.7L420 251.209l.911-1.531 15.048 9.091a3.08 3.08 0 0 0 3.166.018l24.492-14.434c.391-.23.62-.639.611-1.094a1.23 1.23 0 0 0-.648-1.071l-32.641-17.612.836-1.575 32.641 17.614c.971.524 1.564 1.501 1.584 2.612a2.99 2.99 0 0 1-1.49 2.667l-24.49 14.433a4.84 4.84 0 0 1-2.462.674M376.459 398c-1.076 0-2.153-.268-3.121-.808l-60.848-33.877c-.897-.499-1.434-1.411-1.438-2.437s.529-1.943 1.422-2.447l27.539-15.533c.435-.248.483-.662.483-.829a.94.94 0 0 0-.477-.832l-30.638-17.596c-.842-.485-1.358-1.355-1.379-2.325a2.73 2.73 0 0 1 1.28-2.383L321.796 311l.96 1.516-12.516 7.933c-.411.261-.448.666-.445.828a.94.94 0 0 0 .478.807l30.638 17.596a2.72 2.72 0 0 1 1.378 2.395 2.72 2.72 0 0 1-1.395 2.385l-27.539 15.533c-.461.26-.509.702-.509.878s.053.616.517.875l60.848 33.878a4.64 4.64 0 0 0 4.649-.086l23.136-14.227a.43.43 0 0 0 .211-.376c-.001-.074-.022-.26-.211-.375l-16.746-10.181.931-1.534 16.746 10.181a2.22 2.22 0 0 1 1.074 1.905 2.22 2.22 0 0 1-1.064 1.909l-23.142 14.231a6.44 6.44 0 0 1-3.335.929"/><path d="M402.27 262.299l-29.066-16.919c-1.784-1.038-1.561-2.852.499-4.051l28.066-16.337c2.06-1.199 5.176-1.33 6.96-.291l29.066 16.919c1.784 1.038 1.559 2.852-.5 4.051l-28.066 16.338c-2.06 1.199-5.176 1.329-6.96.29"/></g><g class="G"><path d="M447.993 228.242h0v-12.676l-28.198-.015-9.747-5.672c-2.237-1.302-6.143-1.139-8.726.364l-9.094 5.292-28.223-.016v13.036c-.064.881.424 1.732 1.499 2.356l36.446 21.209c2.237 1.302 6.144 1.139 8.726-.364l35.191-20.479c1.491-.867 2.209-1.99 2.126-3.036"/><path d="M406 209c-1.637.04-3.336.456-4.678 1.237l-9.093 5.293-28.224-.016v13.039c-.064.881.424 1.732 1.499 2.358l36.445 21.214c1.075.625 2.536.909 4.05.872V209z"/></g><path d="M367 216.002l-2.995-.002v12.733c-.06.861.398 1.692 1.406 2.303L367 232v-15.998zm35 36.418c1.936.807 4.736.762 7-.078V238h-7v14.42z" class="D"/><path d="M401.951 239.119l-36.441-21.257c-2.237-1.305-1.956-3.584.626-5.09l35.187-20.526c2.583-1.506 6.489-1.67 8.725-.365l36.442 21.258c2.236 1.304 1.956 3.583-.627 5.09l-35.187 20.525c-2.582 1.507-6.489 1.67-8.725.365" class="C"/><path d="M402.078 235.263l-30.802-17.787c-1.89-1.092-1.653-2.999.53-4.259l29.741-17.174c2.184-1.26 5.485-1.397 7.376-.305l30.801 17.786c1.89 1.092 1.653 2.999-.53 4.259l-29.741 17.175c-2.183 1.26-5.485 1.397-7.375.305" class="D"/><use xlink:href="#T" class="H"/><g class="C"><path d="M439 229.106c0 .987-.671 2.189-1.5 2.682s-1.5.094-1.5-.894.672-2.189 1.5-2.683 1.5-.094 1.5.895"/><use xlink:href="#U"/></g><g class="G"><path d="M447.993 208.242h0v-12.676l-28.198-.015-9.747-5.672c-2.237-1.302-6.143-1.139-8.726.364l-9.094 5.292-28.223-.015v13.036c-.064.88.424 1.731 1.499 2.356l36.446 21.209c2.237 1.302 6.144 1.139 8.726-.364l35.191-20.479c1.491-.867 2.209-1.99 2.126-3.036"/><path d="M406 189c-1.637.04-3.336.456-4.678 1.237l-9.093 5.293-28.224-.016v13.039c-.064.881.424 1.732 1.499 2.358l36.445 21.214c1.075.626 2.536.909 4.05.872V189z"/></g><path d="M367 196.002l-2.995-.002v12.734c-.06.861.398 1.692 1.406 2.302L367 212v-15.998zm35 36.418c1.936.808 4.736.762 7-.078V218h-7v14.42z" class="D"/><path d="M401.951 219.119l-36.441-21.257c-2.237-1.304-1.956-3.583.626-5.09l35.187-20.525c2.583-1.507 6.489-1.671 8.725-.365l36.442 21.257c2.236 1.304 1.956 3.583-.627 5.089l-35.187 20.525c-2.582 1.507-6.489 1.671-8.725.366" class="C"/><path d="M402.078 215.263l-30.802-17.787c-1.89-1.092-1.653-2.998.53-4.259l29.741-17.174c2.184-1.261 5.485-1.398 7.376-.306l30.801 17.787c1.89 1.092 1.653 2.998-.53 4.259l-29.741 17.174c-2.183 1.261-5.485 1.398-7.375.306" class="D"/><g class="C"><use xlink:href="#T" y="-20.001"/><path d="M439 209.106c0 .988-.671 2.189-1.5 2.683s-1.5.094-1.5-.894.672-2.189 1.5-2.683 1.5-.094 1.5.894"/><use xlink:href="#T" x="10" y="-26"/></g><g class="G"><path d="M447.993 188.242h0v-12.675l-28.198-.016-9.747-5.672c-2.237-1.302-6.143-1.138-8.726.364l-9.094 5.293-28.223-.016v13.036c-.064.881.424 1.731 1.499 2.356l36.446 21.21c2.237 1.302 6.144 1.138 8.726-.365l35.191-20.479c1.491-.867 2.209-1.99 2.126-3.036"/><path d="M406 169c-1.637.04-3.336.456-4.678 1.237l-9.093 5.293-28.224-.016v13.039c-.064.881.424 1.732 1.499 2.358l36.445 21.214c1.075.625 2.536.909 4.05.872V169z"/></g><path d="M367 176.002l-2.995-.002v12.733c-.06.861.398 1.692 1.406 2.303L367 192v-15.998zm35 36.418c1.936.807 4.736.762 7-.078V198h-7v14.42z" class="D"/><path d="M401.951 199.119l-36.441-21.258c-2.237-1.304-1.956-3.583.626-5.089l35.187-20.526c2.583-1.507 6.489-1.67 8.725-.365l36.442 21.258c2.236 1.304 1.956 3.583-.627 5.09l-35.187 20.525c-2.582 1.506-6.489 1.67-8.725.365" class="C"/><path d="M445.869 175.598l-35.189 20.636c-2.582 1.514-6.489 1.679-8.727.367L365.51 175.23c-.499-.292-.866-.635-1.116-1.006-.768 1.256-.42 2.618 1.116 3.519l36.443 21.371c2.238 1.312 6.144 1.148 8.727-.367l35.189-20.635c2.007-1.177 2.617-2.821 1.742-4.112-.35.573-.933 1.124-1.742 1.598" class="F"/><use xlink:href="#U" x="-10" y="-35" class="C"/><path d="M439 189.106c0 .988-.671 2.189-1.5 2.683s-1.5.094-1.5-.895.672-2.189 1.5-2.682 1.5-.094 1.5.894" class="H"/><use xlink:href="#T" x="10" y="-46.001" class="C"/><path d="M403.62 186.587l-16.919-9.978c-1.038-.612-.908-1.682.291-2.389l16.337-9.634c1.198-.707 3.012-.784 4.051-.172l16.918 9.977c1.039.613.909 1.682-.29 2.39l-16.337 9.634c-1.2.707-3.014.783-4.052.172" class="E"/><path d="M405.259 177.946l-2.169-1.301c-.133-.08-.117-.219.037-.312l2.094-1.257c.154-.092.387-.102.519-.022l2.169 1.301c.134.08.116.219-.037.312l-2.094 1.256a.56.56 0 0 1-.52.023" class="C"/><path d="M386.701 175.971l.048.029.243-.176 16.34-9.912c1.198-.727 3.012-.806 4.051-.176l16.874 10.235c.958-.72 1.008-1.7.047-2.282l-16.921-10.265c-1.038-.63-2.852-.551-4.051.176l-16.34 9.912c-1.199.727-1.329 1.827-.291 2.458" class="G"/><path d="M336.559 322.105l-63.004-35.806c-2.304-1.325-2.015-3.641.645-5.173l36.251-20.859c2.661-1.531 6.685-1.697 8.989-.372l63.003 35.806c2.305 1.326 2.016 3.642-.645 5.173l-36.251 20.86c-2.661 1.531-6.685 1.697-8.989.371" class="J"/><path d="M387.993 283.817h0V136.518l-58.41-15.326-10.758-6.227c-2.469-1.429-6.782-1.251-9.634.399l-10.038 5.811-31.154-.018 9.225 142.196c-.07.968.467 1.901 1.654 2.587l58.288 44.094c2.469 1.429 6.782 1.25 9.634-.4l38.846-22.486c1.644-.952 2.437-2.185 2.345-3.332" class="G"/><path d="M314.772 114c-1.823.045-3.715.501-5.209 1.358l-10.127 5.811-31.43-.018v147.703c-.071.968.472 1.901 1.669 2.587l68.112 38.598c1.197.686 2.824.998 4.51.957L343 162.371 314.772 114z" class="C"/><path d="M338 310.345c2.213.912 5.413.862 8-.087V161h-8v149.345z" class="D"/><path d="M337.17 162.035l-67.504-38.603c-2.468-1.429-2.159-3.926.692-5.577l38.84-22.489c2.851-1.651 7.163-1.83 9.632-.4l67.504 38.603c2.469 1.429 2.159 3.926-.692 5.577l-38.84 22.489c-2.85 1.65-7.163 1.83-9.632.4" class="C"/><path d="M385.648 136.653l-38.842 22.281c-2.851 1.636-7.164 1.813-9.632.396l-67.508-38.245c-.551-.315-.955-.686-1.232-1.085-.848 1.355-.463 2.827 1.232 3.799l67.508 38.245c2.468 1.417 6.781 1.239 9.632-.396l38.842-22.281c2.215-1.27 2.888-3.045 1.923-4.439-.386.619-1.03 1.214-1.923 1.726" fill="#fafdff"/><path d="M339.046 146.552l-45.261-25.899c-1.163-.664-1.017-1.822.327-2.587l18.303-10.433c1.343-.766 3.376-.849 4.539-.186l45.261 25.9c1.163.663 1.017 1.821-.326 2.586l-18.304 10.433c-1.343.766-3.376.849-4.539.186" class="E"/><path d="M314.711 121.946l-2.603-1.302c-.16-.079-.14-.219.044-.311l2.513-1.257c.185-.092.464-.102.624-.023l2.603 1.302c.16.08.14.219-.044.312l-2.513 1.257c-.185.092-.464.102-.624.022m9 5l-2.603-1.302c-.16-.08-.14-.219.044-.312l2.513-1.256c.185-.092.464-.103.624-.023l2.603 1.302c.16.08.14.219-.044.312l-2.514 1.256c-.184.093-.463.103-.623.023m8.999 5l-2.603-1.301c-.16-.08-.14-.219.044-.312l2.514-1.257c.184-.092.463-.102.624-.022l2.603 1.301c.16.08.14.219-.045.312l-2.513 1.257c-.184.092-.464.102-.624.022m8.001 5l-2.603-1.302c-.16-.08-.14-.219.044-.312l2.513-1.256c.185-.092.464-.102.624-.023l2.603 1.302c.16.08.14.219-.044.312l-2.513 1.256c-.185.093-.464.103-.624.023" class="C"/><path d="M293.785 120.772l.054.031.272-.187 18.306-10.524c1.343-.772 3.376-.856 4.539-.187L362.167 136c1.073-.764 1.129-1.805.054-2.423l-45.264-26.125c-1.163-.669-3.196-.585-4.539.187l-18.306 10.523c-1.343.772-1.489 1.941-.326 2.61" class="D"/><use xlink:href="#V" class="E"/><use xlink:href="#W" class="F"/><use xlink:href="#X" class="G"/><use xlink:href="#Y" class="F"/><use xlink:href="#V" y="66" class="E"/><use xlink:href="#W" y="66" class="F"/><g class="G"><use xlink:href="#X" y="66"/><use xlink:href="#Y" y="67"/></g><path d="M354.624 290.691l25.753-14.474c1.449-.821 2.624-3.024 2.624-4.921v-9.04c0-1.897-1.174-2.769-2.624-1.948l-25.753 14.474c-1.449.821-2.624 3.024-2.624 4.921v9.04c0 1.897 1.174 2.768 2.624 1.947" class="E"/><g class="F"><path d="M381.665 260c.401.376.651 1.015.651 1.884v9.052c0 1.899-1.161 4.106-2.594 4.928l-25.462 14.494c-.46.265-.886.336-1.26.272.475.446 1.165.513 1.943.067l25.462-14.494c1.433-.822 2.595-3.029 2.595-4.928v-9.052c0-1.29-.542-2.089-1.335-2.223"/><use xlink:href="#Z"/></g><use xlink:href="#Z" x="8" y="-4" class="G"/><path d="M354.624 224.691l25.753-14.473c1.449-.821 2.624-3.024 2.624-4.921v-9.04c0-1.897-1.174-2.769-2.624-1.948l-25.753 14.474c-1.449.821-2.624 3.024-2.624 4.921v9.04c0 1.897 1.174 2.769 2.624 1.947" class="E"/><g class="F"><path d="M381.665 194c.401.376.651 1.015.651 1.884v9.052c0 1.899-1.161 4.106-2.594 4.928l-25.462 14.494c-.46.265-.886.336-1.26.272.475.446 1.165.513 1.943.067l25.462-14.494c1.433-.822 2.595-3.028 2.595-4.928v-9.052c0-1.29-.542-2.089-1.335-2.223"/><use xlink:href="#Z" y="-66"/><use xlink:href="#Z" x="8" y="-70"/></g><use xlink:href="#a" class="D"/><g class="C"><use xlink:href="#b"/><use xlink:href="#c"/></g><g class="E"><use xlink:href="#d"/><use xlink:href="#e"/></g><use xlink:href="#f" class="H"/><g class="E"><use xlink:href="#g"/><use xlink:href="#h"/></g><use xlink:href="#a" y="20" class="D"/><g class="C"><use xlink:href="#b" y="20"/><use xlink:href="#i"/></g><use xlink:href="#g" x="-14" y="11" class="F"/><use xlink:href="#j" class="E"/><use xlink:href="#k" class="H"/><g class="E"><use xlink:href="#g" y="19"/><use xlink:href="#l"/></g><use xlink:href="#a" y="40" class="D"/><g class="C"><use xlink:href="#b" y="40"/><path d="M286.784 187.862l-8.568-4.666c-.671-.366-1.216-1.348-1.216-2.192s.545-1.233 1.216-.867l8.568 4.666c.672.366 1.216 1.347 1.216 2.191s-.544 1.233-1.216.868"/></g><use xlink:href="#d" y="40" class="F"/><path d="M299 193.894c0 .987-.672 1.389-1.5.894s-1.5-1.695-1.5-2.682.672-1.389 1.5-.894 1.5 1.695 1.5 2.682" class="E"/><use xlink:href="#f" y="40" class="H"/><g class="E"><path d="M308 198.894c0 .988-.672 1.389-1.5.894s-1.5-1.695-1.5-2.682.672-1.388 1.5-.894 1.5 1.695 1.5 2.682"/><use xlink:href="#h" y="40"/></g><use xlink:href="#a" y="60" class="D"/><g class="C"><use xlink:href="#b" y="60"/><use xlink:href="#c" y="59"/></g><g class="E"><use xlink:href="#g" x="-14" y="51"/><path d="M299 213.894c0 .988-.672 1.389-1.5.894s-1.5-1.695-1.5-2.683.672-1.388 1.5-.893 1.5 1.695 1.5 2.682"/></g><use xlink:href="#f" y="59" class="H"/><use xlink:href="#g" y="59" class="E"/><use xlink:href="#l" y="39" class="C"/><use xlink:href="#a" y="80" class="D"/><g class="C"><use xlink:href="#b" y="80"/><use xlink:href="#i" y="60"/></g><use xlink:href="#g" x="-14" y="71" class="E"/><use xlink:href="#j" y="60" class="F"/><use xlink:href="#k" y="59" class="H"/><path d="M308 238.895c0 .987-.672 1.388-1.5.894s-1.5-1.695-1.5-2.683.672-1.388 1.5-.894 1.5 1.696 1.5 2.683" class="F"/><use xlink:href="#h" y="79" class="C"/><use xlink:href="#a" y="100" class="D"/><g class="C"><use xlink:href="#b" y="100"/><path d="M286.784 247.862l-8.568-4.666c-.671-.366-1.216-1.348-1.216-2.192s.545-1.232 1.216-.867l8.568 4.666c.672.366 1.216 1.347 1.216 2.191s-.544 1.233-1.216.868"/></g><g class="E"><use xlink:href="#d" y="100"/><use xlink:href="#e" y="99"/></g><use xlink:href="#f" y="99" class="H"/><g class="E"><use xlink:href="#g" y="99"/><use xlink:href="#h" y="99"/></g><use xlink:href="#a" y="120" class="D"/><g class="C"><use xlink:href="#b" y="120"/><use xlink:href="#i" y="100"/></g><use xlink:href="#g" x="-14" y="111" class="F"/><use xlink:href="#j" y="99" class="E"/><use xlink:href="#k" y="99" class="H"/><use xlink:href="#g" y="119" class="E"/><use xlink:href="#l" y="99" class="C"/><path d="M315 121c-.553 0-1-.404-1-.904V82.904c0-.499.447-.904 1-.904s1 .404 1 .904v37.193c0 .499-.447.904-1 .904" class="D"/><mask id="m" class="F"><use xlink:href="#A"/></mask><g class="D B"><path d="M312 94h6V80h-6z"/><path d="M317.121 95.414c-1.172.781-3.071.781-4.243 0s-1.172-2.047 0-2.828 3.071-.781 4.243 0 1.172 2.047 0 2.828M310 83h10V61h-10z"/></g><path d="M312 82.647v4.705c1.76.863 4.239.863 6 0v-4.705c-1.761-.863-4.24-.863-6 0" class="B G"/><g class="D B"><path d="M318.536 85.121c-1.953 1.171-5.119 1.171-7.071 0s-1.952-3.071 0-4.243 5.118-1.171 7.071 0 1.952 3.071 0 4.243M324 126c-.553 0-1-.404-1-.904V87.904c0-.499.447-.904 1-.904s1 .404 1 .904v37.193c0 .499-.447.904-1 .904"/><path d="M321 100h6V86h-6z"/><path d="M326.121 100.414c-1.172.781-3.071.781-4.243 0s-1.172-2.047 0-2.828 3.071-.781 4.243 0 1.172 2.047 0 2.828M319 88h10V66h-10z"/></g><path d="M321 87.648v4.704c1.761.864 4.24.864 6 .001v-4.705c-1.76-.864-4.239-.864-6 0" class="B G"/><g class="D B"><path d="M327.535 90.121c-1.952 1.171-5.118 1.171-7.071 0s-1.953-3.071-.001-4.243 5.119-1.171 7.071 0 1.953 3.071 0 4.243M333 131c-.553 0-1-.404-1-.904V92.904c0-.499.447-.904 1-.904s1 .404 1 .904v37.193c0 .499-.447.904-1 .904"/><path d="M330 105h6V91h-6z"/><path d="M335.121 106.414c-1.172.781-3.071.781-4.243 0s-1.172-2.047 0-2.828 3.071-.781 4.243 0 1.172 2.047 0 2.828M328 93h10V71h-10z"/></g><path d="M330 92.647v4.705c1.761.863 4.239.863 6 0v-4.705c-1.761-.863-4.239-.863-6 0" class="B G"/><g class="D B"><path d="M336.536 95.121c-1.952 1.171-5.118 1.171-7.071 0s-1.952-3.071 0-4.243 5.118-1.171 7.071 0 1.952 3.071 0 4.243M341 136c-.553 0-1-.404-1-.904V97.903c0-.499.447-.903 1-.903s1 .404 1 .903v37.194c0 .499-.447.904-1 .904"/><path d="M338 110h6V96h-6z"/><path d="M343.121 111.414c-1.172.781-3.071.781-4.243 0s-1.172-2.047 0-2.828 3.071-.781 4.243 0 1.172 2.047 0 2.828M336 99h10V77h-10z"/></g><path d="M338 98.648v4.704c1.76.864 4.239.864 6 .001v-4.705c-1.761-.864-4.24-.864-6 0" class="B G"/><g class="D B"><path d="M344.536 100.121c-1.953 1.171-5.119 1.171-7.071 0s-1.952-3.071 0-4.243 5.118-1.171 7.071 0 1.952 3.071 0 4.243M381.865 117L396 108.717 382.539 92 379 97.753zM281 25.984L303 13l-.828 12.984c0 .027-12.638 4.016-12.638 4.016L281 25.984z"/><path d="M386.002 74.762c-1.683-.972-3.29-1.539-4.784-1.773-2.229-11.714-10.379-24.155-20.098-29.766-2.924-1.687-5.703-2.589-8.225-2.784-1.327-14.199-11.2-30.334-23.188-37.256-6.263-3.616-11.944-4.044-16.137-1.829l.001-.011-.203.117-.318.183-13.036 7.699 4.332 3.421C300.458 14.463 298 18.824 298 25.271c0 11.888 8.346 26.343 18.641 32.287l69.361 49.53c7.73 4.464 13.998.845 13.998-8.081s-6.267-19.782-13.998-24.245"/><path d="M298 20l30-17.45c-5.824-3.023-11.086-3.273-15.033-1.198l.001-.011-.204.117-.319.183-13.071 7.685 4.343 3.415c-2.725 1.185-4.746 3.674-5.717 7.26M353.979 71L376 58.359c-3.777-6.39-8.978-11.972-14.736-15.225A26.08 26.08 0 0 0 359.01 42L331 58.023 353.979 71z"/></g><g class="C B"><path d="M306 10.32l9.889 5.68L334 5.388c-1.323-1.022-2.681-1.946-4.069-2.743-2.193-1.26-4.313-2.128-6.329-2.645L306 10.32zM373.522 55L356 65.251 362.094 72 378 62.675A50.55 50.55 0 0 0 373.522 55"/><path d="M371.925 82.764c-1.692-.971-3.307-1.539-4.809-1.773-2.242-11.714-10.437-24.153-20.21-29.765-2.939-1.687-5.734-2.589-8.27-2.783-1.334-14.198-11.261-30.333-23.316-37.255-12.963-7.444-23.472-1.41-23.472 13.477a32.6 32.6 0 0 0 .038 1.526c-9.48-4.372-16.886.555-16.886 11.722 0 11.887 8.391 26.342 18.743 32.286l78.182 44.89c7.774 4.464 14.075.845 14.075-8.081s-6.301-19.781-14.075-24.243"/></g><path d="M293 26.514l-.04-1.436.002-.06C287.558 23.113 282.914 23.942 280 27c3.165-2.363 7.77-2.687 13-.486m79.941 55.553c-1.69-.976-3.303-1.545-4.804-1.78-2.239-11.762-10.425-24.252-20.187-29.886-2.936-1.694-5.728-2.6-8.261-2.795C338.357 33.351 328.441 17.15 316.4 10.2c-8.067-4.656-15.181-4.058-19.4.667 4.298-3.671 10.877-3.813 18.257.447 12.041 6.949 21.957 23.151 23.289 37.406 2.533.195 5.325 1.1 8.261 2.794 9.762 5.635 17.948 18.125 20.187 29.887 1.501.235 3.114.804 4.804 1.78 7.765 4.481 14.059 15.38 14.059 24.342 0 3.234-.829 5.762-2.242 7.476 2.106-1.622 3.385-4.562 3.385-8.59 0-8.962-6.295-19.861-14.059-24.342" class="F B"/><path d="M290.288 29.803l5.869 2.705-.298-6.423-.034-1.344c0-5.733 1.742-9.89 4.904-11.705s7.656-1.234 12.651 1.632c10.743 6.165 20.116 21.174 21.337 34.168l.309 3.274 3.298.252c2.027.155 4.246.918 6.597 2.267 8.534 4.897 16.225 16.276 18.289 27.058l.516 2.699 2.731.426c1.088.17 2.248.605 3.449 1.294C376.461 89.867 382 99.401 382 106.924c0 2.815-.786 4.881-2.156 5.667s-3.561.429-6.014-.979l-78.075-44.803C286.673 61.598 279 48.388 279 37.963c0-4.09 1.213-7.206 3.33-8.55.871-.552 1.924-.827 3.112-.827 1.445 0 3.089.407 4.847 1.217" class="B G"/><g class="D B"><path d="M330 79l2-1.207L330.031 76zm-7-28.034l1.964-.966.036 1z"/><path d="M335.922 72L338 70.922 334 67zm-4.888 5.879l-10.108-5.807c-.513-.294-.928-1.037-.926-1.657L320.033 59 332 65.875l-.034 11.414c-.002.621-.419.886-.932.591"/><path d="M325.684 50.085l-10.487 6.646c-.445.281-.086 1.333.59 1.725l10.711 6.212 10.711 6.212c.676.392 1.041-.239.598-1.035l-10.414-18.769c-.45-.81-1.256-1.278-1.709-.991"/></g><g class="C B"><path d="M329.034 78.879l-10.108-5.807c-.513-.294-.928-1.037-.926-1.657L318.033 60 330 66.875l-.034 11.415c-.002.621-.419.885-.932.59"/><path d="M323.684 51.085l-10.487 6.646c-.445.282-.085 1.333.591 1.726l10.71 6.211 10.711 6.213c.676.392 1.041-.239.598-1.036l-10.414-18.768c-.45-.811-1.256-1.278-1.709-.991"/></g><path d="M364.185 278H363v-66.648l7.816-4.545V174H372v33.496l-7.815 4.545z" class="B F"/><g class="J B"><path d="M174.75 293a4.08 4.08 0 0 1-2.011-.532l-21.682-12.265c-.658-.37-1.052-1.045-1.057-1.8a2.06 2.06 0 0 1 1.039-1.81l54.083-31.251c3.103-1.793 6.959-1.789 10.061-.001L277 281.032l-.893 1.543-61.817-35.689a8.31 8.31 0 0 0-8.275 0l-54.083 31.25a.29.29 0 0 0-.15.26c0 .065.021.185.152.259l21.683 12.264a2.28 2.28 0 0 0 2.376-.07l9.163-5.917.968 1.495-9.163 5.919a4.07 4.07 0 0 1-2.212.655"/><path d="M203.27 297.299l-29.066-16.919c-1.784-1.038-1.561-2.852.499-4.051l28.066-16.337c2.06-1.199 5.176-1.329 6.96-.29l29.066 16.919c1.784 1.038 1.56 2.852-.499 4.051l-28.066 16.337c-2.06 1.199-5.176 1.329-6.96.29"/></g><g class="G B"><path d="M248.993 264.242h0v-12.676l-28.198-.016-9.747-5.671c-2.237-1.302-6.144-1.139-8.727.364l-9.094 5.292-28.223-.016v13.036c-.064.881.424 1.732 1.499 2.356l36.446 21.209c2.237 1.302 6.144 1.139 8.726-.364l35.192-20.479c1.49-.867 2.208-1.99 2.125-3.036"/><path d="M207 245c-1.637.04-3.336.456-4.678 1.237l-9.094 5.293-28.223-.016v13.039c-.064.881.424 1.732 1.499 2.358l36.445 21.214c1.075.625 2.536.909 4.05.872V245z"/></g><path d="M168 251.002l-2.995-.002v12.733c-.06.861.398 1.692 1.406 2.303L168 267v-15.998zm35 36.418c1.936.808 4.736.762 7-.078V273h-7v14.42z" class="D B"/><path d="M202.951 275.119l-36.441-21.257c-2.237-1.305-1.956-3.584.626-5.09l35.187-20.526c2.582-1.507 6.489-1.67 8.725-.365l36.442 21.258c2.237 1.304 1.956 3.583-.627 5.09l-35.187 20.525c-2.582 1.506-6.489 1.67-8.725.365" class="B C"/><path d="M203.078 271.263l-30.801-17.787c-1.89-1.092-1.654-2.998.53-4.259l29.741-17.174c2.183-1.261 5.485-1.398 7.375-.305l30.802 17.786c1.89 1.092 1.653 2.999-.531 4.259l-29.741 17.175c-2.182 1.26-5.485 1.397-7.375.305" class="B D"/><path d="M235 267.106c0 .988-.672 2.189-1.5 2.683s-1.5.094-1.5-.894.671-2.189 1.5-2.683 1.5-.094 1.5.894m5-3c0 .988-.672 2.189-1.5 2.683s-1.5.094-1.5-.895.671-2.189 1.5-2.682 1.5-.094 1.5.894m5-2c0 .987-.672 2.189-1.5 2.682s-1.5.094-1.5-.894.671-2.189 1.5-2.683 1.5-.094 1.5.895" class="C B"/><g class="G B"><path d="M248.993 244.242h0v-12.676l-28.198-.015-9.747-5.672c-2.237-1.302-6.144-1.139-8.727.364l-9.094 5.292-28.223-.016v13.037c-.064.88.424 1.731 1.499 2.356l36.446 21.209c2.237 1.302 6.144 1.139 8.726-.364l35.192-20.479c1.49-.867 2.208-1.99 2.125-3.036"/><path d="M207 225c-1.637.04-3.336.456-4.678 1.237l-9.094 5.293-28.223-.016v13.04c-.064.88.424 1.731 1.499 2.357l36.445 21.214c1.075.626 2.536.909 4.05.872V225z"/></g><path d="M168 231.002l-2.995-.002v12.734c-.06.861.398 1.691 1.406 2.302L168 247v-15.998zm35 36.418c1.936.807 4.736.762 7-.078V253h-7v14.42z" class="D B"/><path d="M202.951 255.119l-36.441-21.257c-2.237-1.304-1.956-3.583.626-5.09l35.187-20.525c2.582-1.507 6.489-1.671 8.725-.365l36.442 21.257c2.237 1.305 1.956 3.584-.627 5.09l-35.187 20.525c-2.582 1.507-6.489 1.671-8.725.366" class="B C"/><path d="M203.078 251.263l-30.801-17.787c-1.89-1.092-1.654-2.999.53-4.259l29.741-17.175c2.183-1.26 5.485-1.397 7.375-.305l30.802 17.787c1.89 1.092 1.653 2.999-.531 4.259l-29.741 17.175c-2.182 1.26-5.485 1.397-7.375.305" class="B D"/><path d="M235 247.106c0 .988-.672 2.189-1.5 2.683s-1.5.094-1.5-.895.671-2.189 1.5-2.682 1.5-.094 1.5.894m5-3c0 .987-.672 2.189-1.5 2.682s-1.5.094-1.5-.894.671-2.189 1.5-2.683 1.5-.094 1.5.895m5-2c0 .988-.672 2.189-1.5 2.683s-1.5.094-1.5-.894.671-2.189 1.5-2.683 1.5-.094 1.5.894" class="C B"/><g class="G B"><path d="M248.993 223.242h0v-12.676l-28.198-.015-9.747-5.672c-2.237-1.302-6.144-1.138-8.727.364l-9.094 5.292-28.223-.015v13.036c-.064.881.424 1.731 1.499 2.356l36.446 21.21c2.237 1.302 6.144 1.138 8.726-.365l35.192-20.479c1.49-.867 2.208-1.99 2.125-3.036"/><path d="M207 204c-1.637.04-3.336.456-4.678 1.237l-9.094 5.293-28.223-.016v13.039c-.064.881.424 1.732 1.499 2.358l36.445 21.215c1.075.625 2.536.908 4.05.872V204z"/></g><path d="M168 211.002l-2.995-.002v12.734c-.06.861.398 1.692 1.406 2.302L168 227v-15.998zm35 36.418c1.936.807 4.736.762 7-.078V233h-7v14.42z" class="D B"/><path d="M202.951 235.119l-36.441-21.258c-2.237-1.304-1.956-3.583.626-5.09l35.187-20.525c2.582-1.507 6.489-1.67 8.725-.365l36.442 21.258c2.237 1.304 1.956 3.583-.627 5.089l-35.187 20.526c-2.582 1.506-6.489 1.67-8.725.365" class="B C"/><path d="M246.869 211.598l-35.19 20.635c-2.582 1.515-6.489 1.679-8.726.368L166.51 211.23c-.499-.293-.865-.635-1.116-1.006-.768 1.256-.42 2.618 1.116 3.519l36.444 21.371c2.237 1.312 6.144 1.148 8.726-.367l35.19-20.636c2.006-1.177 2.617-2.821 1.742-4.111-.35.573-.934 1.123-1.742 1.598" class="B F"/><path d="M235 227.106c0 .987-.672 2.189-1.5 2.682s-1.5.094-1.5-.894.671-2.189 1.5-2.683 1.5-.094 1.5.895m5-3c0 .988-.672 2.189-1.5 2.683s-1.5.094-1.5-.894.671-2.189 1.5-2.683 1.5-.094 1.5.894" class="C B"/><path d="M245 221.105c0 .988-.672 2.189-1.5 2.683s-1.5.094-1.5-.895.671-2.189 1.5-2.682 1.5-.094 1.5.894" class="B H"/><path d="M204.62 221.587l-16.919-9.978c-1.038-.612-.908-1.682.291-2.389l16.336-9.634c1.199-.708 3.014-.784 4.052-.172l16.919 9.977c1.038.613.908 1.682-.291 2.39l-16.336 9.634c-1.199.707-3.014.783-4.052.172" class="B E"/><path d="M206.259 212.946l-2.169-1.302c-.133-.08-.116-.219.038-.311l2.094-1.257c.153-.092.386-.102.519-.022l2.169 1.301c.134.08.117.219-.037.312l-2.094 1.256c-.154.093-.386.102-.519.023" class="B C"/><path d="M187.701 211.971l.048.029.243-.176 16.339-9.911c1.199-.727 3.014-.807 4.052-.176l16.874 10.235c.957-.72 1.008-1.7.048-2.281l-16.922-10.265c-1.038-.63-2.852-.552-4.052.176l-16.339 9.911c-1.199.727-1.329 1.828-.291 2.458" class="B G"/><path d="M200 238.171c0 .741-.448 1.041-1 .671s-1-1.272-1-2.012.448-1.042 1-.671 1 1.271 1 2.012m-3-2c0 .741-.447 1.041-1 .671s-1-1.272-1-2.012.448-1.041 1-.671 1 1.272 1 2.012m3 6c0 .741-.448 1.041-1 .671s-1-1.272-1-2.012.448-1.042 1-.671 1 1.271 1 2.012m-3-2c0 .741-.447 1.041-1 .671s-1-1.272-1-2.012.448-1.042 1-.671 1 1.271 1 2.012m3 18c0 .741-.448 1.041-1 .671s-1-1.272-1-2.012.448-1.042 1-.671 1 1.271 1 2.012m-3-2c0 .741-.447 1.041-1 .671s-1-1.272-1-2.012.448-1.042 1-.671 1 1.271 1 2.012m3 5.999c0 .741-.448 1.042-1 .671s-1-1.272-1-2.012.448-1.042 1-.671 1 1.271 1 2.012m-3-1.999c0 .741-.447 1.041-1 .671s-1-1.272-1-2.012.448-1.042 1-.672 1 1.272 1 2.012m3 18c0 .741-.448 1.042-1 .671s-1-1.272-1-2.012.448-1.042 1-.671 1 1.271 1 2.012m-3-2c0 .741-.447 1.042-1 .671s-1-1.271-1-2.012.448-1.042 1-.671 1 1.271 1 2.012m3 6.001c0 .741-.448 1.041-1 .671s-1-1.272-1-2.012.448-1.042 1-.671 1 1.271 1 2.012m-3-2c0 .741-.447 1.041-1 .671s-1-1.272-1-2.012.448-1.042 1-.671 1 1.271 1 2.012" class="C B"/><path d="M206.526 313a6.01 6.01 0 0 1-3.034-.821l-18.489-10.833a2.02 2.02 0 0 1-1.003-1.76c0-.733.376-1.391 1.005-1.759l12.158-7.119.9 1.566-12.158 7.118c-.092.055-.111.135-.111.195s.019.14.11.193l18.488 10.832c1.305.764 2.929.769 4.239.017l36.212-20.833c1.865-1.072 4.177-1.061 6.031.025l30.334 17.688c1.317.774 2.953.776 4.268.006l14.626-8.539.898 1.568-14.626 8.539a6.01 6.01 0 0 1-6.066-.009l-30.333-17.687c-1.307-.767-2.934-.774-4.246-.02l-36.212 20.834a6 6 0 0 1-2.992.798m160.745 67.3l-29.066-16.918c-1.784-1.038-1.561-2.853.499-4.052l28.066-16.337c2.06-1.199 5.176-1.329 6.96-.29l29.066 16.919c1.784 1.038 1.56 2.852-.5 4.052L374.23 380.01c-2.06 1.199-5.176 1.329-6.96.29" class="J B"/><g class="G B"><path d="M411.993 347.242h0v-12.675l-28.197-.017-9.747-5.671c-2.237-1.302-6.144-1.139-8.727.364l-9.094 5.292-28.223-.016v13.037c-.064.88.424 1.731 1.499 2.356l36.446 21.209c2.237 1.302 6.144 1.139 8.727-.364l35.191-20.479c1.49-.867 2.208-1.99 2.125-3.036"/><path d="M370 328c-1.637.04-3.336.455-4.678 1.237l-9.094 5.292-28.223-.015v13.039c-.064.881.424 1.731 1.499 2.358l36.445 21.214c1.075.626 2.536.91 4.05.872V328z"/></g><path d="M331 335.002l-2.995-.002v12.734c-.06.861.398 1.692 1.406 2.303L331 351v-15.998zm36 35.418c1.936.808 4.736.762 7-.078V356h-7v14.42z" class="D B"/><path d="M365.951 358.119l-36.441-21.257c-2.237-1.304-1.956-3.583.626-5.089l35.187-20.526c2.582-1.507 6.489-1.671 8.725-.365l36.441 21.257c2.237 1.304 1.956 3.583-.626 5.09l-35.187 20.525c-2.582 1.506-6.489 1.67-8.725.365" class="B C"/><path d="M367.078 354.263l-30.801-17.787c-1.89-1.092-1.654-2.999.53-4.259l29.741-17.174c2.183-1.261 5.485-1.397 7.375-.305l30.802 17.787c1.89 1.091 1.652 2.998-.531 4.259l-29.741 17.174c-2.183 1.261-5.485 1.398-7.375.306" class="B D"/><path d="M399 350.106c0 .987-.671 2.188-1.5 2.682s-1.5.094-1.5-.894.672-2.189 1.5-2.683 1.5-.094 1.5.895m5-3c0 .988-.671 2.189-1.5 2.683s-1.5.094-1.5-.894.671-2.189 1.5-2.683 1.5-.094 1.5.894m5-2c0 .988-.671 2.189-1.5 2.683s-1.5.093-1.5-.895.672-2.189 1.5-2.682 1.5-.094 1.5.894" class="C B"/><g class="G B"><path d="M411.993 327.242h0v-12.676l-28.197-.016-9.747-5.672c-2.237-1.302-6.144-1.138-8.727.365l-9.094 5.292-28.223-.016v13.036c-.064.881.424 1.732 1.499 2.356l36.446 21.21c2.237 1.302 6.144 1.138 8.727-.364l35.191-20.479c1.49-.867 2.208-1.99 2.125-3.036"/><path d="M370 308c-1.637.04-3.336.456-4.678 1.237l-9.094 5.293-28.223-.016v13.039c-.064.881.424 1.732 1.499 2.357l36.445 21.215c1.075.625 2.536.908 4.05.872V308z"/></g><path d="M331 314.002l-2.995-.002v12.733c-.06.861.398 1.692 1.406 2.303L331 330v-15.998zm36 36.418c1.936.807 4.736.762 7-.078V336h-7v14.42z" class="D B"/><path d="M365.951 338.119l-36.441-21.257c-2.237-1.304-1.956-3.583.626-5.09l35.187-20.526c2.582-1.506 6.489-1.67 8.725-.365l36.441 21.257c2.237 1.304 1.956 3.583-.626 5.09l-35.187 20.525c-2.582 1.507-6.489 1.671-8.725.365" class="B C"/><path d="M367.078 334.264l-30.801-17.787c-1.89-1.092-1.654-2.999.53-4.259l29.741-17.175c2.183-1.26 5.485-1.397 7.375-.305l30.802 17.787c1.89 1.092 1.652 2.999-.531 4.259l-29.741 17.174c-2.183 1.26-5.485 1.397-7.375.306" class="B D"/><path d="M399 330.106c0 .988-.671 2.189-1.5 2.683s-1.5.093-1.5-.894.672-2.19 1.5-2.683 1.5-.094 1.5.894m5-3.001c0 .988-.671 2.189-1.5 2.683s-1.5.094-1.5-.894.671-2.19 1.5-2.683 1.5-.094 1.5.894m5-1.999c0 .987-.671 2.188-1.5 2.682s-1.5.094-1.5-.894.672-2.189 1.5-2.683 1.5-.094 1.5.895" class="C B"/><g class="G B"><path d="M411.993 306.242h0v-12.675l-28.197-.016-9.747-5.671c-2.237-1.302-6.144-1.139-8.727.364l-9.094 5.292-28.223-.016v13.036c-.064.881.424 1.732 1.499 2.356l36.446 21.209c2.237 1.302 6.144 1.139 8.727-.364l35.191-20.479c1.49-.867 2.208-1.99 2.125-3.036"/><path d="M370 287c-1.637.04-3.336.456-4.678 1.237l-9.094 5.293-28.223-.016v13.039c-.064.881.424 1.732 1.499 2.358l36.445 21.214c1.075.626 2.536.91 4.05.872V287z"/></g><path d="M331 294.002l-2.995-.002v12.734c-.06.861.398 1.692 1.406 2.302L331 310v-15.998zm36 36.418c1.936.807 4.736.762 7-.078V316h-7v14.42z" class="D B"/><path d="M365.951 318.119l-36.441-21.258c-2.237-1.304-1.956-3.583.626-5.089l35.187-20.526c2.582-1.507 6.489-1.67 8.725-.365l36.441 21.258c2.237 1.304 1.956 3.583-.626 5.09l-35.187 20.525c-2.582 1.506-6.489 1.67-8.725.365" class="B C"/><path d="M409.869 294.598l-35.19 20.635c-2.582 1.515-6.489 1.679-8.726.368L329.51 294.23c-.499-.292-.865-.635-1.116-1.006-.768 1.256-.42 2.618 1.116 3.519l36.444 21.371c2.237 1.312 6.144 1.148 8.726-.367l35.19-20.635c2.006-1.177 2.617-2.821 1.742-4.112-.35.573-.933 1.124-1.742 1.598" class="B F"/><path d="M399 310.106c0 .988-.671 2.189-1.5 2.683s-1.5.094-1.5-.894.672-2.189 1.5-2.683 1.5-.094 1.5.894m5-3c0 .988-.671 2.189-1.5 2.683s-1.5.094-1.5-.894.671-2.189 1.5-2.683 1.5-.094 1.5.894m5-3c0 .987-.671 2.189-1.5 2.682s-1.5.094-1.5-.894.672-2.189 1.5-2.683 1.5-.094 1.5.895" class="C B"/><path d="M368.62 304.587l-16.919-9.978c-1.038-.612-.908-1.682.291-2.389l16.336-9.634c1.199-.707 3.014-.784 4.052-.172l16.919 9.977c1.038.613.908 1.682-.291 2.39l-16.336 9.634c-1.199.707-3.014.783-4.052.172" class="B E"/><path d="M370.259 295.946l-2.169-1.301c-.133-.08-.116-.219.038-.312l2.094-1.257c.153-.092.386-.102.519-.022l2.169 1.301c.134.08.117.219-.037.312l-2.094 1.257c-.154.092-.386.102-.519.022" class="B C"/><path d="M351.701 294.971l.048.029.243-.176 16.339-9.911c1.199-.728 3.014-.807 4.052-.176l16.874 10.235c.957-.72 1.008-1.7.048-2.282l-16.922-10.265c-1.038-.63-2.852-.551-4.052.176l-16.339 9.912c-1.199.727-1.329 1.827-.291 2.458" class="B G"/><path d="M314 92.171c0 .741-.448 1.041-1 .671s-1-1.272-1-2.012.448-1.042 1-.671 1 1.271 1 2.012m9 5c0 .741-.448 1.041-1 .671s-1-1.272-1-2.012.447-1.042 1-.671 1 1.271 1 2.012m9 5c0 .741-.448 1.041-1 .671s-1-1.272-1-2.012.447-1.042 1-.671 1 1.271 1 2.012m9 6c0 .741-.447 1.041-1 .671s-1-1.272-1-2.012.447-1.042 1-.671 1 1.271 1 2.012" class="C B"/><path d="M352.178 339.387s-2.291-1.176-3.697.575-3.418 5.886-3.48 8.681 2.171 2.606 3.498 1.945 5.206-6.391 5.441-7.514-.276-2.641-.65-2.937-1.113-.749-1.113-.749" class="B E"/><path d="M352.879 338.613l.119 2.653c.026.564-.26 1.101-.754 1.38-.451.253-1.104.448-1.988.307-1.941-.311-2.115-.861-2.253-3.513s4.877-.827 4.877-.827" class="B O"/><path d="M343.178 334.387s-2.291-1.176-3.697.575-3.417 5.887-3.48 8.681 2.171 2.605 3.498 1.944 5.206-6.391 5.441-7.514-.276-2.641-.65-2.937-1.113-.749-1.113-.749" class="B E"/><path d="M343.879 333.613l.12 2.653c.025.564-.261 1.101-.755 1.38-.45.253-1.104.448-1.988.307-1.941-.311-2.115-.861-2.253-3.513s4.876-.827 4.876-.827" class="B O"/><g fill="#565656" class="B"><path d="M364.949 287.781c-.715-11.683-12.604 1.719-12.604 1.719l-8.136 8.006-7.327 8.079a7.27 7.27 0 0 0-1.82 5.824l2.964 22.655A2.22 2.22 0 0 0 340.25 336c.317-.002.681-.031 1.098-.097 2.644-.414 2.449-2.936 2.449-2.936l-.542-21.19 15.387-9.311s7.022-3.002 6.307-14.684"/><path d="M373.949 291.781c-.715-11.682-12.604 1.719-12.604 1.719l-8.136 8.006-7.327 8.079a7.27 7.27 0 0 0-1.82 5.825l2.964 22.655A2.22 2.22 0 0 0 349.25 340c.318-.003.681-.032 1.098-.097 2.644-.414 2.449-2.937 2.449-2.937l-.541-21.189 15.387-9.311s7.021-3.003 6.306-14.685"/></g><path d="M367.242 254.283c8.937 3.702 8.758 8.981 8.758 8.981s-1.751 19.351-1.153 32.276c.249 5.402-28.729 5.814-24.407-8.6 5.096-16.995 3.186-30.753 5.571-32.828s8.919-.787 11.231.171" class="B H"/><path d="M369.921 259.656c-.463 1.824-2.818 2.785-5.259 2.147s-4.046-2.634-3.582-4.458 2.817-2.785 5.259-2.147 4.045 2.634 3.582 4.458" class="B I"/><path d="M365.312 254.872c-1.669 0-3.064.79-3.386 2.059-.409 1.621 1.084 3.418 3.33 4.006 1.11.29 2.231.243 3.156-.135.879-.359 1.469-.976 1.661-1.736s-.031-1.59-.63-2.337c-.63-.786-1.588-1.379-2.699-1.67a5.69 5.69 0 0 0-1.432-.188m1.37 7.128c-.539 0-1.092-.072-1.641-.216-2.704-.709-4.475-2.984-3.947-5.071s3.16-3.21 5.864-2.5c1.288.337 2.407 1.034 3.152 1.964.776.967 1.058 2.071.796 3.108s-1.033 1.863-2.172 2.329c-.626.257-1.325.387-2.05.387" class="B F"/><path d="M363.086 253.72s.085.346-.085 3.08c-.054.86 3.367 1.663 4.25.884s.531-1.587.743-4.513-4.908.548-4.908.548" class="B I"/><path d="M368 254s-.843 2.891-5 4l.063-2.628L368 254z" fill="#ea9c92" class="B"/><path d="M370.776 246.248a7 7 0 0 1-5.024 8.527 7 7 0 0 1-8.527-5.024 7 7 0 0 1 5.023-8.526 7 7 0 0 1 8.527 5.023" class="B I"/><path d="M366 248.509s-4.006 1.474-6.78 1.491-2.163-1.978-2.163-1.978l8.235-1.022.708 1.509z" fill="#ea9c92" class="B"/><path d="M358.283 248.473s3.282-1.408 6.16-.821a3.01 3.01 0 0 1 1.739 1.045c.142.177.322.339.527.385.511.117 1.346-2.025 2.338-2.073s1.655.661.841 1.978-.538 2.791-.164 3.003 4.344-2.863.842-9.878-12.398-3.237-13.782-1.815c0 0-1.457 1.284-2.643.141 0 0-1.328 10.064 4.142 8.035" fill="#514335" class="B"/><path d="M370.737 278.055v5.366c0 .614-.259 1.201-.713 1.615L359 295.084l1.252 1.916 14.558-10.556a2.96 2.96 0 0 0 1.206-2.086L377 275l-6.263 3.055z" class="B I"/><path d="M375.297 261s3.427 4.929 4.703 17.902c0 0-5.853 1.811-9.176.782S375.297 261 375.297 261" class="B H"/><path d="M370 267s-.946 6.819-1 10.024c-.014.882.385 1.677 1 1.976v-12z" fill="#d6a712" class="B"/><path d="M367 301.606l-2.38-.322-15.368-9.087c-.493-.291-1.353-.255-1.923.082l-10.889 6.437-1.44-.195v1.468h.002c-.01.194.098.38.33.517l17.416 10.298c.493.292 1.353.255 1.923-.081l11.859-7.01c.321-.19.48-.433.47-.663v-1.444z" class="B E"/><path d="M356 295.655l-1.121-.655h-12.324l-6.076 3.546-1.478-.198v1.488h.002c-.01.197.101.385.339.525l17.882 10.441c.267.156.641.219 1.019.193l1.759-15.34z" class="B G"/><path d="M335.904 299.079l-.807-.079v1.355h.002c-.012.178.124.35.417.477l.388.168v-1.921z" class="B D"/><path d="M353 310.875c.572.201 1.389.157 2-.115V308h-2v2.875z" class="B N"/><path d="M352.748 309.803l-17.416-10.342c-.493-.292-.431-.804.139-1.141l11.858-7.04c.569-.338 1.43-.375 1.923-.082l17.416 10.342c.493.292.431.804-.139 1.141l-11.858 7.04c-.569.338-1.43.375-1.923.082" class="B F"/><path d="M352.692 307.843l-14.417-8.208c-.408-.232-.357-.637.114-.906l6.327-3.508c.471-.268 1.183-.298 1.592-.065l14.417 8.208c.408.232.357.638-.114.906l-6.326 3.509c-.471.267-1.183.297-1.592.065" class="B C"/><g class="I B"><path d="M348.286 290.593l-.186 1.18c-.157 1.005-.13 2.028.081 3.025l.221 1.039c.124.586.61 1.041 1.226 1.149.481.083.936-.239.991-.704l.296-2.522s.676.846 1.002.846-.366-2.527-1.103-3.956-2.528-.058-2.528-.058"/><path d="M354 271.661l-1.859 3.734a7.4 7.4 0 0 0-.761 2.834L350.572 291l-2.446-.058-1.11-14.343a5.37 5.37 0 0 1 .063-1.325l1.268-7.273 5.653 3.661z"/></g><path d="M352.834 310l-1.48-1.922-15.57-8.964c-.499-.287-.903-1.057-.902-1.72l.014-12.676-.895-1.162.841-.485.002.002c.161-.104.375-.101.61.034l17.645 10.16c.499.287.903 1.057.902 1.72l-.014 13.805c-.001.373-.129.631-.331.736l-.82.473z" class="B E"/><path d="M342.164 303l-1.12-.646-6.145-10.631.006-6.982-.905-1.178.851-.491v.001c.163-.104.379-.101.618.036l17.857 10.298c.266.154.506.445.673.783L342.164 303z" class="B G"/><path d="M334.451 284l-.451-.481.954-.452.001.001c.183-.097.425-.094.692.032l.353.168-1.549.732z" class="B D"/><path d="M353.133 294c.461.258.819.747.867 1.198l-2.027.802-.973-1.156 2.133-.844z" class="B N"/><path d="M352.119 293.43l-17.221-10.321c-.487-.291-.883.017-.884.69L334 297.823c-.001.673.393 1.455.881 1.747l17.221 10.32c.487.292.882-.017.883-.689l.015-14.023c.001-.673-.393-1.455-.881-1.747" class="B F"/><path d="M361 296.736l-.291.535c-.336.618-.864 1.136-1.521 1.496l-1.808.988a2 2 0 0 1-1.845.037l-.061-.033c-.575-.319-.627-1.05-.154-1.481l1.889-1.723s-1.061.721-1.359.43c-.218-.212 1.029-1.25 1.987-1.285s1.884-.701 1.884-.701l1.279 1.736z" class="B I"/><path d="M356.531 254s-6.792 7.359-9.531 14.109c0 0 2.323 4.167 8.007 5.802S356.531 254 356.531 254" class="B H"/><path d="M353.727 273L355 263l-3 9.369c.534.227 1.114.438 1.727.631" fill="#d6a712" class="B"/><path d="M359 252s.964 1.532 2.372 1.922 1.628-.812 1.628-.812" class="B F"/><path d="M272.874 296.151c1.369.559 2.23 2.017 2.116 3.586-.054.74-.147 1.429-.309 1.753-.435.874-1.863 2.074-4.14 1.212s-7.338-5.406-7.527-8.382c-.352-5.527 6.257.359 9.86 1.83m-13.226 10.245s.544 3.327.279 3.937-1.84 1.911-4.169 1.629-9.028-2.601-10.52-7.034c-2.313-6.873 12.932.516 12.932.516l1.477.952z" class="E B"/><path d="M253.507 253.034L253 304.346c.052 1.785 1.206 3.293 2.756 3.558l.616.078c1.57.139 2.485-.543 3.007-1.261.422-.581.645-1.318.676-2.071l.646-21.904 3.225-19.585 4.462 34.663c.072.938.514 1.804 1.226 2.282.492.329 1.159.586 2.034.559 1.277-.039 2.164-.732 2.705-1.351.429-.49.654-1.164.646-1.855l-1.769-20.856-.658-26.602-19.066 3.034z" fill="#565656" class="B"/><path d="M275.138 236a1.85 1.85 0 0 1-.285-.022l-8.277-1.249c-1.016-.154-1.712-1.081-1.554-2.07s1.103-1.671 2.125-1.516l5.711.863-1.949-10.879c-.178-.987.501-1.927 1.514-2.098s1.977.488 2.153 1.474l2.396 13.371a1.78 1.78 0 0 1-.505 1.583 1.89 1.89 0 0 1-1.329.544" class="B I"/><g class="H B"><path d="M267 210s2.898-.164 6.635 7.248-1.38 9.752-1.38 9.752L267 210z"/><path d="M259.792 212.118c.125-.05 7.657-4.854 10.44.173 4.539 8.196 4.272 34.579 2.838 37.997-1.326 3.163-4.639 5.495-6.96 6.808-2.065 1.168-4.376 1.884-6.755 1.903-2.354.018-6.866-2.054-6.702-5.101.753-14.017-.498-25.831-1.653-37.294 0 0 1.444-1.54 8.792-4.486"/></g><g class="I B"><path d="M247.781 239.998c.212-.009.423-.061.623-.155.546-.258.935-.803 1.033-1.445l3.554-10.102c.158-1.043-1.71-5.112-2.663-5.285s-3.37 1.673-3.528 2.717l-.874 9.026-7.426-2.356c-.91-.467-1.664-1.418-2.202-.54s-.325 2.068.478 2.657l9.96 5.158c.312.231.679.34 1.045.324"/><path d="M238 232.68l-.613-1.295a3.47 3.47 0 0 0-.983-1.223l-2.567-2.048c-.217-.173-.561-.146-.738.059-.144.167-.131.398.032.551l1.072 1.008c.174.164.229.399.142.609l-.409.99c-.136.331-.062.7.197.971l2.574 2.698 1.292-2.32z"/></g><path d="M250.961 216s-5.167 3.89-5.961 15.732c0 0-.112 1.313 2.874 2.101s5.027-1.469 5.027-1.469 3.475-7.861-1.941-16.364" class="B H"/><g class="I B"><path d="M260.171 207l.829 4.803s.031 1.639-1.791 2.093-2.385-.727-2.385-.727L256 207.76l4.171-.76z"/><path d="M250.947 207.647c1.941 3.759 6.224 5.397 9.567 3.658s4.479-6.194 2.538-9.953-6.223-5.397-9.566-3.658-4.479 6.195-2.539 9.953"/></g><path d="M255.76 206.536c-.279.045-.559-.04-.757-.248-.344-.363-.486-2.287-1.387-2.449-1.409-.253-4.27 2.023-5.432-2.862-.603-2.538.493-3.436.254-4.843 0 0 .013.725 6.341-.854s9.391 3.922 10.009 6.692.075 7.6-4.196 9.01c-.708.234-4.178-1.754-4.154-2.1s1.177-.531.85-1.468c-.273-.781-.797-.993-1.527-.877" class="B E"/><path d="M264 264l4.412 34.51c.071.933.508 1.797 1.212 2.272.115.078.242.151.376.218-.915-.702-3.589-29.668-4.084-32.89S264 264 264 264" class="B O"/><g class="K L M Q B"><path d="M304 304l-52.176 30.335c-1.365.794-3.599.792-4.963-.006l-22.827-13.341c-1.364-.797-3.601-.805-4.971-.018l-78.1 44.853c-1.37.786-1.37 2.073 0 2.861l22.712 13.044c1.37.787 1.37 2.074 0 2.86L55 447M1 415l192-110"/><path d="M27 432l81.986-48.168c1.367-.803 1.349-2.084-.041-2.848L83.488 367m-.15 96l25.659-15.454c1.37-.826 1.333-2.112-.083-2.859L83 431m461-149.644l6.712 4.027c1.349.81 3.566.824 4.926.032l50.416-29.338c1.361-.793 3.578-.778 4.929.029l23.13 13.838c1.35.808 3.562.81 4.914.005L691 239m-177 57.552l36.565 21.515c1.362.802 3.598.812 4.968.021l51.115-29.497c1.369-.791 3.609-.787 4.976.008L719 351"/></g></g></svg>