<?xml version="1.0" encoding="UTF-8"?>
<svg width="108px" height="33px" viewBox="0 0 108 33" version="1.1" xmlns="http://www.w3.org/2000/svg" xmlns:xlink="http://www.w3.org/1999/xlink">
    <title>Upwork-logo</title>
    <g id="Home" stroke="none" stroke-width="1" fill="none" fill-rule="evenodd">
        <g transform="translate(-924.000000, -893.000000)" fill-rule="nonzero" id="about">
            <g transform="translate(203.000000, 850.000000)">
                <g id="upwork" transform="translate(612.000000, 43.000000)">
                    <g id="Upwork-logo" transform="translate(109.617647, 0.000000)">
                        <path d="M69.234742,7.55679676 C64.6027739,7.57953735 60.8295088,11.472133 60.8506935,16.3188448 C60.8720572,21.1655565 64.6830355,25.0215695 69.3150037,24.9999092 C73.9469718,24.9780657 77.7212039,21.0844813 77.6990605,16.2397471 C77.6767215,11.3950128 73.8667102,7.53603361 69.232808,7.5587742 L69.234742,7.55679676 Z M69.2985645,21.4453646 C67.9853677,21.4532744 66.7234223,20.9262859 65.7902597,19.9820571 C64.857097,19.0378283 64.3397477,17.7515019 64.3252426,16.4088184 C64.3107375,15.0661349 64.8329218,13.7758536 65.7564144,12.8217376 C66.679907,11.8676215 67.9379843,11.3386557 69.2511812,11.3238248 C70.564378,11.308994 71.8263234,11.8429035 72.759486,12.7871323 C73.6926487,13.7313612 74.209998,15.0176876 74.2245624,16.3603711 C74.2380412,19.0546365 71.9326942,21.4325112 69.2985645,21.4463533 L69.2985645,21.4453646 Z M88.0004986,11.6649337 C85.5781436,11.6767983 83.6915111,13.7313612 83.7031152,16.208108 L83.7417955,24.4985359 L80.0555611,24.5163329 L79.9811015,8.04127019 L83.6673359,8.0234732 L83.679907,10.6070019 C83.679907,10.6070019 85.2464599,8.01655216 88.4066419,8.00172134 L89.4606806,7.99578901 L89.4780867,11.6560352 L88.0004986,11.6649337 Z M51.2290537,8.18166861 L54.0198387,19.4748431 L56.9169946,8.15398441 L60.6032289,8.13717615 L56.0428194,24.643878 L52.4629559,24.6606862 L49.5677341,13.1539479 L46.7769491,24.6873817 L43.1961186,24.70419 L38.3823529,8.25186782 L41.9622164,8.23505956 L45.1726829,19.5262566 L47.7545941,8.20737536 L51.2290537,8.18166861 Z M100.232182,15.484364 C102.751238,13.9656881 104.530533,11.1567309 104.516028,7.92657852 L100.829793,7.9443755 C100.843331,10.7444342 98.6404872,13.0165157 96.0082915,13.0264029 L95.4812722,13.0283803 L95.4232517,0 L91.7370173,0.0177969831 L91.8501573,24.4589871 L95.5344576,24.4421788 L95.4996453,16.690604 L95.9202938,16.6886265 C96.3419093,16.6866491 96.7644917,16.9002129 96.8718296,17.222536 L102.064662,24.4105397 L106.382353,24.3907653 L100.232182,15.484364 Z" id="Shape" fill="#4B4B4B"></path>
                        <path d="M28.9919063,8.28863397 C25.0268235,8.30823683 22.0115587,10.9908883 20.8834701,15.265292 C18.9905432,12.2856572 17.513581,8.87769993 16.6663165,6 L12.4922929,6.01960286 L12.5440488,17.3333938 C12.5536002,19.5733164 10.7865445,21.3974878 8.59621801,21.4088285 C6.40588429,21.4185961 4.62209753,19.6115346 4.61100787,17.3716194 L4.55829345,6.05782844 L0.382352941,6.0774313 L0.434108917,17.3912223 C0.456153129,22.0861074 4.12411831,25.8067303 8.61347001,25.784187 C13.1028217,25.7616437 16.7391582,22.0086761 16.7180725,17.3128108 L16.708488,15.3917305 C17.5500019,17.0942389 18.6023734,18.903583 19.7592153,20.500236 L17.2068789,33 L21.4853729,32.9803971 L23.3255854,23.8983918 C24.9999871,24.9589066 26.8718282,25.5891386 29.0724156,25.578357 C33.6652793,25.5558137 37.4060862,21.6969906 37.3822396,16.786474 C37.3457709,12.0768143 33.5983973,8.28050166 28.9928648,8.28765383 L28.9919063,8.28863397 Z M29.0513298,21.2040404 C27.3817204,21.2118198 25.7092356,20.472792 24.3472867,19.3044615 L24.7565423,17.5960722 L24.7565423,17.4980579 C25.0632444,15.6808727 25.9852675,12.5816604 29.1174625,12.5679324 C31.4161572,12.5640427 33.2883782,14.455467 33.3125719,16.8060769 C33.2186444,19.2613352 31.2452082,21.1922169 29.0522883,21.2029985 L29.0513298,21.2040404 Z" id="Shape" fill="#6FDA44"></path>
                    </g>
                </g>
            </g>
        </g>
    </g>
</svg>