<?xml version="1.0" encoding="UTF-8"?>
<svg width="155px" height="152px" viewBox="0 0 155 152" version="1.1" xmlns="http://www.w3.org/2000/svg" xmlns:xlink="http://www.w3.org/1999/xlink">
    <title>service block / art uiux</title>
    <defs>
        <polygon id="path-1" points="0.116775555 0.750333784 45.5824244 0.750333784 45.5824244 27 0.116775555 27"></polygon>
        <polygon id="path-3" points="0.3004 0.498575637 55.273 0.498575637 55.273 137.95026 0.3004 137.95026"></polygon>
        <polygon id="path-5" points="0.7369 0.78763964 52.273 0.78763964 52.273 109.950252 0.7369 109.950252"></polygon>
        <polygon id="path-7" points="0.221 0.47 5.865 0.47 5.865 7.6741 0.221 7.6741"></polygon>
        <polygon id="path-9" points="0.0963 0.47 1.8353 0.47 1.8353 3.614 0.0963 3.614"></polygon>
    </defs>
    <g id="service-block-/-art-uiux" stroke="none" stroke-width="1" fill="none" fill-rule="evenodd">
        <g id="Group-400">
            <g id="Group-3" transform="translate(83.561688, 125.000000)">
                <mask id="mask-2" fill="white">
                    <use xlink:href="#path-1"></use>
                </mask>
                <g id="Clip-2"></g>
                <path d="M39.1441,26.4837 L1.0121,4.4667 C-0.3139,3.7017 -0.1479,2.3657 1.3831,1.4817 C2.9141,0.5977 5.2291,0.5017 6.5551,1.2667 L44.6871,23.2827 C46.0131,24.0477 45.8471,25.3847 44.3161,26.2687 C42.7861,27.1527 40.4701,27.2487 39.1441,26.4837" id="Fill-1" fill="#C2D6F2" mask="url(#mask-2)"></path>
            </g>
            <g id="Group-6" transform="translate(79.561688, 11.000000)">
                <mask id="mask-4" fill="white">
                    <use xlink:href="#path-3"></use>
                </mask>
                <g id="Clip-5"></g>
                <path d="M50.0484,24.6721165 L8.9614,1.11581439 C7.6114,0.342418705 6.3854,0.323555396 5.4584,0.904346763 L5.4564,0.895411511 L0.3004,3.85893669 L3.7574,4.50028921 C3.7474,4.67502302 3.7364,4.85174245 3.7364,5.03838993 L3.7364,101.24921 C3.7364,105.068534 6.0764,109.505383 8.9614,111.159397 L49.4714,134.385095 C49.1024,135.533771 48.3184,137.95026 48.3184,137.95026 L53.3594,135.047296 L53.3584,135.047296 C54.5274,134.448635 55.2734,132.950491 55.2734,130.794117 L55.2734,34.5823036 C55.2734,30.7629799 52.9344,26.3261309 50.0484,24.6721165" id="Fill-4" fill="#618FC6" mask="url(#mask-4)"></path>
            </g>
            <g id="Group-9" transform="translate(82.561688, 38.000000)">
                <mask id="mask-6" fill="white">
                    <use xlink:href="#path-5"></use>
                </mask>
                <g id="Clip-8"></g>
                <path d="M0.7369,73.3162883 C0.7369,77.1296216 3.0759,81.5573694 5.9619,83.2083604 L46.4719,106.391604 C46.1029,107.53818 45.3179,109.950252 45.3179,109.950252 L50.3589,107.052595 L50.3579,107.052595 C51.5269,106.455027 52.2739,104.960613 52.2739,102.807189 L52.2739,6.77223423 C52.2739,4.78331532 51.6329,2.62989189 50.6139,0.78763964 L0.7369,29.3242162 L0.7369,73.3162883 Z" id="Fill-7" fill="#18386B" mask="url(#mask-6)"></path>
            </g>
            <path d="M124.391131,148.37688 L83.7322454,124.7933 C80.8763166,123.13737 78.5616883,118.695383 78.5616883,114.871637 L78.5616883,18.5484116 C78.5616883,14.7246651 80.8763166,12.967352 83.7322454,14.6232817 L124.391131,38.2058678 C127.24607,39.8617975 129.561688,44.3037843 129.561688,48.1285247 L129.561688,144.450756 C129.561688,148.274502 127.24607,150.032809 124.391131,148.37688" id="Fill-10" fill="#D4ECFF"></path>
            <path d="M124.346181,37.2512419 L83.333823,13.6209494 C81.8485263,12.7654505 80.5109606,12.8262019 79.5616883,13.6050146 C80.4510696,13.1767672 81.575024,13.2594289 82.7987968,13.9645432 L123.812152,37.5948357 C126.691911,39.2530494 129.026662,43.7038345 129.026662,47.5361506 L129.026662,144.049169 C129.026662,145.905571 128.476663,147.269988 127.584287,148 C128.787098,147.422364 129.561688,145.909555 129.561688,143.707567 L129.561688,47.1925568 C129.561688,43.3622325 127.226938,38.9104515 124.346181,37.2512419" id="Fill-12" fill="#FFFFFF"></path>
            <path d="M123.697993,145.5363 L84.4243886,122.846944 C82.2906023,121.614844 80.5616883,118.308675 80.5616883,115.462304 L80.5616883,20.3855637 C80.5616883,17.5401883 82.2906023,16.231455 84.4243886,17.4635553 L123.697993,40.152911 C125.83178,41.3860065 127.561688,44.6921755 127.561688,47.5375508 L127.561688,142.614291 C127.561688,145.460662 125.83178,146.7684 123.697993,145.5363" id="Fill-14" fill="#FFFFFF"></path>
            <path d="M123.403133,145.402434 L83.784468,122.697016 C81.6319342,121.464044 79.8878298,118.155534 79.8878298,115.307149 L79.8878298,20.1631023 C79.8878298,18.5656161 80.4377545,17.4511604 81.2997716,17 C80.2521048,17.3236802 79.5616883,18.5048639 79.5616883,20.2965582 L79.5616883,115.440605 C79.5616883,118.287994 81.3057927,121.5975 83.4583265,122.830472 L123.076992,145.53589 C124.021297,146.077681 124.887328,146.128474 125.561688,145.774915 C124.943525,145.966136 124.201929,145.860566 123.403133,145.402434" id="Fill-16" fill="#5793CE"></path>
            <polygon id="Fill-18" fill="#AEDEED" points="68.5616883 69 67.3822011 73.5880261 67.9719447 81 66.4762182 80.1616564 64.5616883 76.1345584 66.2379704 71.04251"></polygon>
            <path d="M102.591401,95.8822105 L90.5319758,88.8264724 C89.995916,88.5130138 89.5616883,87.6719325 89.5616883,86.947668 L89.5616883,77.8612636 C89.5616883,77.1369991 89.995916,76.804071 90.5319758,77.1185031 L102.591401,84.1732677 C103.127461,84.4867262 103.561688,85.3278076 103.561688,86.0520721 L103.561688,95.1384765 C103.561688,95.8617675 103.127461,96.195669 102.591401,95.8822105" id="Fill-20" fill="#EFEFEF"></path>
            <path d="M101.579771,81.3118763 L89.3758046,74.1169755 C89.133728,73.9740108 88.9159562,73.9690467 88.7448499,74.0643566 C88.7448499,74.0633637 88.7458221,74.0564141 88.7458221,74.0564141 L87.5616883,74.755353 C87.5616883,74.755353 88.0857015,74.9509367 88.3938874,75.0661028 L88.3938874,84.1423803 C88.3938874,84.8810316 88.8333197,85.7378275 89.3758046,86.0575126 L101.040203,92.9357067 L101.040203,94 L102.236003,93.2970899 L102.23017,93.2941114 C102.431414,93.1690173 102.561688,92.8930158 102.561688,92.4958914 L102.561688,83.2289942 C102.561688,82.4903429 102.122256,81.6315614 101.579771,81.3118763" id="Fill-22" fill="#173D7A"></path>
            <path d="M99.5914008,93.8826212 L87.5310151,86.8267297 C86.995916,86.5132643 86.5616883,85.6711911 86.5616883,84.9478844 L86.5616883,75.8612823 C86.5616883,75.1370021 86.995916,74.8040668 87.5310151,75.1185056 L99.5914008,82.1734237 C100.127461,82.4868891 100.561688,83.3279887 100.561688,84.0512955 L100.561688,93.1388711 C100.561688,93.8621778 100.127461,94.1951131 99.5914008,93.8826212" id="Fill-24" fill="#5793CE"></path>
            <path d="M99.575979,82.1743216 L87.3239051,75.1161194 C87.014529,74.9369129 86.742239,74.9739229 86.5616883,75.1667647 C86.6924656,75.1560512 86.8388581,75.1862436 86.995986,75.2768208 L99.2480599,82.335997 C99.7916639,82.6496083 100.232793,83.4920734 100.232793,84.2157169 L100.232793,93.3065489 C100.232793,93.6191863 100.147886,93.8529338 100.010277,94 C100.336244,93.9727295 100.561688,93.661066 100.561688,93.1458475 L100.561688,84.0550155 C100.561688,83.330398 100.120559,82.4879329 99.575979,82.1743216" id="Fill-26" fill="#FFFFFF"></path>
            <path d="M91.5616883,84.4471376 C91.5616883,84.9409092 91.1142267,85.141161 90.5616883,84.8942752 C90.0091499,84.6473894 89.5616883,84.0475484 89.5616883,83.5528624 C89.5616883,83.0590908 90.0091499,82.858839 90.5616883,83.1057248 C91.1142267,83.353525 91.5616883,83.953366 91.5616883,84.4471376" id="Fill-28" fill="#FFFFFF"></path>
            <path d="M94.5616883,85.4471376 C94.5616883,85.9409092 94.1142267,86.141161 93.5616883,85.8942752 C93.0091499,85.6473894 92.5616883,85.0475484 92.5616883,84.5528624 C92.5616883,84.0590908 93.0091499,83.858839 93.5616883,84.1057248 C94.1142267,84.353525 94.5616883,84.953366 94.5616883,85.4471376" id="Fill-30" fill="#FFFFFF"></path>
            <path d="M96.5616883,87.4471376 C96.5616883,87.9409092 96.1142267,88.141161 95.5616883,87.8942752 C95.0091499,87.6473894 94.5616883,87.0475484 94.5616883,86.5528624 C94.5616883,86.0590908 95.0091499,85.858839 95.5616883,86.1057248 C96.1142267,86.3526106 96.5616883,86.953366 96.5616883,87.4471376" id="Fill-32" fill="#FFFFFF"></path>
            <path d="M122.591401,108.879594 L110.531015,101.676812 C109.995916,101.356776 109.561688,100.497054 109.561688,99.7575935 L109.561688,78.8787667 C109.561688,78.1403001 109.995916,77.8003868 110.531015,78.1204221 L122.591401,85.3241988 C123.127461,85.6442341 123.561688,86.5029625 123.561688,87.2414291 L123.561688,108.120256 C123.561688,108.859716 123.127461,109.19963 122.591401,108.879594" id="Fill-34" fill="#EFEFEF"></path>
            <path d="M121.579771,82.4070565 L109.374832,75.1175765 C109.133728,74.9737581 108.915956,74.9687295 108.743878,75.0652789 C108.743878,75.0642731 108.74485,75.0572331 108.74485,75.0572331 L107.561688,75.765262 C107.561688,75.765262 108.085702,75.9623837 108.393887,76.0790476 L108.393887,97.0121653 C108.393887,97.7614289 108.83332,98.6303735 109.374832,98.9542163 L121.040203,105.920859 L121.040203,107 L122.236003,106.286942 L122.229198,106.284931 C122.431414,106.157204 122.561688,105.877613 122.561688,105.475324 L122.561688,84.3481018 C122.561688,83.6008496 122.122256,82.7308993 121.579771,82.4070565" id="Fill-36" fill="#A37519"></path>
            <path d="M120.591401,106.879594 L108.531976,99.6768116 C107.995916,99.3567763 107.561688,98.4970541 107.561688,97.7575935 L107.561688,76.8787667 C107.561688,76.1403001 107.995916,75.8003868 108.531976,76.1204221 L120.591401,83.3241988 C121.127461,83.6442341 121.561688,84.5029625 121.561688,85.2414291 L121.561688,106.120256 C121.561688,106.859716 121.127461,107.19963 120.591401,106.879594" id="Fill-38" fill="#FFC900"></path>
            <path d="M120.575979,83.3242629 L108.324881,76.1180418 C108.014529,75.9360967 107.742239,75.9728834 107.561688,76.1707363 C107.693442,76.1588055 107.839834,76.190621 107.995986,76.283085 L120.24806,83.4893061 C120.79264,83.80945 121.233769,84.6684697 121.233769,85.4081811 L121.233769,106.294093 C121.233769,106.613242 121.147886,106.850865 121.011253,107 C121.336244,106.973156 121.561688,106.655 121.561688,106.129049 L121.561688,85.243138 C121.561688,84.5034266 121.120559,83.6444068 120.575979,83.3242629" id="Fill-40" fill="#FFFFFF"></path>
            <path d="M116.561688,85.6173244 C116.561688,86.8519837 115.666247,87.3530355 114.561142,86.7357058 C113.457129,86.1183762 112.561688,84.6173349 112.561688,83.3826756 C112.561688,82.1480163 113.457129,81.6469645 114.561142,82.2642942 C115.666247,82.8816238 116.561688,84.3826651 116.561688,85.6173244" id="Fill-42" fill="#FFFFFF"></path>
            <path d="M116.683657,89.3533018 C116.681636,89.334952 116.678605,89.3176217 116.675574,89.2982525 C116.596763,88.7966918 116.12592,88.3562971 115.81573,88.4684346 C115.336804,88.6407187 114.726527,88.5571252 114.061688,88.169741 C113.39685,87.7823567 112.787583,87.1564253 112.307647,86.424473 C111.997456,85.9514564 111.526613,85.8444161 111.447803,86.2532084 C111.444771,86.2684999 111.442751,86.2837914 111.439719,86.2990828 L110.561688,91.9222711 L117.561688,96 L116.683657,89.3533018 Z" id="Fill-44" fill="#FFFFFF"></path>
            <polygon id="Fill-46" fill="#FFFFFF" points="118.561688 99 110.561688 94.5548434 110.561688 94 118.561688 98.4460721"></polygon>
            <polygon id="Fill-48" fill="#FFFFFF" points="115.561688 101 109.561688 97.6057572 109.561688 97 115.561688 100.393242"></polygon>
            <polygon id="Fill-50" fill="#FFFFFF" points="115.561688 99 110.561688 95.6840023 110.561688 95 115.561688 98.3148672"></polygon>
            <polygon id="Fill-52" fill="#FFFFFF" points="118.561688 101 115.561688 99.5849421 115.561688 99 118.561688 100.416023"></polygon>
            <path d="M122.591401,78.8795966 L110.531015,71.6759518 C109.995916,71.3569162 109.561688,70.4972097 109.561688,69.7577627 L109.561688,48.8793179 C109.561688,48.1398709 109.995916,47.7999638 110.531015,48.1209872 L122.591401,55.3246321 C123.127461,55.6446615 123.561688,56.5023803 123.561688,57.2418273 L123.561688,78.120272 C123.561688,78.859719 123.127461,79.1996261 122.591401,78.8795966" id="Fill-54" fill="#EFEFEF"></path>
            <path d="M121.579771,52.407541 L109.374832,45.1179065 C109.133728,44.9730793 108.915956,44.9690563 108.743878,45.0656078 C108.743878,45.064602 108.74485,45.0575618 108.74485,45.0575618 L107.561688,45.7656058 C107.561688,45.7656058 108.085702,45.9627317 108.393887,46.079398 L108.393887,67.0129593 C108.393887,67.7622388 108.83332,68.6312019 109.374832,68.9540458 L121.040203,75.9218421 L121.040203,77 L122.236003,76.2879331 L122.229198,76.2859216 C122.431414,76.158192 122.561688,75.8785951 122.561688,75.4762974 L122.561688,54.3486274 C122.561688,53.6003537 122.122256,52.7313906 121.579771,52.407541" id="Fill-56" fill="#5793CE"></path>
            <path d="M120.591401,76.8795966 L108.531976,69.6759518 C107.995916,69.3559223 107.561688,68.4972097 107.561688,67.7577627 L107.561688,46.8793179 C107.561688,46.1398709 107.995916,45.7999638 108.531976,46.1209872 L120.591401,53.3246321 C121.127461,53.6436677 121.561688,54.5023803 121.561688,55.2418273 L121.561688,76.120272 C121.561688,76.859719 121.127461,77.1996261 120.591401,76.8795966" id="Fill-58" fill="#D4ECFF"></path>
            <path d="M120.575979,53.3242629 L108.324881,46.1180418 C108.014529,45.9360967 107.742239,45.9728834 107.561688,46.1707363 C107.693442,46.1588055 107.839834,46.190621 107.995986,46.283085 L120.24806,53.4893061 C120.79264,53.8084557 121.233769,54.6684697 121.233769,55.4081811 L121.233769,76.2940926 C121.233769,76.612248 121.147886,76.8508646 121.011253,77 C121.336244,76.9731556 121.561688,76.6550002 121.561688,76.1290494 L121.561688,55.243138 C121.561688,54.5034266 121.120559,53.6434126 120.575979,53.3242629" id="Fill-60" fill="#FFFFFF"></path>
            <polygon id="Fill-62" fill="#5793CE" points="118.561688 58 110.561688 53.5556573 110.561688 53 118.561688 57.4452581"></polygon>
            <polygon id="Fill-64" fill="#5793CE" points="115.553524 59 109.561688 55.6186081 109.569853 55 115.561688 58.3823896"></polygon>
            <polygon id="Fill-66" fill="#5793CE" points="115.561688 58 110.561688 54.6851328 110.561688 54 115.561688 57.3148672"></polygon>
            <polygon id="Fill-68" fill="#5793CE" points="118.561688 59 115.561688 57.5839768 115.561688 57 118.561688 58.4150579"></polygon>
            <polygon id="Fill-70" fill="#5793CE" points="118.561688 63 110.561688 58.5556573 110.561688 58 118.561688 62.4452581"></polygon>
            <polygon id="Fill-72" fill="#5793CE" points="115.561688 64 109.561688 60.6066066 109.561688 60 115.561688 63.3933934"></polygon>
            <polygon id="Fill-74" fill="#FF7300" points="115.561688 63 110.561688 59.6849392 110.561688 59 115.561688 62.3150608"></polygon>
            <polygon id="Fill-76" fill="#5793CE" points="118.561688 64 115.561688 62.5849421 115.561688 62 118.561688 63.4150579"></polygon>
            <polygon id="Fill-78" fill="#5793CE" points="118.561688 68 110.561688 63.5556573 110.561688 63 118.561688 67.4452581"></polygon>
            <polygon id="Fill-80" fill="#5793CE" points="115.561688 69 109.561688 65.6067584 109.561688 65 115.561688 68.3932416"></polygon>
            <polygon id="Fill-82" fill="#5793CE" points="115.561688 68 110.561688 64.6851328 110.561688 64 115.561688 67.3148672"></polygon>
            <polygon id="Fill-84" fill="#FF7300" points="118.561688 69 115.561688 67.5842588 115.561688 67 118.561688 68.4157412"></polygon>
            <path d="M107.561688,86 L88.5616883,74.8691893 L88.5616883,28 L97.5131306,33.2450513 C103.731098,36.8873375 107.561688,43.6187519 107.561688,50.9053141 L107.561688,86 Z" id="Fill-86" fill="#EFEFEF"></path>
            <path d="M80.9593685,23.7376835 L80.9613629,23.7416154 C79.0108039,22.5974307 76.3013619,22.7370134 73.3087098,24.4414947 C67.3822415,27.8131041 62.5616883,36.0445495 62.5616883,42.7887513 L62.5616883,47.655468 L62.7651208,47.7734252 L82.1261139,59 L82.419296,53.1758642 L82.6606229,50.9140352 L83.6877577,47.4018601 L83.8054295,46.8651549 L86.0062902,42.4918924 L87.7404528,40.3568674 L89.1465306,38.7054669 L92.5709782,36.0455324 L92.8721381,35.8253457 L94.5564398,35.1107218 L96.8211225,34.5307656 L98.5871961,34.5307656 L100.561688,34.8718585 L80.9593685,23.7376835 Z" id="Fill-88" fill="#D4ECFF"></path>
            <path d="M83.7471883,69 L84.3761883,68.6357489 L84.3761883,46 C84.0501883,46.4465337 83.8961883,47.0205052 83.7471883,47.6025043 L83.7471883,69 Z" id="Fill-90" fill="#D4ECFF"></path>
            <polygon id="Fill-92" fill="#D4ECFF" points="103.120057 80 83.5616883 68.6908371 83.763064 47.3270841 84.5107462 45.1690989 86.7747279 41.2613149 89.4534239 38.0738598 91.866942 36.1349747 94.4788451 34.5442485 99.2151625 34 101.720396 35.4236499 103.120057 37.5746319 103.561688 40.8761391 103.411155 76.5874421"></polygon>
            <path d="M80.8193665,22.7346495 C79.1760982,21.7823592 76.995453,21.7305937 74.5616883,22.7278126 L94.639494,34 L96.7930192,33.4559736 L98.5718873,33.4559736 L100.561688,33.7939146 L80.8173576,22.7307427 L80.8193665,22.7346495 Z" id="Fill-94" fill="#5793CE"></path>
            <path d="M75.7320574,23 C75.1173537,23.2247132 74.4848611,23.5171347 73.8385327,23.8880586 C73.4066589,24.1363225 72.9807147,24.4130435 72.5616883,24.7113527 L92.254938,36 L92.9289379,35.4730525 L93.2273954,35.2522645 L94.8965828,34.5398551 L95.5616883,34.368131 L75.7320574,23 Z" id="Fill-96" fill="#E9F6FF"></path>
            <path d="M88.913323,38 L91.5616883,35.8080082 L72.0957146,24 C71.2132519,24.6498973 70.3649932,25.4117043 69.5616883,26.261807 L88.913323,38 Z" id="Fill-98" fill="#FFFFFF"></path>
            <path d="M103.561688,79.6412475 L102.948827,80 L102.948827,41.9583972 C102.948827,35.5739861 98.5126464,32.9767365 93.0621755,36.1699304 C87.6097559,39.3611476 83.175524,47.1538848 83.175524,53.5382959 L83.175524,58.6665791 L82.5616883,59.0263199 L82.5616883,53.8970484 C82.5616883,47.1163294 87.2716591,38.8413024 93.0621755,35.4504487 C98.8517175,32.0595951 103.561688,34.8179374 103.561688,41.5996447 L103.561688,79.6412475 Z" id="Fill-100" fill="#5793CE"></path>
            <path d="M86.1738796,46.4648225 C86.1568743,46.4648225 86.139869,46.4688651 86.1258646,46.4769504 C86.0768493,46.505249 86.0208318,46.6053045 86.0208318,46.7942982 L86.0208318,58.1399854 C86.0208318,58.5301007 86.2589062,58.9990477 86.5409943,59.1637856 L100.812454,67.4896159 C100.849466,67.5108398 100.941495,67.5583409 100.997512,67.5229677 C101.046527,67.4956799 101.102545,67.3946137 101.102545,67.2046093 L101.102545,55.8599328 C101.102545,55.4688067 100.86447,54.9998598 100.582382,54.8351219 L86.3109224,46.5103023 C86.283914,46.4941317 86.2258959,46.4648225 86.1738796,46.4648225 M100.949497,68 C100.83146,68 100.706421,67.9626055 100.582382,67.8908485 L86.3109224,59.5660289 C85.8907912,59.3214488 85.5616883,58.6948386 85.5616883,58.1399854 L85.5616883,46.7942982 C85.5616883,46.4607798 85.6827261,46.1990185 85.8957927,46.0747071 C86.0848518,45.964545 86.3139234,45.9766729 86.5409943,46.1080589 L100.812454,54.4338893 C101.232585,54.67948 101.561688,55.3050796 101.561688,55.8599328 L101.561688,67.2046093 C101.561688,67.5391383 101.43965,67.8008997 101.227584,67.9242004 C101.141557,67.9747335 101.048528,68 100.949497,68" id="Fill-102" fill="#FFFFFF"></path>
            <path d="M90.0965881,58.9236042 L90.0267885,58.867523 C89.7697049,58.6641101 89.5616883,58.1156557 89.5616883,57.6451445 L89.5616883,52.5607722 C89.5616883,52.0893105 89.7697049,51.8725902 90.0267885,52.0769537 L90.0965881,52.1311337 C90.3536717,52.3354972 90.5616883,52.8839516 90.5616883,53.3554133 L90.5616883,58.4388351 C90.5616883,58.9102968 90.3536717,59.1270171 90.0965881,58.9236042" id="Fill-104" fill="#B2D3EA"></path>
            <path d="M93.0965881,60.9214786 L93.0274796,60.8651234 C92.770396,60.6571923 92.5616883,60.0965556 92.5616883,59.6146218 L92.5616883,56.5724147 C92.5616883,56.0904809 92.770396,55.8699184 93.0274796,56.0788212 L93.0965881,56.1342047 C93.3536717,56.3431075 93.5616883,56.9027725 93.5616883,57.3847063 L93.5616883,60.4269135 C93.5616883,60.9078756 93.3536717,61.1303813 93.0965881,60.9214786" id="Fill-106" fill="#B2D3EA"></path>
            <path d="M96.0965881,62.9230422 L96.0267885,62.8679086 C95.770396,62.6644848 95.5616883,62.116001 95.5616883,61.6454646 L95.5616883,54.5608023 C95.5616883,54.0893153 95.770396,53.8725834 96.0267885,54.0769578 L96.0965881,54.1320914 C96.3536717,54.3364658 96.5616883,54.883999 96.5616883,55.355486 L96.5616883,62.4391977 C96.5616883,62.9106847 96.3536717,63.1274166 96.0965881,62.9230422" id="Fill-108" fill="#396CAA"></path>
            <polygon id="Fill-110" fill="#FFFFFF" points="92.5616883 67 86.5616883 63.5558041 86.5616883 63 92.5616883 66.4422073"></polygon>
            <polygon id="Fill-112" fill="#FFFFFF" points="95.5616883 69 92.5616883 67.5492889 92.5616883 67 95.5616883 68.4507111"></polygon>
            <polygon id="Fill-114" fill="#FFFFFF" points="92.5616883 68 89.5616883 66.5492889 89.5616883 66 92.5616883 67.4497303"></polygon>
            <polygon id="Fill-116" fill="#FFFFFF" points="97.5616883 71 92.5616883 68.5225505 92.5616883 68 97.5616883 70.4774495"></polygon>
            <polygon id="Fill-118" fill="#FFFFFF" points="101.561688 74 94.5616883 70.4983285 94.5616883 70 101.561688 73.4998886"></polygon>
            <polygon id="Fill-120" fill="#FFFFFF" points="99.5616883 71 96.5616883 69.5492889 96.5616883 69 99.5616883 70.4497303"></polygon>
            <polygon id="Fill-122" fill="#FFFFFF" points="88.5616883 66 85.5616883 64.5492889 85.5616883 64 88.5616883 65.4507111"></polygon>
            <polygon id="Fill-124" fill="#FFFFFF" points="93.5616883 70 86.5616883 65.6064222 86.5616883 65 93.5616883 69.3914081"></polygon>
            <polygon id="Fill-126" fill="#FFFFFF" points="90.5616883 69 86.5616883 66.5594406 86.5616883 66 90.5616883 68.4395604"></polygon>
            <polygon id="Fill-128" fill="#5793CE" points="67.4197785 35 66.5616883 34.3435852 66.7035981 34 67.5616883 34.6564148"></polygon>
            <path d="M65.1886883,33.837 L65.4026883,33.446 L64.9116883,33.163 C64.8436883,33.296 64.7856883,33.433 64.7206883,33.566 L65.1886883,33.837 Z" id="Fill-130" fill="#5793CE"></path>
            <polygon id="Fill-132" fill="#5793CE" points="70.4197785 36 69.5616883 35.3435852 69.7035981 35 70.5616883 35.6564148"></polygon>
            <polygon id="Fill-134" fill="#5793CE" points="72.4197785 38 71.5616883 37.3435852 71.7035981 37 72.5616883 37.6564148"></polygon>
            <polygon id="Fill-136" fill="#5793CE" points="75.4197785 39 74.5616883 38.3435852 74.702935 38 75.5616883 38.6564148"></polygon>
            <polygon id="Fill-138" fill="#5793CE" points="77.4197785 41 76.5616883 40.3435852 76.702935 40 77.5616883 40.6564148"></polygon>
            <polygon id="Fill-140" fill="#5793CE" points="79.4203479 42 78.5616883 41.3435852 78.7030287 41 79.5616883 41.6564148"></polygon>
            <polygon id="Fill-142" fill="#5793CE" points="82.4203479 43 81.5616883 42.3435852 81.7030287 42 82.5616883 42.6564148"></polygon>
            <polygon id="Fill-144" fill="#5793CE" points="84.4203479 45 83.5616883 44.3435852 83.7030287 44 84.5616883 44.6564148"></polygon>
            <polygon id="Fill-146" fill="#5793CE" points="90.5616883 38 89.5616883 37.3256433 89.7660956 37 90.5616883 37.5368234"></polygon>
            <polygon id="Fill-148" fill="#5793CE" points="93.5616883 40 92.5616883 39.4071763 92.5616883 39 93.5616883 39.5928237"></polygon>
            <polygon id="Fill-150" fill="#5793CE" points="95.5616883 41 94.5616883 40.4071763 94.5616883 40 95.5616883 40.5928237"></polygon>
            <polygon id="Fill-152" fill="#5793CE" points="98.5616883 43 97.5616883 42.4076383 97.5616883 42 98.5616883 42.5923617"></polygon>
            <polygon id="Fill-154" fill="#5793CE" points="100.561688 44 99.5616883 43.4076383 99.5616883 43 100.561688 43.5923617"></polygon>
            <polygon id="Fill-156" fill="#5793CE" points="103.561688 45 102.561688 44.4076383 102.561688 44 103.561688 44.5923617"></polygon>
            <path d="M109.717768,116.536068 L89.4046102,104.764864 C87.2824145,103.532446 85.5616883,100.2286 85.5616883,97.3833989 C85.5616883,94.5392014 87.2824145,93.2315129 89.4046102,94.4639315 L109.717768,106.235136 C111.839963,107.467554 113.561688,110.772404 113.561688,113.616601 C113.561688,116.460799 111.839963,117.768487 109.717768,116.536068" id="Fill-158" fill="#EFEFEF"></path>
            <path d="M112.561688,111.09045 C112.561688,108.321918 110.861279,105.104989 108.763155,103.906334 L88.6908297,92.4473072 C87.714797,91.8904747 86.8275843,91.8728905 86.1545263,92.2870958 L86.157487,92.2773268 L84.5616883,93.2004964 L85.2959333,93.2825559 C85.0393423,93.8100815 84.892296,94.4841418 84.892296,95.2900836 C84.892296,98.0586157 86.5927048,101.275544 88.6908297,102.4742 L108.763155,113.933226 C109.1737,114.167682 109.567469,114.304448 109.937552,114.3572 L109.741161,115 L111.315248,114.091484 L111.302419,114.092461 C112.073179,113.615734 112.561688,112.569475 112.561688,111.09045" id="Fill-160" fill="#5793CE"></path>
            <path d="M106.717768,115.536068 L86.4056088,103.764864 C84.2824145,102.532446 82.5616883,99.2275964 82.5616883,96.3833989 C82.5616883,93.5392014 84.2824145,92.2315129 86.4056088,93.4639315 L106.717768,105.235136 C108.839963,106.467554 110.561688,109.7714 110.561688,112.616601 C110.561688,115.460799 108.839963,116.768487 106.717768,115.536068" id="Fill-162" fill="#D4ECFF"></path>
            <path d="M107.704832,104.349529 L87.3243159,92.4671568 C86.2401073,91.8339841 85.2631171,91.8674157 84.5616883,92.4286599 C85.2260416,92.0862401 86.0737685,92.1419593 86.9966484,92.6809159 L107.378166,104.564301 C109.507504,105.807346 111.234021,109.142393 111.234021,112.013451 C111.234021,113.424666 110.81617,114.458004 110.140794,115 C111.00756,114.55222 111.561688,113.425679 111.561688,111.799692 C111.561688,108.928634 109.835171,105.593587 107.704832,104.349529" id="Fill-164" fill="#FFFFFF"></path>
            <polygon id="Fill-166" fill="#5793CE" points="97.5616883 104 89.5616883 99.555759 89.5616883 99 97.5616883 103.446072"></polygon>
            <polygon id="Fill-168" fill="#5793CE" points="104.561688 108 98.5616883 104.605757 98.5616883 104 104.561688 107.393242"></polygon>
            <polygon id="Fill-170" fill="#5793CE" points="94.5616883 104 89.5616883 100.684002 89.5616883 100 94.5616883 103.314867"></polygon>
            <polygon id="Fill-172" fill="#5793CE" points="97.5616883 106 94.5616883 104.584942 94.5616883 104 97.5616883 105.416023"></polygon>
            <path d="M121.762552,138.540472 L89.3598376,119.675836 C87.2623669,118.453561 85.5616883,115.17691 85.5616883,112.355127 C85.5616883,109.53434 87.2623669,108.238411 89.3598376,109.45969 L121.762552,128.324325 C123.860023,129.545605 125.561688,132.823252 125.561688,135.644039 C125.561688,138.464826 123.860023,139.761751 121.762552,138.540472" id="Fill-174" fill="#EFEFEF"></path>
            <path d="M124.561688,133.967722 C124.561688,131.11228 122.831781,127.795374 120.6995,126.558083 L87.7600241,107.461689 C86.766632,106.886369 85.8655552,106.869241 85.180215,107.296449 L85.1832253,107.28738 L83.5616883,108.238522 L84.3072341,108.32215 C84.0473467,108.867244 83.8978361,109.562464 83.8978361,110.394713 C83.8978361,113.250155 85.6267397,116.566054 87.7600241,117.803344 L120.6995,136.899738 C121.115922,137.141554 121.517293,137.282613 121.893578,137.337022 L121.693896,138 L123.293357,137.062964 L123.280313,137.063971 C124.064992,136.572279 124.561688,135.494184 124.561688,133.967722" id="Fill-176" fill="#A37519"></path>
            <path d="M118.762552,137.539887 L86.3608246,118.675252 C84.2623669,117.453972 82.5616883,114.176325 82.5616883,111.355538 C82.5616883,108.534751 84.2623669,107.238822 86.3608246,108.459106 L118.762552,127.323741 C120.86101,128.546016 122.561688,131.822667 122.561688,134.64445 C122.561688,137.465237 120.86101,138.762162 118.762552,137.539887" id="Fill-178" fill="#FFC900"></path>
            <path d="M119.754953,127.461092 L87.2874256,108.461385 C86.2182957,107.835848 85.2530128,107.868929 84.5616883,108.424294 C85.2174081,108.085461 86.0531295,108.140597 86.9650053,108.673908 L119.431544,127.673615 C121.534199,128.903638 123.238279,132.203751 123.238279,135.045738 C123.238279,136.441168 122.825858,137.463682 122.15827,138 C123.013772,137.556911 123.561688,136.44217 123.561688,134.833215 C123.561688,131.992231 121.856619,128.692119 119.754953,127.461092" id="Fill-180" fill="#FFFFFF"></path>
            <polygon id="Fill-182" fill="#FFFFFF" points="117.561688 131 109.561688 126.554843 109.561688 126 117.561688 130.445157"></polygon>
            <polygon id="Fill-184" fill="#FFFFFF" points="108.561688 126 102.561688 122.606758 102.561688 122 108.561688 125.394243"></polygon>
            <polygon id="Fill-186" fill="#FFFFFF" points="113.561688 131 108.561688 127.684939 108.561688 127 113.561688 130.315061"></polygon>
            <polygon id="Fill-188" fill="#FFFFFF" points="117.561688 133 114.561688 131.584942 114.561688 131 117.561688 132.415058"></polygon>
            <polygon id="Fill-190" fill="#FFFFFF" points="108.561688 127 105.561688 125.584942 105.561688 125 108.561688 126.415058"></polygon>
            <polygon id="Fill-192" fill="#FFFFFF" points="101.561688 122 96.5616883 119.544801 96.5616883 119 101.561688 121.455199"></polygon>
            <path d="M36.8995222,137.436723 L48.0682464,131.183164 C48.5643446,130.904298 49.4262526,130.949116 49.9915039,131.281763 L57.0972339,135.457774 C57.6634874,135.790421 57.7196116,136.285407 57.2235134,136.563277 L46.0557914,142.816836 C45.5596932,143.095702 44.6977852,143.050884 44.1315317,142.718237 L37.0258018,138.54123 C36.4605505,138.208583 36.403424,137.713597 36.8995222,137.436723" id="Fill-194" fill="#C2D6F2"></path>
            <path d="M45.4050437,139.78698 L58.1616383,132.490888 C58.4146699,132.346732 58.5346849,132.151818 58.5406857,131.944721 C58.5416858,131.945736 58.5476866,131.949797 58.5476866,131.949797 L58.5616883,130.508243 C58.5616883,130.508243 58.1136323,130.881829 57.8495993,131.100092 L49.9016058,126.32875 C49.2545249,125.939937 48.271402,125.889178 47.7043311,126.21302 L35.510807,133.187301 L34.5786904,132.626922 L34.5616883,134.082689 L34.5676891,134.077613 C34.5706894,134.327347 34.7437111,134.590278 35.0917546,134.799405 L43.2077691,139.67125 C43.85485,140.060063 44.838973,140.110822 45.4050437,139.78698" id="Fill-196" fill="#A37519"></path>
            <path d="M34.9480926,131.509531 L47.7114403,124.213439 C48.2788114,123.888582 49.2634554,123.940356 49.9098782,124.32917 L58.0301891,129.201014 C58.6776126,129.588813 58.7426551,130.166449 58.175284,130.490292 L45.4119363,137.787399 C44.8445652,138.111241 43.8599213,138.059467 43.2134985,137.670653 L35.0931875,132.799824 C34.445764,132.41101 34.3807215,131.833374 34.9480926,131.509531" id="Fill-198" fill="#FFC900"></path>
            <path d="M45.4115632,137.792854 L58.1811875,130.697941 C58.5045578,130.518273 58.6146839,130.25963 58.5385968,130 C58.478528,130.121424 58.3734076,130.233963 58.2102207,130.325772 L45.4405964,137.419697 C44.8729463,137.73461 43.8888193,137.685251 43.2410774,137.308145 L35.1167732,132.569648 C34.8374533,132.406762 34.6732652,132.210312 34.6151987,132.013861 C34.467029,132.312979 34.6272125,132.673302 35.0877399,132.942804 L43.2120442,137.680315 C43.859786,138.058407 44.8449142,138.107767 45.4115632,137.792854" id="Fill-200" fill="#FFFFFF"></path>
            <path d="M48.8504709,129.847458 C48.4620082,129.648474 48.4661408,129.331388 48.8587361,129.140278 C49.2513314,128.948452 49.884443,128.954178 50.2729057,129.152446 C50.6613684,129.352146 50.6572358,129.668516 50.2646405,129.860342 C49.8712187,130.051452 49.2389337,130.045726 48.8504709,129.847458" id="Fill-202" fill="#FFFFFF"></path>
            <path d="M45.8501593,131.847198 C45.4625222,131.648949 45.4658283,131.331893 45.8584245,131.140801 C46.2518472,130.948278 46.8849603,130.954003 47.2725975,131.152968 C47.6610611,131.351933 47.657755,131.668273 47.2643323,131.86008 C46.871736,132.051888 46.238623,132.045447 45.8501593,131.847198" id="Fill-204" fill="#FFFFFF"></path>
            <path d="M43.8504709,132.846812 C43.4620082,132.648528 43.4661408,132.331416 43.8587361,132.14029 C44.2521579,131.948448 44.884443,131.954174 45.2729057,132.152459 C45.6613684,132.352175 45.6572358,132.667855 45.2646405,132.860413 C44.8712187,133.051539 44.2389337,133.045813 43.8504709,132.846812" id="Fill-206" fill="#FFFFFF"></path>
            <path d="M29.0470864,125.950452 C24.3609505,128.683183 16.7634154,128.683183 12.0762902,125.950452 C7.39015434,123.216721 7.39015434,118.783779 12.0762902,116.051048 C16.7624261,113.316317 24.3609505,113.316317 29.0470864,116.051048 C33.7332223,118.783779 33.7332223,123.216721 29.0470864,125.950452" id="Fill-208" fill="#C2D6F2"></path>
            <path d="M13.5616883,37 C13.5616883,37 13.8817704,43.3900816 14.3834375,47.6842561 C14.8861305,51.9784307 25.5616883,44.3868548 25.5616883,44.3868548 L25.5616883,39.4973989 L13.5616883,37 Z" id="Fill-210" fill="#565656"></path>
            <path d="M19.6687497,116.45418 C19.8275141,116.820007 22.5723059,119.891638 25.31608,120.658844 C26.5088483,120.99286 27.3118296,121.035898 27.8369734,120.978825 C28.3641525,120.920817 28.6908407,120.421197 28.5127397,119.960874 C28.0405174,118.738958 26.6869493,116.194079 23.2480722,114.625984 C18.5950547,112.50494 19.6687497,116.45418 19.6687497,116.45418" id="Fill-212" fill="#173D7A"></path>
            <path d="M18.2352524,118 C18.2352524,118 19.224447,120.434024 19.529189,122.468844 C19.7151498,123.71036 19.0657474,125.322493 18.5302582,126.391462 C18.1982549,127.05408 17.3570501,127.204165 16.8274026,126.699799 C15.9696463,125.884033 14.8772483,124.465888 14.6971292,122.429026 C14.3923872,118.998522 14.6971292,118.400225 14.6971292,118.400225 L18.2352524,118 Z" id="Fill-214" fill="#173D7A"></path>
            <path d="M11.7205109,77.2768569 C11.7205109,77.2768569 11.36316,81.4759488 11.7205109,86.1217948 C12.0778619,90.7666503 13.3549853,112.491181 13.5935577,117.71652 C13.5935577,117.71652 13.4747791,119.298485 16.6137821,118.949799 C19.7527851,118.602103 19.4999999,116.844804 19.4999999,116.844804 C19.4999999,116.844804 23.9080047,116.78735 24.0470873,114.251451 C24.1861699,111.716543 28.5616883,83.9751961 28.5616883,74 L11.7205109,77.2768569 Z" id="Fill-216" fill="#5793CE"></path>
            <path d="M30.3720354,56 L32.4433818,59.2533345 L39.5616883,67.9756281 C39.5616883,67.9756281 39.3163973,68.7842718 38.4306242,68.9965531 C37.7385531,69.1614414 31.7513107,63.3676426 29.1650479,60.8252036 C28.478817,60.1498528 28.3639585,59.0746233 28.8925023,58.2659796 L30.3720354,56 Z" id="Fill-218" fill="#FFC2B0"></path>
            <path d="M26.5616883,42 C26.5616883,42 29.9011033,41.9116985 31.0643147,46.8193679 C32.2265379,51.7260327 33.1367484,57.8704147 32.1247445,58.3807722 C29.0897213,59.9128491 27.1684953,58.1195656 27.1684953,58.1195656 L26.5616883,42 Z" id="Fill-220" fill="#FFC900"></path>
            <path d="M26.8364618,42.2079158 C26.2764985,41.9687747 25.648602,41.9368892 25.0663178,42.1072772 C22.2723242,42.9323139 11.7659764,46.0979438 10.0346514,47.6174859 C8.03353474,49.3731799 13.0343855,59.2397417 12.9625704,62.4741246 C12.8897849,65.7085075 12.5345915,69.5218111 12.2570361,73.0381812 C11.9785101,76.5545513 11.6019664,78.4826261 14.4027533,79.9772578 C17.2045108,81.4718894 21.9870049,81.5416389 25.5670822,78.7406992 C29.1471595,75.9397594 28.4979126,74.0236417 28.3484597,71.9899462 C28.1999772,69.9562507 26.9800919,61.1608416 27.0858735,58.6658032 C27.0858735,58.6658032 28.3474892,57.7112317 29.2820554,56.0751083 C30.2166215,54.4379884 28.5658458,51.4307895 27.8806914,49.4748149 C27.195537,47.5198367 28.2679104,45.2838677 28.0553767,43.6876011 C27.9466836,42.8665501 27.435244,42.4649924 26.8364618,42.2079158" id="Fill-222" fill="#FFC900"></path>
            <path d="M23.5407644,45.5225841 C23.764791,47.1579542 22.1643216,48.6979354 19.9661218,48.9611722 C17.7689004,49.2253262 15.8064666,48.1136781 15.58244,46.4783079 C15.3593917,44.8429378 16.9598611,43.3020394 19.1570826,43.0388026 C21.3552823,42.7746486 23.3177161,43.8872139 23.5407644,45.5225841" id="Fill-224" fill="#FFFFFF"></path>
            <path d="M22.5461128,46.102243 C22.7134494,47.4643566 21.5133485,48.7484213 19.8656481,48.9675997 C18.216921,49.1878473 16.7447699,48.2619522 16.5774334,46.8977003 C16.4090702,45.5355867 17.6101976,44.2536603 19.2578981,44.0323436 C20.9066252,43.8120961 22.3787762,44.7401295 22.5461128,46.102243" id="Fill-226" fill="#FFC2B0"></path>
            <path d="M20.6930639,42.1001098 C20.6930639,42.1001098 18.6796687,40.3721915 18.2839964,41.2474407 C17.8883241,42.1226899 17.5616883,45.8785197 17.5616883,45.8785197 L21.5616883,47 L20.9547847,43.1947089 C20.9547847,43.1947089 21.7554029,42.4850474 20.6930639,42.1001098" id="Fill-228" fill="#FFC2B0"></path>
            <path d="M27.5511426,38.3545795 C27.3554629,41.6617165 24.5155194,44.1850393 21.2086366,43.9893445 C17.9007185,43.7946853 15.3775897,40.9545234 15.572234,37.646351 C15.7679137,34.3381785 18.6078572,31.8158912 21.9157753,32.0105505 C25.2226581,32.2062452 27.7457869,35.046407 27.5511426,38.3545795" id="Fill-230" fill="#FFC2B0"></path>
            <path d="M18.6488618,42.2947698 C18.6180429,42.4897819 18.5898656,42.6986473 18.5616883,42.9107097 C18.9050989,45.0601055 21.5616883,46 21.5616883,46 L21.1689674,43.1462161 C21.1689674,43.1462161 21.4912451,42.8148021 21.4005495,42.4844537 C20.3500652,42.0837731 19.0266135,41.7278493 18.6488618,42.2947698" id="Fill-232" fill="#EA9C92"></path>
            <path d="M27.5511426,38.3545795 C27.3554629,41.6617165 24.5155194,44.1850393 21.2086366,43.9893445 C17.9007185,43.7946853 15.3775897,40.9545234 15.572234,37.646351 C15.7679137,34.3381785 18.6078572,31.8158912 21.9157753,32.0105505 C25.2226581,32.2062452 27.7457869,35.046407 27.5511426,38.3545795" id="Fill-234" fill="#FFC2B0"></path>
            <polygon id="Fill-236" fill="#FFC2B0" points="7.56168831 62 8.15276299 77.7621498 10.217426 78 11.5616883 63.8103043"></polygon>
            <path d="M14.4276104,60.7922925 C14.3056137,60.2438933 13.3126407,59.7929873 13.1606448,59.0790529 C12.382666,55.4098562 12.1956711,50 12.1956711,50 L11.5616883,57.389171 C12.2926684,59.5817521 12.9206513,61.592549 12.8946521,62.7594206 C12.8506532,64.694051 12.7056572,66.8328077 12.5366618,68.9939067 L12.5366618,69 C12.5366618,69 15.17759,64.1558074 14.4276104,60.7922925" id="Fill-238" fill="#D6A712"></path>
            <path d="M10.4927327,47 C10.4927327,47 8.67028943,47.6977879 7.63837617,53.3133669 C6.60545714,58.9279376 5.8340366,64.5515835 7.67357789,65.2765972 C9.51311918,66.0016109 11.0509314,66.5471359 11.5910264,65.0446735 C12.1321271,63.5422112 12.4670463,56.3061912 12.5354382,53.7036038 C12.6038302,51.1020247 12.702395,47.5142656 10.4927327,47" id="Fill-240" fill="#FFC900"></path>
            <path d="M39.0782104,67.1675718 C39.0782104,67.1675718 40.0129236,67.5444769 40.6877827,68.3515342 C41.2417573,69.0145115 41.5453963,69.5751709 41.7881172,69.9719132 C42.3259104,70.8510106 42.7789893,72.7522413 42.4506023,72.9881985 C42.1231671,73.2251998 40.2489815,69.8048638 39.9472462,70.6014806 C39.644559,71.3970532 39.9491499,72.1320705 39.5617484,72.1445992 C39.1743469,72.1550398 37.8274842,68.7065142 36.7680792,67.6363541 C35.7077223,66.5682821 39.0782104,67.1675718 39.0782104,67.1675718" id="Fill-242" fill="#FFC2B0"></path>
            <path d="M19.5616883,117 C19.5616883,117 20.0762746,116.992051 20.7486802,116.872815 L21.5616883,83 L19.5616883,117 Z" id="Fill-244" fill="#173D7A"></path>
            <path d="M16.6288847,99 L15.444718,97.4346159 L2.98936531,90.1298217 C2.58973358,89.896108 2.26668975,89.268562 2.26767164,88.7285344 L2.27749061,78.4003807 L1.56168831,77.4535919 L2.23428717,77.058765 L2.23526907,77.058765 C2.36487936,76.9752248 2.53572929,76.9772139 2.72327146,77.0876063 L16.8399924,85.3660416 C17.2396241,85.5997552 17.562668,86.2273012 17.5616883,86.7663344 L17.5499033,98.0154192 C17.5489214,98.3187496 17.4468042,98.5295892 17.2857733,98.6151184 L16.6288847,99 Z" id="Fill-246" fill="#303030"></path>
            <path d="M8.0924628,93 L7.19711468,92.4843239 L2.28114673,83.9781429 L2.28611537,78.3928067 L1.56168831,77.4505348 L2.24239137,77.0575916 L2.2433851,77.0585814 C2.37356335,76.9754398 2.54647187,76.9774193 2.73726747,77.0862953 L17.0230882,85.3252353 C17.2367396,85.4479682 17.4285289,85.6805668 17.5616883,85.9517669 L8.0924628,93 Z" id="Fill-248" fill="#A5A5A5"></path>
            <path d="M1.78715804,77.9385931 L1.56168831,77.5165931 L2.03837586,77.1195931 L2.03907175,77.1205931 C2.13092979,77.0365931 2.25201538,77.0385931 2.38493118,77.1485931 L2.56168831,77.2955931 L1.78715804,77.9385931 Z" id="Fill-250" fill="#D29FFF"></path>
            <path d="M16.9835257,85 C17.290404,85.258288 17.5289803,85.7471549 17.5616883,86.1984166 L16.210077,87 L15.5616883,85.8441366 L16.9835257,85 Z" id="Fill-252" fill="#303030"></path>
            <path d="M15.8201982,85.4991729 L1.31730199,77.0900092 C0.906709422,76.8515947 0.573796529,77.1031422 0.573796529,77.6516977 L0.561688312,89.0784217 C0.560681778,89.6269772 0.892585845,90.2634228 1.30317841,90.5018373 L15.8060746,98.9099908 C16.2166672,99.1484053 16.5495801,98.8968578 16.5495801,98.3483023 L16.5616883,86.9215783 C16.5626948,86.374033 16.2307908,85.7365772 15.8201982,85.4991729" id="Fill-254" fill="#565656"></path>
            <polygon id="Fill-256" fill="#FFFFFF" points="13.4041883 94 12.7191883 93.6215355 12.7191883 88 13.4041883 88.3775088"></polygon>
            <polygon id="Fill-258" fill="#FFFFFF" points="11.4041883 93 10.7191883 92.6215355 10.7191883 87 11.4041883 87.3775088"></polygon>
            <polygon id="Fill-260" fill="#FFFFFF" points="10.4041883 92 9.71918831 91.6214752 9.71918831 86 10.4041883 86.376613"></polygon>
            <path d="M8.01837885,76.9407603 C8.01837885,76.9407603 7.48979729,80.6755116 7.5699655,81.871251 C7.64925273,83.0669904 8.19545367,85.040631 8.61039019,84.9993631 C9.02532671,84.9570634 8.62448569,80.1885495 9.35304727,80.6631312 C10.0816088,81.1387445 10.1582532,81.9527552 10.4886166,81.6659428 C10.8180991,81.3780987 9.91246275,77.3028868 10.1538483,75.535586 C10.3961149,73.7682852 8.01837885,76.9407603 8.01837885,76.9407603" id="Fill-262" fill="#FFC2B0"></path>
            <path d="M23.8748856,38.3493099 C26.8773916,39.488561 27.4619868,38.7930879 27.4909067,38.7566584 C27.5177609,38.5623675 27.5404837,38.3669727 27.5518451,38.1682661 C27.5900607,37.459546 27.5156952,36.7729043 27.3514714,36.1237961 L19.5616883,35 C19.5616883,35 20.7918171,37.178045 23.8748856,38.3493099" id="Fill-264" fill="#EA9C92"></path>
            <path d="M27.1688689,31.9892398 C26.4664428,31.3861848 23.9315564,28.403785 19.389885,29.106493 C16.5514685,29.5472266 14.1591182,31.4868652 13.628966,35.9116658 C13.2710876,38.8930383 14.3631806,41.8292074 16.3761183,44 C16.4848149,43.9506872 16.5965878,43.903429 16.6981063,43.8366512 C17.8353187,43.0877123 17.9583715,42.6747173 17.9583715,42.6706078 L18.2096041,40.4124904 C18.2014006,40.0929843 17.9614478,39.8063533 17.6425361,39.7868337 C17.3954052,39.7714234 17.0959769,39.6522507 16.8109047,39.2793223 C16.1587252,38.4245663 16.4591789,37.0920921 17.7645634,37.0417519 C18.4454552,37.0160681 18.7089932,36.6462218 18.8064099,36.2989771 C18.890496,35.996936 19.2083822,35.8294777 19.5016579,35.9363222 C20.9864943,36.4746542 24.6432114,37.6345334 26.9976205,36.9667553 C30.0083108,36.1119993 27.8712949,32.5922948 27.1688689,31.9892398" id="Fill-266" fill="#514335"></path>
            <path d="M24.0467268,40.5601994 L25.5616883,40 C25.5616883,40 24.8384053,41.5322087 23.782549,41.9221627 C22.7266926,42.3121167 22.5616883,41.1100461 22.5616883,41.1100461 L24.0467268,40.5601994 Z" id="Fill-268" fill="#FFFFFF"></path>
            <polygon id="Fill-270" fill="#D29FFF" points="10.5616883 81.7160596 8.56168831 81 9.31268169 81.7673841 10.3246022 82"></polygon>
            <path d="M44.4358439,79.7839472 L57.1703948,72.4412039 C57.4215832,72.2952007 57.5416733,72.1005298 57.5466771,71.8947058 C57.5476778,71.8957198 57.5536823,71.8997754 57.5536823,71.8997754 L57.5616883,70.4600218 C57.5616883,70.4600218 57.1143528,70.834155 56.8521562,71.0541736 L48.8781757,66.323265 C48.2296893,65.9379788 47.2449508,65.890325 46.6795267,66.2168044 L34.5083983,73.2340823 L33.5726966,72.6794729 L33.5616883,74.1334213 L33.5676928,74.1283517 C33.5716958,74.3777738 33.7458264,74.6403768 34.0950884,74.8472146 L42.2371949,79.6774865 C42.8856813,80.0617588 43.8704199,80.1094126 44.4358439,79.7839472" id="Fill-272" fill="#8FB6E5"></path>
            <path d="M33.9459422,71.5589504 L46.6833709,64.2163829 C47.2499682,63.8909253 48.2340057,63.9375641 48.8836906,64.322841 L57.0272761,69.1529972 C57.6769611,69.5382742 57.7430307,70.1141618 57.1774345,70.4406334 L44.4400058,77.7832008 C43.8734084,78.1096723 42.889371,78.0620197 42.239686,77.6767427 L34.0961005,72.8465865 C33.4464155,72.4623234 33.3803459,71.884408 33.9459422,71.5589504" id="Fill-274" fill="#D4ECFF"></path>
            <path d="M44.4400377,77.7903509 L57.1831589,70.6938695 C57.5046413,70.5135418 57.6158081,70.2567709 57.5376909,70 C57.4786022,70.1205451 57.3744459,70.2322699 57.2101995,70.3234137 L44.4670783,77.4208752 C43.9002277,77.7354685 42.9157505,77.6894066 42.2667767,77.3179708 L34.1185502,72.6490525 C33.8391309,72.4883257 33.673883,72.2932974 33.6137928,72.0972891 C33.4675734,72.3962018 33.6298168,72.753917 34.0915096,73.0185282 L42.2387346,77.6884265 C42.8887099,78.0598623 43.8741886,78.1059243 44.4400377,77.7903509" id="Fill-276" fill="#FFFFFF"></path>
            <path d="M46.8521156,69.8497609 C46.4628218,69.6529383 46.4653013,69.335875 46.8570747,69.1433467 C47.2488482,68.949387 47.8819672,68.9529656 48.271261,69.1497882 C48.6605549,69.3480422 48.6580753,69.6643898 48.2663019,69.8576338 C47.8745285,70.0501621 47.2414094,70.0472992 46.8521156,69.8497609" id="Fill-278" fill="#FFFFFF"></path>
            <path d="M44.8521156,70.8499997 C44.4628218,70.6531433 44.4653013,70.3360257 44.8570747,70.1427485 C45.2488482,69.9494714 45.8819672,69.9530506 46.271261,70.149907 C46.6605549,70.348195 46.6580753,70.663881 46.2663019,70.8578739 C45.8745285,71.0504352 45.2414094,71.046856 44.8521156,70.8499997" id="Fill-280" fill="#FFFFFF"></path>
            <path d="M41.8521304,72.8499997 C41.4628167,72.6524275 41.4652964,72.3360257 41.8570898,72.1427485 C42.2488831,71.9494714 42.8820344,71.9530506 43.271348,72.149907 C43.6606617,72.3474791 43.658182,72.663881 43.265562,72.8578739 C42.8737687,73.0504352 42.241444,73.046856 41.8521304,72.8499997" id="Fill-282" fill="#FFFFFF"></path>
            <g id="Group-286" transform="translate(93.561688, 0.000000)">
                <mask id="mask-8" fill="white">
                    <use xlink:href="#path-7"></use>
                </mask>
                <g id="Clip-285"></g>
                <polygon id="Fill-284" fill="#E8A200" mask="url(#mask-8)" points="3.043 0.4691 3.835 3.0701 5.865 4.4661 4.326 5.0941 4.787 7.6741 3.043 5.4291 1.299 5.6601 1.76 3.6131 0.221 1.2071 2.25 2.1551"></polygon>
            </g>
            <path d="M92.5616883,1.62456946 L93.3475704,1 L94.5616629,1.78415614 C94.5616629,1.78415614 94.5566837,2.91274397 94.5616629,2.94029851 C94.5658122,2.96670494 94.0612543,3 94.0272298,3 C93.9932054,3 92.5616883,1.62456946 92.5616883,1.62456946" id="Fill-287" fill="#F9BF30"></path>
            <path d="M97.5616883,7.4675367 L96.8891031,8 L96.5616883,5.47373573 C96.5616883,5.47373573 96.8876826,5 96.8855519,5 C96.8841315,5 97.2527394,5.08515498 97.2527394,5.08515498 L97.5616883,7.4675367 Z" id="Fill-289" fill="#E8A200"></path>
            <polygon id="Fill-291" fill="#FDD762" points="95.5616883 1 96.4036444 3.52699514 98.5616883 4.8832755 96.9256146 5.49243581 97.4156926 8 95.5616883 5.81887578 93.7076841 6.04330326 94.197762 4.05454545 92.5616883 1.71700208 94.7186692 2.6370576"></polygon>
            <polygon id="Fill-293" fill="#FFFFFF" points="97.4156926 8 96.9256146 5.49243581 98.5616883 4.8832755 96.4036444 3.52699514 95.5616883 1 94.7186692 2.63608605 92.5616883 1.71700208 92.711582 1.93171409 94.7909583 2.81776544 95.5319222 1.37793199 96.2760753 3.61054823 98.249144 4.85218598 96.7565855 5.40791117 97.2190235 7.76877169"></polygon>
            <g id="Group-297" transform="translate(95.561688, 0.000000)">
                <mask id="mask-10" fill="white">
                    <use xlink:href="#path-9"></use>
                </mask>
                <g id="Clip-296"></g>
                <polygon id="Fill-295" fill="#E8A200" mask="url(#mask-10)" points="0.0963 1.013 1.0433 0.469 1.8353 3.07 0.8883 3.614"></polygon>
            </g>
            <polygon id="Fill-298" fill="#F9BF30" points="99.5616883 4.43917526 98.6070512 5 96.5616883 3.55979381 97.5163254 3"></polygon>
            <polygon id="Fill-300" fill="#FFFFFF" points="96.6913013 2.8395 96.5616883 2.7555 97.4815803 2.1605 97.5004822 2.2305 97.5616883 2.2765"></polygon>
            <polygon id="Fill-302" fill="#E8A200" points="102.561688 4 103.403644 6.52699514 105.561688 7.8832755 103.925615 8.49340736 104.415693 11 102.561688 8.81887578 100.707684 9.04330326 101.197762 7.05454545 99.5616883 4.71700208 101.718669 5.63802915"></polygon>
            <path d="M99.5616883,4.62456946 L100.34757,4 L101.561663,4.78415614 C101.561663,4.78415614 101.556684,5.91274397 101.561663,5.94029851 C101.565812,5.96670494 101.061254,6 101.02723,6 C100.993205,6 99.5616883,4.62456946 99.5616883,4.62456946" id="Fill-304" fill="#F9BF30"></path>
            <path d="M104.561688,10.4675367 L103.889103,11 L103.561688,8.47373573 C103.561688,8.47373573 103.887683,8 103.885552,8 C103.884131,8 104.252739,8.08515498 104.252739,8.08515498 L104.561688,10.4675367 Z" id="Fill-306" fill="#E8A200"></path>
            <polygon id="Fill-308" fill="#FDD762" points="101.561688 4 102.403644 6.52699514 104.561688 7.8832755 102.925615 8.49243581 103.415693 11 101.561688 8.81887578 99.7076841 9.04330326 100.197762 7.05454545 98.5616883 4.71700208 100.718669 5.6370576"></polygon>
            <polygon id="Fill-310" fill="#FFFFFF" points="103.415693 11 102.925615 8.49243581 104.561688 7.8832755 102.403644 6.52699514 101.561688 4 100.718669 5.63608605 98.5616883 4.71700208 98.711582 4.93171409 100.789895 5.81776544 101.531922 4.37890354 102.276075 6.61054823 104.249144 7.85218598 102.756586 8.40791117 103.219024 10.7687717"></polygon>
            <polygon id="Fill-312" fill="#E8A200" points="101.561688 4.51891892 102.65082 4 103.561688 6.48108108 102.472557 7"></polygon>
            <polygon id="Fill-314" fill="#F9BF30" points="105.561688 7.43917526 104.607051 8 102.561688 6.55979381 103.516325 6"></polygon>
            <polygon id="Fill-316" fill="#FFFFFF" points="102.691301 6.8395 102.561688 6.7555 103.48158 6.1605 103.500482 6.2305 103.561688 6.2765"></polygon>
            <polygon id="Fill-318" fill="#E8A200" points="109.561688 7 110.403644 9.52637424 112.561688 10.8828429 110.925615 11.4930594 111.415693 14 109.561688 11.818573 107.707684 12.0430316 108.197762 10.0539978 106.561688 7.71612993 108.718669 8.63728484"></polygon>
            <path d="M105.561688,8.62456946 L106.34757,8 L107.561663,8.78415614 C107.561663,8.78415614 107.556684,9.91274397 107.561663,9.94029851 C107.565812,9.96670494 107.061254,10 107.02723,10 C106.993205,10 105.561688,8.62456946 105.561688,8.62456946" id="Fill-320" fill="#F9BF30"></path>
            <path d="M110.561688,14.4675367 L109.889103,15 L109.561688,12.4737357 C109.561688,12.4737357 109.886972,12 109.885552,12 C109.884131,12 110.252739,12.085155 110.252739,12.085155 L110.561688,14.4675367 Z" id="Fill-322" fill="#E8A200"></path>
            <polygon id="Fill-324" fill="#FDD762" points="108.561688 8 109.403644 10.5269951 111.561688 11.8832755 109.925615 12.4924358 110.415693 15 108.561688 12.8188758 106.707684 13.0433033 107.197762 11.0545455 105.561688 8.71700208 107.718669 9.6370576"></polygon>
            <polygon id="Fill-326" fill="#FFFFFF" points="110.415693 15 109.925615 12.4924358 111.561688 11.8832755 109.404707 10.5269951 108.561688 8 107.718669 9.63608605 105.561688 8.71700208 105.712645 8.93171409 107.790958 9.81776544 108.531922 8.37890354 109.277138 10.6105482 111.250207 11.852186 109.757649 12.4079112 110.219024 14.7687717"></polygon>
            <polygon id="Fill-328" fill="#E8A200" points="108.561688 7.51812977 109.65082 7 110.561688 9.48091603 109.472557 10"></polygon>
            <polygon id="Fill-330" fill="#F9BF30" points="112.561688 11.4391753 111.607051 12 109.561688 10.5597938 110.516325 10"></polygon>
            <polygon id="Fill-332" fill="#FFFFFF" points="109.692084 10.8395 109.561688 10.7555 110.481652 10.1605 110.500537 10.2305 110.561688 10.2775"></polygon>
            <polygon id="Fill-334" fill="#E8A200" points="115.561688 11 116.403644 13.5263742 118.561688 14.8828429 116.925615 15.4930594 117.415693 18 115.561688 15.818573 113.707684 16.0430316 114.197762 14.0539978 112.561688 11.7161299 114.718669 12.6372848"></polygon>
            <path d="M112.561688,12.6245695 L113.34757,12 L114.561663,12.7841561 C114.561663,12.7841561 114.556684,13.912744 114.561663,13.9402985 C114.565812,13.9667049 114.061254,14 114.02723,14 C113.993205,14 112.561688,12.6245695 112.561688,12.6245695" id="Fill-336" fill="#F9BF30"></path>
            <path d="M117.561688,18.4675367 L116.889103,19 L116.561688,16.4737357 C116.561688,16.4737357 116.886972,16 116.885552,16 C116.884131,16 117.252739,16.085155 117.252739,16.085155 L117.561688,18.4675367 Z" id="Fill-338" fill="#E8A200"></path>
            <polygon id="Fill-340" fill="#FDD762" points="114.561688 12 115.403644 14.5269951 117.561688 15.8832755 115.925615 16.4924358 116.415693 19 114.561688 16.8188758 112.707684 17.0433033 113.197762 15.0545455 111.561688 12.7170021 113.718669 13.6370576"></polygon>
            <polygon id="Fill-342" fill="#FFFFFF" points="116.415693 19 115.925615 16.4924358 117.561688 15.8832755 115.404707 14.5269951 114.561688 12 113.718669 13.6360861 111.561688 12.7170021 111.712645 12.9317141 113.790958 13.8177654 114.531922 12.3789035 115.277138 14.6115198 117.250207 15.852186 115.756586 16.4079112 116.219024 18.7687717"></polygon>
            <polygon id="Fill-344" fill="#E8A200" points="114.561688 11.5181298 115.65082 11 116.561688 13.480916 115.472557 14"></polygon>
            <polygon id="Fill-346" fill="#F9BF30" points="118.561688 15.4391753 117.607051 16 115.561688 14.5597938 116.516325 14"></polygon>
            <polygon id="Fill-348" fill="#FFFFFF" points="115.692084 13.8395 115.561688 13.7555 116.481652 13.1605 116.500537 13.2305 116.561688 13.2775"></polygon>
            <polygon id="Fill-350" fill="#E8A200" points="122.561688 15 123.403644 17.5263742 125.561688 18.8828429 123.925615 19.4930594 124.415693 22 122.561688 19.818573 120.707684 20.0430316 121.197762 18.0539978 119.561688 15.7161299 121.718669 16.6372848"></polygon>
            <path d="M118.561688,15.6245695 L119.34757,15 L120.561663,15.7841561 C120.561663,15.7841561 120.556684,16.912744 120.561663,16.9402985 C120.565812,16.9667049 120.061254,17 120.02723,17 C119.993205,17 118.561688,15.6245695 118.561688,15.6245695" id="Fill-352" fill="#F9BF30"></path>
            <path d="M123.561688,21.4675367 L122.88958,22 L122.561688,19.4737357 C122.561688,19.4737357 122.887451,19 122.886032,19 C122.884612,19 123.252249,19.085155 123.252249,19.085155 L123.561688,21.4675367 Z" id="Fill-354" fill="#E8A200"></path>
            <polygon id="Fill-356" fill="#FDD762" points="121.561688 15 122.403644 17.5269951 124.561688 18.8832755 122.924552 19.4924358 123.415693 22 121.561688 19.8188758 119.707684 20.0433033 120.197762 18.0545455 118.561688 15.7170021 120.718669 16.6370576"></polygon>
            <polygon id="Fill-358" fill="#FFFFFF" points="123.415693 22 122.925615 19.4924358 124.561688 18.8832755 122.404707 17.5269951 121.561688 15 120.718669 16.6360861 118.561688 15.7170021 118.712645 15.9317141 120.790958 16.8177654 121.531922 15.3789035 122.277138 17.6115198 124.250207 18.852186 122.756586 19.4079112 123.219024 21.7687717"></polygon>
            <polygon id="Fill-360" fill="#E8A200" points="120.561688 15.5181298 121.65082 15 122.561688 17.480916 121.472557 18"></polygon>
            <polygon id="Fill-362" fill="#F9BF30" points="124.561688 18.4391753 123.607051 19 121.561688 17.5597938 122.516325 17"></polygon>
            <polygon id="Fill-364" fill="#FFFFFF" points="121.692084 17.8395 121.561688 17.7555 122.481652 17.1605 122.500537 17.2305 122.561688 17.2775"></polygon>
            <path d="M63.3943729,146.217598 C69.8379523,149.927631 80.2844362,149.927631 86.7290037,146.216613 C93.1725832,142.50658 93.1725832,136.492681 86.7290037,132.781662 C80.2854243,129.072615 69.8379523,129.072615 63.3943729,132.782648 C56.9507935,136.492681 56.9507935,142.50658 63.3943729,146.217598" id="Fill-366" fill="#C2D6F2"></path>
            <path d="M65.3330078,134.774541 C64.1927157,135.282832 63.4750083,136.609298 63.5701143,138.034968 C63.6142357,138.706894 63.6926736,139.333821 63.8269987,139.627341 C64.1897743,140.421994 65.3790901,141.513235 67.2772891,140.729832 C69.1764685,139.948475 73.3925096,135.815669 73.550366,133.110577 C73.8445084,128.08596 68.3362017,133.435802 65.3330078,134.774541" id="Fill-368" fill="#A5A5A5"></path>
            <path d="M75.8663689,142.516267 C75.8663689,142.516267 75.3960337,145.17689 75.6241057,145.665423 C75.8531914,146.152077 77.2185825,147.193966 79.2367664,146.96849 C81.2549503,146.743013 87.0611569,144.887529 88.3545786,141.34097 C90.359585,135.8431 77.1466131,141.753405 77.1466131,141.753405 L75.8663689,142.516267 Z" id="Fill-370" fill="#A5A5A5"></path>
            <path d="M82.1238555,97.6149051 L82.5616883,141.850216 C82.5152365,143.387748 81.5199823,144.688199 80.1817754,144.916277 C80.015735,144.944287 79.8388229,144.967295 79.6490624,144.984301 C78.2930655,145.104343 77.5033851,144.516139 77.052704,143.896925 C76.688008,143.396752 76.4962708,142.760531 76.4685974,142.110306 L75.9101877,123.22777 L73.1250571,106.344927 L69.2715354,136.22627 C69.2102585,137.034549 68.8277725,137.781808 68.2130276,138.19295 C67.7880432,138.478049 67.2118433,138.698125 66.4557664,138.676118 C65.3527835,138.642106 64.5868232,138.044899 64.1193403,137.511715 C63.7497026,137.088568 63.5540121,136.508367 63.5619188,135.911161 L65.0898861,117.932938 L65.6581793,95 L82.1238555,97.6149051 Z" id="Fill-372" fill="#565656"></path>
            <path d="M76.2255306,58 L75.5616883,62.1173421 C75.5616883,62.1173421 75.5360771,63.5214691 76.9947557,63.9108232 C78.4515351,64.3001772 78.9026239,63.2884699 78.9026239,63.2884699 L79.5616883,58.6509672 L76.2255306,58 Z" id="Fill-374" fill="#FFC2B0"></path>
            <path d="M85.2148457,56.2755483 C84.1064228,59.7271229 80.6774304,61.7314565 77.5555423,60.7512933 C74.4336542,59.77013 72.8005101,56.1755317 73.9089329,52.7239571 C75.0173558,49.2713824 78.4463482,47.268049 81.5682363,48.2492123 C84.6901244,49.2293754 86.3222516,52.8229736 85.2148457,56.2755483" id="Fill-376" fill="#FFC2B0"></path>
            <path d="M75.9963647,61.8158548 C75.8891412,61.772936 69.4081907,57.6557176 67.0138705,61.9635757 C63.1072947,68.9892969 65.9649013,77.0440732 64.5709962,94.5320205 C64.33733,97.4594875 68.5625415,99.2421183 70.5593257,100.36799 C72.3366052,101.370096 74.3252971,101.982938 76.3716468,102 C78.3967542,102.014878 82.2800644,100.239234 82.1394601,97.6271706 C81.4910616,85.613876 82.5673424,75.4860179 83.5616883,65.6615863 C83.5616883,65.6615863 82.318503,64.3410821 75.9963647,61.8158548" id="Fill-378" fill="#FFC900"></path>
            <path d="M72.5616883,106 L68.8854673,135.84675 C68.8270098,136.655093 68.462122,137.400487 67.8756615,137.812153 C67.7794896,137.879098 67.673889,137.943046 67.5616883,138 C68.3244641,137.393493 70.5533911,112.341847 70.965422,109.555111 C71.377453,106.766377 72.5616883,106 72.5616883,106" id="Fill-380" fill="#303030"></path>
            <polygon id="Fill-382" fill="#FFC2B0" points="97.3769327 66 102.561688 55.0894184 100.934928 54 95.5616883 62.3105304"></polygon>
            <polygon id="Fill-384" fill="#FFC2B0" points="61.5616883 55 64.3449185 43 66.5616883 43.0222409 65.7295996 52.9750632"></polygon>
            <path d="M84.313181,66.3776516 C84.313181,66.3776516 90.2106303,68.6638399 95.2773836,62.3811701 C95.7236983,61.827499 96.6409045,61.8893401 96.9053509,62.4864933 C97.3605133,63.5155679 97.9316781,65.0712582 97.2395954,66.5312881 C94.177326,72.9917511 83.7282532,72.7666108 81.2106057,76.3881805 C78.6929582,80.008784 84.313181,66.3776516 84.313181,66.3776516" id="Fill-386" fill="#FFC900"></path>
            <path d="M72.5616883,61.1987773 C72.5616883,61.1987773 67.456053,61.5865168 66.7210806,57.2236831 C66.3427709,54.977643 66.2283502,53.6342933 66.2077339,52.8628848 C66.1933025,52.3387749 65.7325274,51.9418761 65.2068108,52.0070082 C63.9842622,52.1555908 62.0906518,52.5168705 61.8339785,53.3259334 C61.4505146,54.5339305 60.7289429,60.4578995 65.7727292,69.5489173 C69.0764969,75.5054523 72.5616883,61.1987773 72.5616883,61.1987773" id="Fill-388" fill="#FFC900"></path>
            <path d="M64.5616883,42.4634229 L64.6083235,41.188817 C64.6251915,40.7397867 64.7631125,40.3011114 65.0101795,39.9170352 L66.3715291,37.7952023 L66.72675,37.3715889 C67.0541883,36.9799817 67.6406005,36.8839627 68.0871073,37.1503685 L68.4006542,37.3376998 C68.7995336,37.5758647 69.0287404,38.0023023 68.9989733,38.4485085 L68.2944848,40.2615742 L69.1855139,40.097777 C69.3581632,40.0657706 69.524859,40.1740274 69.5566106,40.338766 C69.583401,40.4790291 69.5020376,40.6174095 69.3631244,40.6710672 L67.9094968,41.2274129 L66.5878368,43 L64.5616883,42.4634229 Z" id="Fill-390" fill="#FFC2B0"></path>
            <path d="M102.678322,56 L103.264306,54.7393215 C103.471784,54.2938818 103.573654,53.7969644 103.56057,53.2947941 L103.486737,50.5244532 L103.40356,49.9266815 C103.327858,49.3740841 102.894211,48.9759198 102.397947,49.0011334 L102.050282,49.0179424 C101.606354,49.0410549 101.209156,49.3341626 101.014762,49.782754 L100.701677,51.9101489 L100.053075,51.2861131 C99.9269066,51.1642475 99.737186,51.1821071 99.6306434,51.3260346 C99.5409233,51.4479002 99.5381196,51.6233446 99.6259705,51.7473113 L100.543732,53.0479113 L100.781116,55.7594205 L102.678322,56 Z" id="Fill-392" fill="#FFC2B0"></path>
            <path d="M79.4392516,75.2945708 C78.9155283,77.6580942 82.0719416,95.4829171 78.5616883,102 C80.3178202,101.297304 82.0528423,99.9207355 81.958351,98.1615107 C81.4969517,89.6059138 81.914121,82.0144117 82.5504298,74.8035781 C85.5520381,73.2997888 90.2434334,72.4032799 93.5616883,70 C90.0031841,71.2970555 79.9066823,73.1854889 79.4392516,75.2945708" id="Fill-394" fill="#D6A712"></path>
            <path d="M74.5616883,60.9692144 L75.4210407,60 C75.4210407,60 76.8362171,61.5870488 77.9720315,61.8619958 C77.9720315,61.8619958 79.339842,62.2876858 80.0077975,62.3237792 L80.5616883,64 C80.5616883,64 76.0570967,63.6454352 74.5616883,60.9692144" id="Fill-396" fill="#FFFFFF"></path>
            <path d="M80.8948729,55.6318747 C81.1388259,55.6279097 81.3649288,55.5178821 81.5027722,55.3176517 C81.7437502,54.9677442 81.5920233,53.3639186 82.334791,53.0982664 C83.497039,52.6839283 86.2519237,54.1370854 86.5464524,49.9490984 C86.7001627,47.7703538 85.6400577,47.1924612 85.6450161,46 C85.6450161,46 85.7362505,46.5977174 80.1312799,46.2260026 C74.527301,45.8532965 72.7045947,50.8283278 72.5717096,53.1973904 C72.4398163,55.5674441 73.5861974,59.4630155 77.417054,59.9972936 C78.0517287,60.0865052 80.7203373,57.9424541 80.6509198,57.6619333 C80.5815023,57.3804212 79.5749479,57.3952898 79.7207247,56.5775172 C79.8417096,55.8955444 80.2572232,55.6437696 80.8948729,55.6318747" id="Fill-398" fill="#514335"></path>
        </g>
    </g>
</svg>