<?xml version="1.0" encoding="UTF-8"?>
<svg width="155px" height="152px" viewBox="0 0 155 152" version="1.1" xmlns="http://www.w3.org/2000/svg" xmlns:xlink="http://www.w3.org/1999/xlink">
    <title>service block / art support</title>
    <defs>
        <polygon id="path-1" points="0.6691 0.0831 7.231 0.0831 7.231 6.8381 0.6691 6.8381"></polygon>
        <polygon id="path-3" points="0 0.975726247 73.3676432 0.975726247 73.3676432 43.733564 0 43.733564"></polygon>
        <polygon id="path-5" points="0 0.655382636 73.3676432 0.655382636 73.3676432 43.4136363 0 43.4136363"></polygon>
        <polygon id="path-7" points="0 0.334854487 73.3676432 0.334854487 73.3676432 43.0931082 0 43.0931082"></polygon>
    </defs>
    <g id="service-block-/-art-support" stroke="none" stroke-width="1" fill="none" fill-rule="evenodd">
        <g id="Group-255">
            <path d="M81.0066667,116 L81.0066667,118.740172 C81.0066667,119.101446 81.1854098,119.462721 81.5439173,119.669892 L97.469416,128.856868 C97.8013675,129.047711 98.2109445,129.047711 98.5439173,128.856868 L114.469416,119.669892 C114.827924,119.462721 115.006667,119.101446 115.006667,118.740172 L115.006667,116 L81.0066667,116 Z" id="Fill-1" fill="#8FB6E5"></path>
            <path d="M81.5436579,116.906107 L97.469037,125.859757 C97.800986,126.046748 98.2105599,126.046748 98.5435303,125.859757 L114.468909,116.906107 C115.185919,116.503282 115.185919,115.496718 114.468909,115.093893 L98.5435303,106.140243 C98.2105599,105.953252 97.800986,105.953252 97.469037,106.140243 L81.5436579,115.093893 C80.8276696,115.496718 80.8276696,116.503282 81.5436579,116.906107" id="Fill-3" fill="#D4ECFF"></path>
            <polyline id="Fill-5" fill="#618FC6" points="94.0066667 116 94.0066667 77 103.006667 77 103.006667 116"></polyline>
            <path d="M94.0066667,112 C94.0066667,113.866111 96.0212168,115.379203 98.5071905,115.379203 C100.992117,115.379203 103.006667,113.866111 103.006667,112 L103.006667,115.620797 C103.006667,117.486909 100.992117,119 98.5071905,119 C96.0212168,119 94.0066667,117.486909 94.0066667,115.620797" id="Fill-7" fill="#8FB6E5"></path>
            <path d="M150.974805,49.559317 L65.9038484,0.28077491 C65.1745909,-0.142277679 64.347494,-0.060298589 63.7322145,0.3465606 L63.7332232,0.3465606 L59.0066667,2.98304863 C72.8676013,10.803449 146.873615,52.1583578 146.873615,52.1583578 C146.873615,52.1583578 147.719876,99.7011698 146.297673,113 L151.08374,110.328089 L151.08374,110.328089 C151.566885,109.960701 151.89369,109.379763 151.895707,108.686483 L152.006667,51.3567845 C152.008676,50.6159364 151.614292,49.9297411 150.974805,49.559317" id="Fill-9" fill="#618FC6"></path>
            <path d="M140.210638,53.9152311 C141.198504,54.4855613 142.006667,55.8839865 142.006667,57.0236321 L142.006667,104.720284 C142.006667,105.860945 141.198504,106.326748 140.210638,105.756418 L62.8016805,61.0839364 C61.814829,60.5146211 61.0066667,59.115181 61.0066667,57.9755355 L61.0066667,10.279898 C61.0066667,9.14025241 61.814829,8.67343411 62.8016805,9.24274948 L140.210638,53.9152311 Z" id="Fill-11" fill="#18386B"></path>
            <path d="M62.3724572,9.15412497 C62.2460887,9.15412497 62.1318516,9.18238876 62.0327787,9.23992576 C61.7770089,9.38730123 61.523261,10.0787547 61.523261,10.5309753 L61.523261,57.973765 C61.523261,59.0104404 62.2824828,60.3236972 63.1822264,60.8425396 L140.518724,105.405451 C140.910972,105.630552 141.268847,105.673957 141.523606,105.526582 C141.778365,105.379206 141.919898,105.049125 141.919898,104.596905 L143.006667,56.0265917 C143.006667,54.9899163 142.247445,53.6756501 141.348712,53.1578171 L63.0366499,9.36206571 C62.7970553,9.22377502 62.570603,9.15412497 62.3724572,9.15412497 M140.926136,106 C140.637005,106 140.323611,105.908143 140.003141,105.722409 L62.9234237,61.2876943 C61.8669833,60.6790134 61.0066667,59.1911268 61.0066667,57.973765 L61.0066667,10.5309753 C61.0066667,9.88696466 61.2391847,9.39739544 61.6607499,9.15513439 C62.0833261,8.91186391 62.6231722,8.95627844 63.1822264,9.27727434 L140.260932,53.7119893 C141.317373,54.3206702 142.177689,55.8075474 142.177689,57.026928 L142.177689,104.469718 C142.177689,105.112719 141.945171,105.602288 141.523606,105.844549 C141.343657,105.949529 141.142479,106 140.926136,106" id="Fill-13" fill="#8FB6E5"></path>
            <g id="Group-17" transform="translate(145.006667, 49.000000)">
                <mask id="mask-2" fill="white">
                    <use xlink:href="#path-1"></use>
                </mask>
                <g id="Clip-16"></g>
                <path d="M7.23110192,2.6871 C7.2321,1.9551 6.8421,1.2771 6.2081,0.9111 L4.7741,0.0831 L0.6691,2.5841 L0.7271,2.6911 C1.6401,3.2001 2.1421,3.4791 2.1421,3.4791 C2.1421,3.4791 2.1541,4.1581 2.1721,5.3661 L2.9691,6.8381 L7.2271,4.6371 L7.23110192,2.6871 Z" id="Fill-15" fill="#274F89" mask="url(#mask-2)"></path>
            </g>
            <path d="M146.673923,55.6450234 C146.847897,67.246896 147.244644,101.928353 146.006667,113 L151.039198,110.314268 L151.040259,110.314268 C151.547331,109.943823 151.891037,109.360676 151.893159,108.663546 L152.006667,53 L146.673923,55.6450234 Z" id="Fill-18" fill="#18386B"></path>
            <path d="M146.967037,51.1801134 L61.1265499,2.28105699 C59.7403868,1.48234466 58.0076829,2.4809888 58.0066667,4.07942833 L144.351213,52.7105558 C144.350196,53.4514199 144.745517,54.1374803 145.388802,54.5089272 L144.589015,112.717498 C145.973145,113.51824 147.707882,112.521626 147.709914,110.923187 L148.006667,52.9825443 C148.008691,52.2396505 147.612354,51.5515603 146.967037,51.1801134" id="Fill-20" fill="#FFFFFF"></path>
            <path d="M142.718107,105.319056 C142.718107,106.459136 141.908396,106.924702 140.918636,106.354662 L63.3623577,61.7059313 C62.3725979,61.1358914 61.5628869,59.7381778 61.5628869,58.598098 L61.5628869,10.9267352 C61.5628869,9.7876697 62.3725979,9.32108899 63.3623577,9.8911289 L140.918636,54.5398601 C141.908396,55.1099 142.718107,56.5086279 142.718107,57.6476934 L142.718107,105.319056 Z M146.966038,52.6694801 L61.1722725,3.28089738 C59.7847777,2.48263864 58.0504093,3.48071564 58.0493921,5.07824743 L58.0066667,62.4352172 C58.0056514,63.1756605 58.4013519,63.8613313 59.0452552,64.2325673 L144.769849,113.717509 C146.15531,114.517796 147.890695,113.522762 147.893747,111.92523 L148.006667,54.4708873 C148.008693,53.7284154 147.611976,53.040716 146.966038,52.6694801 L146.966038,52.6694801 Z" id="Fill-22" fill="#D4ECFF"></path>
            <path d="M66.0066667,59 L63.0066667,57.5533483 L63.0066667,30.2936953 C63.0066667,30.012792 63.2791757,29.9164823 63.6153101,30.0790049 L65.4064266,30.9427824 C65.7377591,31.1022953 66.0066667,31.4574373 66.0066667,31.7333244 L66.0066667,59 Z" id="Fill-24" fill="#62C467"></path>
            <path d="M70.0066667,62 L67.0066667,60.5278707 L67.0066667,39.295315 C67.0066667,39.0125273 67.2755742,38.9165632 67.6069068,39.0788854 L69.4064266,39.9629797 C69.7377591,40.1253019 70.0066667,40.4856775 70.0066667,40.7674443 L70.0066667,62 Z" id="Fill-26" fill="#62C467"></path>
            <path d="M74.0066667,64 L71.0066667,62.5320815 L71.0066667,37.2944703 C71.0066667,37.0124915 71.2755742,36.9168019 71.6069068,37.0786598 L73.4064266,37.9602253 C73.7377591,38.1220831 74.0066667,38.4814279 74.0066667,38.7623888 L74.0066667,64 Z" id="Fill-28" fill="#62C467"></path>
            <path d="M79.0066667,66 L76.0066667,64.5507501 L76.0066667,54.2904226 C76.0066667,54.0120299 76.2755742,53.9175573 76.6069068,54.0783618 L78.4064266,54.9477107 C78.7377591,55.1075101 79.0066667,55.4622849 79.0066667,55.7396725 L79.0066667,66 Z" id="Fill-30" fill="#C46762"></path>
            <path d="M83.0066667,69 L80.0066667,67.5326367 L80.0066667,42.2933776 C80.0066667,42.0125231 80.2755742,41.9168697 80.6069068,42.0786664 L82.4064266,42.9588808 C82.7377591,43.1206775 83.0066667,43.480904 83.0066667,43.7607409 L83.0066667,69 Z" id="Fill-32" fill="#62C467"></path>
            <path d="M87.0066667,71 L84.0066667,69.5696419 L84.0066667,53.2855647 C84.0066667,53.012974 84.2755742,52.9188063 84.6069068,53.0764133 L86.4064266,53.9338352 C86.7377591,54.0914422 87.0066667,54.4423409 87.0066667,54.7159229 L87.0066667,71 Z" id="Fill-34" fill="#C6C654"></path>
            <polygon id="Fill-36" fill="#FFFFFF" points="98.0066667 39 63.0066667 18.5478068 63.0066667 13 98.0066667 33.451163"></polygon>
            <polygon id="Fill-38" fill="#DDDDDD" points="74.0066667 28 63.0066667 21.5218077 63.0066667 20 74.0066667 26.4792433"></polygon>
            <polygon id="Fill-40" fill="#62C467" points="110.006667 40.7862702 141.006667 59 141.006667 58.2157694 110.006667 40"></polygon>
            <polygon id="Fill-42" fill="#62C467" points="110.006667 63.7852504 141.006667 82 141.006667 81.2147496 110.006667 63"></polygon>
            <polygon id="Fill-44" fill="#62C467" points="116.006667 45.7659659 141.006667 60 141.006667 59.2340341 116.006667 45"></polygon>
            <polygon id="Fill-46" fill="#62C467" points="122.006667 50.7906221 141.006667 62 141.006667 61.2093779 122.006667 50"></polygon>
            <polygon id="Fill-48" fill="#62C467" points="113.006667 46.7728185 141.006667 63 141.006667 62.2271815 113.006667 46"></polygon>
            <polygon id="Fill-50" fill="#62C467" points="131.006667 59.7324033 141.006667 65 141.006667 64.2685479 131.006667 59"></polygon>
            <polygon id="Fill-52" fill="#62C467" points="131.006667 62.7324033 141.006667 68 141.006667 67.2685479 131.006667 62"></polygon>
            <polygon id="Fill-54" fill="#62C467" points="116.006667 51.7611056 141.006667 66 141.006667 65.2398815 116.006667 51"></polygon>
            <polygon id="Fill-56" fill="#62C467" points="134.006667 74.8549856 141.006667 79 141.006667 78.1461248 134.006667 74"></polygon>
            <polygon id="Fill-58" fill="#62C467" points="134.006667 80.8549856 141.006667 85 141.006667 84.1461248 134.006667 80"></polygon>
            <polygon id="Fill-60" fill="#62C467" points="132.006667 64.760619 141.006667 70 141.006667 69.239381 132.006667 64"></polygon>
            <polygon id="Fill-62" fill="#62C467" points="126.006667 62.7613711 141.006667 71 141.006667 70.2386289 126.006667 62"></polygon>
            <polygon id="Fill-64" fill="#62C467" points="137.006667 70.7485437 141.006667 73 141.006667 72.2533981 137.006667 70"></polygon>
            <polygon id="Fill-66" fill="#62C467" points="132.006667 67.7475728 136.006667 70 136.006667 69.2524272 132.006667 67"></polygon>
            <polygon id="Fill-68" fill="#62C467" points="127.006667 64.7478148 131.006667 67 131.006667 66.2531564 127.006667 64"></polygon>
            <polygon id="Fill-70" fill="#62C467" points="122.006667 61.7478148 126.006667 64 126.006667 63.2531564 122.006667 61"></polygon>
            <polygon id="Fill-72" fill="#62C467" points="137.006667 77.7478148 141.006667 80 141.006667 79.2531564 137.006667 77"></polygon>
            <polygon id="Fill-74" fill="#62C467" points="132.006667 75.7478148 136.006667 78 136.006667 77.2531564 132.006667 75"></polygon>
            <polygon id="Fill-76" fill="#62C467" points="127.006667 72.7485437 131.006667 75 131.006667 74.2533981 127.006667 72"></polygon>
            <polygon id="Fill-78" fill="#62C467" points="122.006667 69.7475728 126.006667 72 126.006667 71.2533981 122.006667 69"></polygon>
            <polygon id="Fill-80" fill="#62C467" points="139.006667 72.8174098 141.006667 74 141.006667 73.1836518 139.006667 72"></polygon>
            <polygon id="Fill-82" fill="#62C467" points="136.006667 71.8174098 138.006667 73 138.006667 72.1836518 136.006667 71"></polygon>
            <polygon id="Fill-84" fill="#62C467" points="128.006667 66.8508287 135.006667 71 135.006667 70.1491713 128.006667 66"></polygon>
            <polygon id="Fill-86" fill="#62C467" points="121.006667 62.8517455 128.006667 67 128.006667 66.1482545 121.006667 62"></polygon>
            <polygon id="Fill-88" fill="#62C467" points="129.006667 68.7985481 141.006667 76 141.006667 75.202489 129.006667 68"></polygon>
            <polygon id="Fill-90" fill="#62C467" points="118.006667 63.7927438 141.006667 77 141.006667 76.2082844 118.006667 63"></polygon>
            <polygon id="Fill-92" fill="#62C467" points="118.006667 70.7917738 141.006667 84 141.006667 83.2082262 118.006667 70"></polygon>
            <path d="M33.6627267,150.388677 L8.06726749,135.638358 C6.4962612,134.733593 6.69327498,133.152292 8.50723092,132.107941 L33.2217425,117.865024 C35.0356985,116.819654 37.7796003,116.70554 39.3506066,117.611323 L64.9460658,132.361642 C66.5170721,133.266407 66.3200583,134.847708 64.5061024,135.893078 L39.7915908,150.134976 C37.9776349,151.180346 35.233733,151.29446 33.6627267,150.388677" id="Fill-94" fill="#B2D3EA"></path>
            <path d="M73.0009871,121.618084 L73.0009871,121.618084 L73.0009871,110.670934 L48.4952913,110.656788 L40.0257806,105.759166 C38.0809001,104.634542 34.6854293,104.776004 32.4409485,106.073414 L24.5383584,110.644662 L0.01147875,110.630516 L0.01147875,121.888883 C-0.0440027989,122.649747 0.379674484,123.38434 1.31378202,123.923917 L32.9866852,142.241245 C34.9305569,143.364859 38.3260277,143.224407 40.5705086,141.926997 L71.1539559,124.240186 C72.4491978,123.491447 73.0736175,122.521421 73.0009871,121.618084" id="Fill-96" fill="#618FC6"></path>
            <path d="M37.0066667,105 C35.563831,105.034363 34.0678221,105.394162 32.8857399,106.068279 L24.8749855,110.639543 L0.0113788498,110.625394 L0.0113788498,121.886288 C-0.0438395239,122.647323 0.385636716,123.382081 1.33150701,123.92279 L33.4389462,142.244231 C34.385839,142.783929 35.6722226,143.029522 37.0066667,142.997181 L37.0066667,105 Z" id="Fill-98" fill="#618FC6"></path>
            <path d="M3.00666667,110.002 L0.0118578686,110 L0.0118578686,121.142796 C-0.0479947781,121.89585 0.409061797,122.622902 1.41676272,123.15694 L3.00666667,124 L3.00666667,110.002 Z" id="Fill-100" fill="#8FB6E5"></path>
            <path d="M34.0066667,142.496937 C35.6659013,143.197489 38.0659013,143.158187 40.0066667,142.430125 L40.0066667,130 L34.0066667,130 L34.0066667,142.496937 Z" id="Fill-102" fill="#8FB6E5"></path>
            <g id="Group-106" transform="translate(0.006667, 88.000000)">
                <mask id="mask-4" fill="white">
                    <use xlink:href="#path-3"></use>
                </mask>
                <g id="Clip-105"></g>
                <path d="M33.147337,42.9652837 L1.3192274,24.4157023 C-0.635183562,23.2778419 -0.389868493,21.2886326 1.86561096,19.9737488 L32.598926,2.06267907 C34.8544055,0.747795349 38.2665151,0.606586047 40.220926,1.74444651 L72.0490356,20.2940279 C74.0024329,21.4318884 73.7571178,23.4200744 71.5016384,24.7359814 L40.7683233,42.6460279 C38.5128438,43.9609116 35.1007342,44.1031442 33.147337,42.9652837" id="Fill-104" fill="#D4ECFF" mask="url(#mask-4)"></path>
            </g>
            <path d="M33.5665463,127.371241 L7.10343606,112.187716 C5.47916109,111.255175 5.68232118,109.626976 7.55803191,108.551506 L33.109939,93.8897236 C34.9856497,92.8142531 37.8228508,92.6973107 39.4471257,93.6288521 L65.910236,108.813377 C67.534511,109.744918 67.3303452,111.372117 65.4556402,112.448587 L39.9027273,127.10937 C38.0280224,128.18584 35.1908213,128.302782 33.5665463,127.371241" id="Fill-107" fill="#8FB6E5"></path>
            <path d="M62.0066667,123.829656 C62.0066667,124.570697 61.3350072,125.471121 60.5072579,125.841183 C59.6783261,126.212162 59.0066667,125.910799 59.0066667,125.170674 C59.0066667,124.429633 59.6783261,123.529209 60.5072579,123.159146 C61.3350072,122.788168 62.0066667,123.087699 62.0066667,123.829656" id="Fill-109" fill="#D4ECFF"></path>
            <path d="M66.0066667,121.828756 C66.0066667,122.569791 65.3347424,123.471125 64.5066667,123.841184 C63.678591,124.21216 63.0066667,123.9108 63.0066667,123.17068 C63.0066667,122.429645 63.678591,121.529228 64.5066667,121.159168 C65.3347424,120.788192 66.0066667,121.087721 66.0066667,121.828756" id="Fill-111" fill="#D4ECFF"></path>
            <path d="M70.0066667,119.829485 C70.0066667,120.57052 69.3350072,121.470937 68.5060754,121.840997 C67.6783261,122.211973 67.0066667,121.911528 67.0066667,121.171409 C67.0066667,120.429458 67.6783261,119.52904 68.5060754,119.15898 C69.3350072,118.788005 70.0066667,119.088449 70.0066667,119.829485" id="Fill-113" fill="#D4ECFF"></path>
            <path d="M73.0009871,103.617609 L73.0009871,103.617609 L73.0009871,92.6716116 L48.4952913,92.6574656 L40.0257806,87.7599071 C38.0809001,86.6342871 34.6854293,86.7757474 32.4409485,88.0741511 L24.5383584,92.64433 L0.01147875,92.6301839 L0.01147875,103.889415 C-0.0440027989,104.649259 0.379674484,105.383843 1.31378202,105.923413 L32.9866852,124.240504 C34.9305569,125.365113 38.3260277,125.224663 40.5705086,123.92626 L71.1539559,106.239678 C72.4491978,105.490948 73.0736175,104.520935 73.0009871,103.617609" id="Fill-115" fill="#618FC6"></path>
            <path d="M37.0066667,87 C35.563831,87.034362 34.0678221,87.3941527 32.8857399,88.0692657 L24.8749855,92.6394162 L0.0113788498,92.6252672 L0.0113788498,103.886919 C-0.0438395239,104.647937 0.385636716,105.381667 1.33150701,105.922364 L33.4389462,124.243392 C34.385839,124.784089 35.6722226,125.028666 37.0066667,124.997335 L37.0066667,87 Z" id="Fill-117" fill="#618FC6"></path>
            <path d="M3.00666667,93.002 L0.0118578686,93 L0.0118578686,104.143 C-0.0479947781,104.896 0.409061797,105.622 1.41676272,106.156 L3.00666667,107 L3.00666667,93.002 Z" id="Fill-119" fill="#8FB6E5"></path>
            <path d="M34.0066667,124.497342 C35.6659013,125.196879 38.0659013,125.158562 40.0066667,124.430532 L40.0066667,112 L34.0066667,112 L34.0066667,124.497342 Z" id="Fill-121" fill="#8FB6E5"></path>
            <g id="Group-125" transform="translate(0.006667, 71.000000)">
                <mask id="mask-6" fill="white">
                    <use xlink:href="#path-5"></use>
                </mask>
                <g id="Clip-124"></g>
                <path d="M33.147337,42.6445953 L1.3192274,24.095014 C-0.635183562,22.9571535 -0.389868493,20.9679442 1.86561096,19.6530605 L32.598926,1.7419907 C34.8544055,0.428130233 38.2665151,0.285897674 40.220926,1.42375814 L72.0490356,19.9733395 C74.0024329,21.1122233 73.7571178,23.1004093 71.5016384,24.415293 L40.7683233,42.3253395 C38.5128438,43.6412465 35.1007342,43.7834791 33.147337,42.6445953" id="Fill-123" fill="#D4ECFF" mask="url(#mask-6)"></path>
            </g>
            <path d="M33.5665463,109.370741 L7.10343606,94.1872163 C5.47916109,93.2546754 5.68232118,91.6274764 7.55803191,90.5510064 L33.109939,75.8902238 C34.9856497,74.8137538 37.8228508,74.6978108 39.4471257,75.6283527 L65.910236,90.8128775 C67.534511,91.7444189 67.3303452,93.3726173 65.4556402,94.4480879 L39.9027273,109.10987 C38.0280224,110.18534 35.1908213,110.303282 33.5665463,109.370741" id="Fill-126" fill="#8FB6E5"></path>
            <path d="M62.0066667,106.829373 C62.0066667,107.57031 61.3350072,108.470606 60.5072579,108.840616 C59.6783261,109.212458 59.0066667,108.911138 59.0066667,108.171118 C59.0066667,107.430182 59.6783261,106.528969 60.5072579,106.158959 C61.3350072,105.788033 62.0066667,106.088437 62.0066667,106.829373" id="Fill-128" fill="#D4ECFF"></path>
            <path d="M66.0066667,104.829491 C66.0066667,105.570532 65.3347424,106.470956 64.5066667,106.841018 C63.678591,107.211997 63.0066667,106.91155 63.0066667,106.170509 C63.0066667,105.429468 63.678591,104.529044 64.5066667,104.158982 C65.3347424,103.788003 66.0066667,104.08845 66.0066667,104.829491" id="Fill-130" fill="#D4ECFF"></path>
            <path d="M70.0066667,101.829656 C70.0066667,102.570697 69.3350072,103.471121 68.5060754,103.841183 C67.6783261,104.212162 67.0066667,103.910799 67.0066667,103.170674 C67.0066667,102.429633 67.6783261,101.529209 68.5060754,101.159146 C69.3350072,100.788168 70.0066667,101.087699 70.0066667,101.829656" id="Fill-132" fill="#D4ECFF"></path>
            <path d="M73.0009871,86.6180838 L73.0009871,86.6180838 L73.0009871,75.6709338 L48.4952913,75.6567876 L40.0257806,70.7591657 C38.0809001,69.6345416 34.6854293,69.7760038 32.4409485,71.0734138 L24.5383584,75.6446623 L0.01147875,75.6305161 L0.01147875,86.8888827 C-0.0440027989,87.649747 0.379674484,88.3843398 1.31378202,88.9239169 L32.9866852,107.241245 C34.9305569,108.364859 38.3260277,108.224407 40.5705086,106.926997 L71.1539559,89.2401858 C72.4491978,88.4914469 73.0736175,87.5214207 73.0009871,86.6180838" id="Fill-134" fill="#618FC6"></path>
            <path d="M37.0066667,70 C35.563831,70.0343628 34.0678221,70.3941616 32.8857399,71.0682791 L24.8749855,75.6395432 L0.0113788498,75.6253939 L0.0113788498,86.8862883 C-0.0438395239,87.6473234 0.385636716,88.3820811 1.33150701,88.92279 L33.4389462,107.244231 C34.385839,107.783929 35.6722226,108.029522 37.0066667,107.997181 L37.0066667,70 Z" id="Fill-136" fill="#618FC6"></path>
            <path d="M3.00666667,75.0010001 L0.0118578686,75 L0.0118578686,86.1427959 C-0.0479947781,86.8958497 0.409061797,87.6229016 1.41676272,88.1569398 L3.00666667,89 L3.00666667,75.0010001 Z" id="Fill-138" fill="#8FB6E5"></path>
            <path d="M34.0066667,106.496937 C35.6659013,107.197489 38.0659013,107.158187 40.0066667,106.430125 L40.0066667,94 L34.0066667,94 L34.0066667,106.496937 Z" id="Fill-140" fill="#8FB6E5"></path>
            <g id="Group-144" transform="translate(0.006667, 54.000000)">
                <mask id="mask-8" fill="white">
                    <use xlink:href="#path-7"></use>
                </mask>
                <g id="Clip-143"></g>
                <path d="M33.147337,42.3248279 L1.3192274,23.7752465 C-0.635183562,22.6363628 -0.389868493,20.6471535 1.86561096,19.333293 L32.598926,1.42222326 C34.8544055,0.107339535 38.2665151,-0.0348930233 40.220926,1.1039907 L72.0490356,19.6535721 C74.0024329,20.7914326 73.7571178,22.7796186 71.5016384,24.0955256 L40.7683233,42.0055721 C38.5128438,43.3204558 35.1007342,43.4626884 33.147337,42.3248279" id="Fill-142" fill="#D4ECFF" mask="url(#mask-8)"></path>
            </g>
            <path d="M71.15504,75.3516627 L40.5734731,92.812551 C38.3291303,94.0943861 34.9338682,94.2340412 32.990116,93.1237825 L1.31916028,75.0404311 C0.885422108,74.7930419 0.566674989,74.5027587 0.348797212,74.189532 C-0.318957827,75.251909 -0.0163498032,76.4050618 1.31916028,77.1671801 L32.990116,95.2505315 C34.9338682,96.3607902 38.3291303,96.221135 40.5734731,94.9402975 L71.15504,77.4794092 C72.8990709,76.4828697 73.428635,75.0913055 72.6690888,74 C72.3644634,74.484803 71.8580993,74.9506528 71.15504,75.3516627" id="Fill-145" fill="#FFFFFF"></path>
            <path d="M62.0066667,88.8295363 C62.0066667,89.5706179 61.3350072,90.4710916 60.5072579,90.8411744 C59.6783261,91.2121732 59.0066667,90.9107939 59.0066667,90.1706284 C59.0066667,89.4295468 59.6783261,88.5290731 60.5072579,88.1589903 C61.3350072,87.7879915 62.0066667,88.0884547 62.0066667,88.8295363" id="Fill-147" fill="#D4ECFF"></path>
            <path d="M66.0066667,86.828756 C66.0066667,87.5707073 65.3347424,88.4702087 64.5066667,88.8411843 C63.678591,89.21216 63.0066667,88.9107995 63.0066667,88.1706802 C63.0066667,87.4296449 63.678591,86.5292275 64.5066667,86.1591679 C65.3347424,85.7881922 66.0066667,86.0877207 66.0066667,86.828756" id="Fill-149" fill="#D4ECFF"></path>
            <path d="M70.0066667,84.8294846 C70.0066667,85.5705199 69.3350072,86.4709374 68.5060754,86.8409971 C67.6783261,87.2119728 67.0066667,86.9115283 67.0066667,86.1714089 C67.0066667,85.4294576 67.6783261,84.5290401 68.5060754,84.1589804 C69.3350072,83.7880047 70.0066667,84.0884492 70.0066667,84.8294846" id="Fill-151" fill="#D4ECFF"></path>
            <path d="M35.3676202,84.6404891 L20.6176413,75.9641528 C19.7121433,75.4312786 19.8265854,74.5015616 20.8716224,73.8868642 L35.1136391,65.5091828 C36.158676,64.8934626 37.7397838,64.8269812 38.6452818,65.3598553 L53.3952607,74.0361917 C54.3007586,74.568043 54.1873204,75.4987828 53.1422834,76.1134802 L38.9002668,84.4911616 C37.8542259,85.105859 36.2731181,85.1733632 35.3676202,84.6404891" id="Fill-153" fill="#18386B"></path>
            <path d="M36.2657476,76.9465426 L34.0965913,75.6446272 C33.9632196,75.5647823 33.9802912,75.4250537 34.1339353,75.3330103 L36.2284036,74.0765621 C36.3820477,73.9845187 36.6146479,73.9734291 36.7480195,74.054383 L38.9171759,75.3551894 C39.0494805,75.4361433 39.0334759,75.5758719 38.8798318,75.6679153 L36.7853636,76.9232545 C36.6317194,77.0152979 36.3991193,77.0263875 36.2657476,76.9465426" id="Fill-155" fill="#D4ECFF"></path>
            <path d="M20.6180748,75.9754266 L20.6602443,76 C20.7285186,75.9508533 20.7917728,75.8986348 20.8720956,75.8515359 L35.1163375,67.4648487 C36.1615377,66.8494905 37.7428926,66.7819137 38.648532,67.3153607 L53.358646,75.9774744 C54.192999,75.3672357 54.2371765,74.5389082 53.4008155,74.045393 L38.648532,65.3607537 C37.7428926,64.8262829 36.1615377,64.8938596 35.1163375,65.5092178 L20.8720956,73.8969289 C19.8258913,74.5112632 19.7124354,75.4419797 20.6180748,75.9754266" id="Fill-157" fill="#618FC6"></path>
            <path d="M20.386639,114.354424 C20.386639,114.354424 18.351264,113.275802 17.1006118,114.881888 C15.8499597,116.486944 14.0627533,120.277059 14.0078227,122.838143 C13.9519112,125.400256 15.9372601,125.227182 17.1172872,124.621423 C18.2973143,124.014634 21.7451905,118.762661 21.954123,117.733489 C22.1620746,116.704316 21.7079162,115.313543 21.3753899,115.040539 C21.0438444,114.768566 20.386639,114.354424 20.386639,114.354424" id="Fill-159" fill="#18386B"></path>
            <path d="M20.9101194,113.489452 L21.0054649,115.611161 C21.0253286,116.063135 20.7978898,116.493398 20.4016099,116.716424 C20.0420778,116.919713 19.5186705,117.074647 18.8115245,116.962147 C17.25918,116.713463 17.1201345,116.272345 17.008898,114.151623 C16.8986548,112.029913 20.9101194,113.489452 20.9101194,113.489452" id="Fill-161" fill="#303030"></path>
            <path d="M13.3870775,110.354424 C13.3870775,110.354424 11.3505816,109.275802 10.1008245,110.881888 C8.85008638,112.486944 7.06275713,116.277059 7.00782276,118.838143 C6.95190741,121.400256 8.9373928,121.227182 10.117501,120.621423 C11.2976091,120.014634 14.7457224,114.762661 14.9536882,113.733489 C15.162635,112.704316 14.7084455,111.313543 14.3758963,111.040539 C14.0443281,110.768566 13.3870775,110.354424 13.3870775,110.354424" id="Fill-163" fill="#18386B"></path>
            <path d="M13.9101249,109.489452 L14.0054696,111.611161 C14.0253331,112.063135 13.7969031,112.493398 13.4016198,112.716424 C13.0420908,112.919713 12.5186881,113.074647 11.8115483,112.962147 C10.2592173,112.71445 10.120173,112.272345 10.0089375,110.151623 C9.89770198,108.029913 13.9101249,109.489452 13.9101249,109.489452" id="Fill-165" fill="#303030"></path>
            <path d="M31.9623767,69.1493475 C31.3427965,59.0105408 21.0389968,70.6415121 21.0389968,70.6415121 L13.9874885,77.5890546 L7.63729638,84.6015179 C6.39712698,85.9719559 5.81992852,87.8201706 6.06009152,89.657227 L8.628221,109.320121 C8.75536611,110.290891 9.58180936,111.007048 10.5565886,111 C10.8310606,110.996904 11.1469052,110.971545 11.5071497,110.915753 C13.798789,110.55666 13.6302712,108.366597 13.6302712,108.366597 L13.1610452,89.9757448 L26.4961459,81.8941167 C26.4961459,81.8941167 32.5819568,79.2891686 31.9623767,69.1493475" id="Fill-167" fill="#565656"></path>
            <path d="M39.9623767,73.1494376 C39.3427965,63.0104108 29.0389968,74.6416345 29.0389968,74.6416345 L21.9874885,81.5893278 L15.6372964,88.6019433 C14.397127,89.9724111 13.8199285,91.8206659 14.0600915,93.6577622 L16.628221,113.321083 C16.7553661,114.291874 17.5818094,115.008047 18.5565886,115 C18.8310606,114.997903 19.1469052,114.972543 19.5071497,114.91675 C21.798789,114.557649 21.6302712,112.366524 21.6302712,112.366524 L21.1610452,93.9762869 L34.4961459,85.8944834 C34.4961459,85.8944834 40.5819568,83.2894788 39.9623767,73.1494376" id="Fill-169" fill="#565656"></path>
            <path d="M34.2590405,41.1157485 C42.1647296,44.3346406 42.006432,48.9247466 42.006432,48.9247466 C42.006432,48.9247466 40.4571579,65.7534634 40.9861783,76.9909978 C41.2067737,81.6884337 15.5727735,82.0475372 19.3954055,69.5140201 C23.9033129,54.7356041 22.2141242,42.7708348 24.3230569,40.9672923 C26.4340322,39.1627467 32.2144481,40.2831899 34.2590405,41.1157485" id="Fill-171" fill="#FFC900"></path>
            <path d="M35.9358964,44.9909897 C35.5242889,46.5537789 33.4316966,47.3774514 31.2618643,46.8313207 C29.0910158,46.2841953 27.665126,44.5731849 28.0777499,43.0094009 C28.4883411,41.4466118 30.5809334,40.6219446 32.7517819,41.16907 C34.9216142,41.7161954 36.3475039,43.4272058 35.9358964,44.9909897" id="Fill-173" fill="#FFC2B0"></path>
            <path d="M31.886893,40.7628772 C30.385182,40.7628772 29.1290536,41.4545124 28.8395798,42.5648505 C28.4706835,43.9832713 29.8145946,45.5557334 31.8356864,46.0705829 C32.835782,46.3249062 33.8442378,46.2825189 34.6760833,45.9527258 C35.4671725,45.6374063 35.9980487,45.0977447 36.171524,44.4329892 C36.3449993,43.7682337 36.1433082,43.0414482 35.6051167,42.3880648 C35.0387094,41.700565 34.175513,41.1815801 33.1754174,40.9272569 C32.736504,40.8166366 32.3028157,40.7628772 31.886893,40.7628772 M33.1200307,47 C32.6351359,47 32.1366556,46.9369361 31.6434005,46.8118421 C29.208476,46.1915415 27.6158473,44.2003765 28.0902918,42.374625 C28.5668264,40.5478396 30.9338238,39.565697 33.3677033,40.1859976 C34.5266437,40.4827081 35.5340545,41.0906027 36.20392,41.9042303 C36.9020014,42.7519745 37.1569892,43.716542 36.920812,44.6232148 C36.6846347,45.5298875 35.9907335,46.2546054 34.9655571,46.6619362 C34.4012399,46.8873121 33.7721306,47 33.1200307,47" id="Fill-175" fill="#FFFFFF"></path>
            <path d="M31.0750475,40.4333202 C31.0750475,40.4333202 31.1429372,40.7222062 31.0071577,42.999854 C30.9646,43.7160312 33.7004541,44.3857637 34.407723,43.7373957 C35.1149919,43.0880989 34.832287,42.4146508 35.0015047,39.9763044 C35.1717356,37.5388869 31.0750475,40.4333202 31.0750475,40.4333202" id="Fill-177" fill="#FFC2B0"></path>
            <path d="M35.0066667,40 C35.0066667,40 34.3320534,42.1686962 31.0066667,43 L31.0573895,41.029106 L35.0066667,40 Z" id="Fill-179" fill="#EA9C92"></path>
            <path d="M36.8141469,33.4980731 C37.6436431,36.7063487 35.7158697,39.9780449 32.5086186,40.8075458 C29.3013674,41.6370466 26.0286827,39.7082558 25.1991865,36.5009869 C24.3696903,33.2937179 26.2974636,30.0220217 29.5047148,29.1925209 C32.7129726,28.3630201 35.9846506,30.2908041 36.8141469,33.4980731" id="Fill-181" fill="#FFC2B0"></path>
            <path d="M32.0066667,35.5083387 C32.0066667,35.5083387 28.8906816,36.9820632 26.7338995,36.9998947 C24.5761677,37.0166773 25.0510206,35.0216425 25.0510206,35.0216425 L31.4558372,34 L32.0066667,35.5083387 Z" id="Fill-183" fill="#EA9C92"></path>
            <path d="M25.8144063,35.9778559 C25.8144063,35.9778559 28.7302642,34.7697346 31.2899323,35.2732843 C31.8910664,35.3917081 32.4483148,35.7061779 32.8361433,36.1689261 C32.9626978,36.3211852 33.1229322,36.4595121 33.3035787,36.4993184 C33.7577462,36.5998293 34.500744,34.7637637 35.3825435,34.7219671 C36.264343,34.6801705 36.85323,35.290202 36.1296237,36.4177155 C35.4060173,37.5472192 35.6509616,38.8110693 35.9836777,38.9911928 C36.3163937,39.1733066 39.845633,36.5371344 36.732799,30.5243927 C33.6199651,24.5116511 25.7123462,27.7498936 24.4825216,28.9689616 C24.4825216,28.9689616 23.1863579,30.0696058 22.1330974,29.0893756 C22.1330974,29.0893756 20.9512411,37.716396 25.8144063,35.9778559" id="Fill-185" fill="#514335"></path>
            <path d="M36.7873453,60.6384913 L36.7873453,65.2714409 C36.7873453,65.8030238 36.5713122,66.3100721 36.1925144,66.666846 L27.0066667,75.3469816 L28.0513201,77 L40.1817291,67.8833531 C40.747953,67.4570645 41.1129405,66.8017863 41.185938,66.0810825 L42.0066667,58 L36.7873453,60.6384913 Z" id="Fill-187" fill="#FFC2B0"></path>
            <path d="M41.2444462,46 C41.2444462,46 43.9858114,50.4101883 45.0066667,62.0174221 C45.0066667,62.0174221 40.3235416,63.6376396 37.6656304,62.7169907 C35.0086896,61.7984177 41.2444462,46 41.2444462,46" id="Fill-189" fill="#FFC900"></path>
            <path d="M36.0066667,52 C36.0066667,52 35.0609222,58.2508641 35.0070507,61.1888441 C34.9925139,61.9967358 35.3918473,62.7254224 36.0066667,63 L36.0066667,52 Z" id="Fill-191" fill="#D6A712"></path>
            <path d="M34.0063338,82.0887062 L31.9234379,81.8183517 L18.4767154,74.165621 C18.045562,73.9202068 17.2925618,73.951133 16.79461,74.2344566 L7.26672759,79.655515 L6.00666667,79.4909079 L6.00666667,80.7269571 L6.00767876,80.7269571 C6.00059408,80.8895689 6.09370702,81.046195 6.29713854,81.1619188 L21.536285,89.8352131 C21.9674384,90.0796296 22.7204387,90.0487034 23.2183905,89.7653798 L33.5944102,83.8624717 C33.8747611,83.7028528 34.0144306,83.4973434 34.0063338,83.3048031 L34.0063338,82.0887062 Z" id="Fill-193" fill="#18386B"></path>
            <path d="M24.0066667,77.5318713 L23.0456894,77 L12.4810474,77 L7.27405723,79.8808881 L6.00666667,79.7198628 L6.00666667,80.9290161 L6.00768465,80.9290161 C5.99954078,81.0890654 6.09421332,81.2422834 6.2978102,81.355489 L21.6266192,89.8390798 C21.8556656,89.9659482 22.1753127,90.0166955 22.4990318,89.9952255 L24.0066667,77.5318713 Z" id="Fill-195" fill="#618FC6"></path>
            <path d="M6.78266667,79.079825 L6.23066667,79 L6.23066667,80.3548387 L6.23166667,80.3548387 C6.22366667,80.5330782 6.31666667,80.7047567 6.51666667,80.8326955 L6.78266667,81 L6.78266667,79.079825 Z" id="Fill-197" fill="#8FB6E5"></path>
            <path d="M22.0066667,89.9171776 C22.2927856,90.0507515 22.7014259,90.0210684 23.0066667,89.8403508 L23.0066667,88 L22.0066667,88 L22.0066667,89.9171776 Z" id="Fill-199" fill="#274F89"></path>
            <path d="M21.5367025,87.8336825 L6.29757372,79.1249157 C5.86642085,78.8784695 5.92107403,78.4476896 6.41801314,78.1641763 L16.795033,72.2354426 C17.2929842,71.9509275 18.0459836,71.9198713 18.4771364,72.1663175 L33.7162652,80.8750843 C34.146406,81.1215305 34.0927649,81.5513086 33.5948137,81.8368255 L23.218806,87.7645574 C22.7208548,88.0490725 21.9678554,88.0801287 21.5367025,87.8336825" id="Fill-201" fill="#8FB6E5"></path>
            <path d="M21.7827219,86.8555308 L9.24569589,79.2787404 C8.89121448,79.0638778 8.93627568,78.6907504 9.34583188,78.4433964 L14.8473032,75.2047351 C15.2568594,74.957381 15.8756998,74.9301301 16.2311826,75.1449928 L28.7672073,82.7207351 C29.1216887,82.9355978 29.0776288,83.3097732 28.6680726,83.5571273 L23.1666013,86.7947404 C22.7570451,87.0431426 22.1372033,87.0693454 21.7827219,86.8555308" id="Fill-203" fill="#D4ECFF"></path>
            <path d="M17.221429,72.5082374 L17.0823019,73.5196679 C16.9636871,74.3811848 16.9850913,75.2582771 17.1429471,76.1129797 L17.3088294,77.0037005 C17.4015808,77.5069821 17.7663436,77.8963682 18.228317,77.9888474 C18.5895124,78.0599104 18.9310873,77.7834462 18.9712201,77.3852989 L19.1923966,75.2232323 C19.1923966,75.2232323 19.6998538,75.9474905 19.9442181,75.9474905 C20.1894743,75.9474905 19.6704231,73.783477 19.1165901,72.5578841 C18.563649,71.3322912 17.221429,72.5082374 17.221429,72.5082374" id="Fill-205" fill="#FFC2B0"></path>
            <path d="M23.0066667,55.1832259 L21.4124706,58.4304209 C21.0356248,59.1980505 20.8136606,60.0357415 20.7603892,60.8947555 L20.067861,72 L17.9715326,71.9492308 L17.0205394,59.4772808 C16.9909442,59.0924506 17.0087013,58.7055897 17.0738108,58.324821 L18.160942,52 L23.0066667,55.1832259 Z" id="Fill-207" fill="#FFC2B0"></path>
            <path d="M21.015812,89 L19.7578082,87.3628773 L6.52285036,79.7266139 C6.09919614,79.4822376 5.7552886,78.8256004 5.75628543,78.2613493 L5.7672506,67.4630947 L5.00666667,66.4736686 L5.72139626,66.0614077 L5.72239309,66.0624011 C5.85895928,65.9739886 6.0413798,65.9759754 6.24174332,66.0912097 L21.2400996,74.7457078 C21.6637538,74.9900842 22.0076613,75.6467214 22.0066667,76.2109724 L21.9937057,87.9698445 C21.9937057,88.2877324 21.8850508,88.5082672 21.7135955,88.5976731 L21.015812,89 Z" id="Fill-209" fill="#18386B"></path>
            <path d="M11.9460804,83 L10.9947986,82.45138 L5.77132368,73.4152275 L5.77636759,67.479883 L5.00666667,66.4791037 L5.7299636,66.0621124 L5.73097239,66.0631172 C5.87018435,65.9736901 6.05378274,65.9756997 6.25654799,66.0922563 L21.4346871,74.8460605 C21.6616631,74.9766843 21.8654371,75.2238647 22.0066667,75.5122419 L11.9460804,83 Z" id="Fill-211" fill="#618FC6"></path>
            <path d="M5.45746454,66.9594079 L5.00666667,66.5174079 L5.96012411,66.1024079 L5.9614539,66.1034079 C6.14496454,66.0144079 6.38698582,66.0164079 6.65427305,66.1324079 L7.00666667,66.2854079 L5.45746454,66.9594079 Z" id="Fill-213" fill="#8FB6E5"></path>
            <path d="M21.4289298,75 C21.7361975,75.258034 21.974468,75.7476371 22.0066667,76.1984877 L20.6543208,77 L20.0066667,75.8440454 L21.4289298,75 Z" id="Fill-215" fill="#274F89"></path>
            <path d="M21.2191345,74.8850447 L5.81058434,66.0934663 C5.37431939,65.8452192 5.02100623,66.1086033 5.01998214,66.6807825 L5.00666667,78.6269149 C5.00564479,79.2001032 5.35895795,79.867141 5.7941988,80.1153881 L21.2037731,88.9059574 C21.6390139,89.1552136 21.9933512,88.8918295 21.9933512,88.3186412 L22.0066667,76.3735179 C22.0076885,75.7993204 21.6543754,75.1332918 21.2191345,74.8850447" id="Fill-217" fill="#8FB6E5"></path>
            <path d="M28.0066667,77.7346226 L27.7637906,78.2709933 C27.4836265,78.8878195 27.0442325,79.4070263 26.4959978,79.7663946 L24.9903678,80.7543893 C24.521748,81.0622661 23.928163,81.0869391 23.4524887,80.793008 C23.4353564,80.7822806 23.418224,80.7704804 23.4010917,80.7586803 C22.9223941,80.4400761 22.8790594,79.7084666 23.2731031,79.2772246 L24.8472624,77.5554748 C24.8472624,77.5554748 23.9624276,78.276357 23.7155205,77.9856441 C23.5331115,77.7732413 24.5721372,76.733755 25.3703025,76.7005001 C26.1684678,76.6661723 26.9404307,76 26.9404307,76 L28.0066667,77.7346226 Z" id="Fill-219" fill="#FFC2B0"></path>
            <path d="M23.805255,41 C23.805255,41 18.2477296,47.2544013 16.0066667,52.9937106 C16.0066667,52.9937106 17.907057,56.5350934 22.5580632,57.9247372 C27.2090695,59.314381 23.805255,41 23.805255,41" id="Fill-221" fill="#FFC900"></path>
            <path d="M22.1580155,57 L23.0066667,48 L21.0066667,56.4327309 C21.3633196,56.6365462 21.7492364,56.8263052 22.1580155,57" id="Fill-223" fill="#D6A712"></path>
            <path d="M27.0066667,39 C27.0066667,39 27.7305669,40.5308594 28.7863778,40.9218581 C29.8421887,41.3128568 30.0066667,40.109376 30.0066667,40.109376" id="Fill-225" fill="#FFFFFF"></path>
            <polygon id="Fill-227" fill="#C66318" points="66.0932322 67 68.0066667 65.867794 68.0066667 64.0611068 66.0066667 64"></polygon>
            <path d="M76.5011903,48.9671915 L57.7876994,38.1740441 C57.417828,37.9613369 57.0829445,37.9533478 56.8210356,38.09715 C56.8210356,38.0951527 56.8220352,38.0861651 56.8220352,38.0861651 L55.0066667,39.1327249 C55.0066667,39.1327249 55.8103871,39.4253222 56.282223,39.5980845 L56.282223,53.2123496 C56.282223,54.3198256 56.9559886,55.6060556 57.7876994,56.0863946 L75.6744779,66.4021988 L75.6744779,68 L77.5078402,66.9444526 L77.4978436,66.9404581 C77.8077359,66.7527164 78.0066667,66.3382867 78.0066667,65.7421071 L78.0066667,51.8412364 C78.0066667,50.7347591 77.332901,49.4465318 76.5011903,48.9671915" id="Fill-229" fill="#C66318"></path>
            <path d="M74.4820946,67.8199459 L64.2352696,61.9969958 L55.5312387,57.050876 C54.6889785,56.572605 54.0066667,55.2892443 54.0066667,54.1832425 L54.0066667,40.3153748 C54.0066667,39.209373 54.6889785,38.70121 55.5312387,39.1804774 L74.4820946,49.9485509 C75.3243549,50.4278184 76.0066667,51.711179 76.0066667,52.8161844 L76.0066667,66.6850486 C76.0066667,67.7910504 75.3243549,68.298217 74.4820946,67.8199459" id="Fill-231" fill="#FF7300"></path>
            <path d="M62.0066667,52.170638 C62.0066667,52.9119301 61.3356453,53.2117579 60.5066667,52.8411119 C59.6788757,52.4713855 59.0066667,51.5709824 59.0066667,50.8296903 C59.0066667,50.0883982 59.6788757,49.7885703 60.5066667,50.1582967 C61.3356453,50.5298624 62.0066667,51.4293459 62.0066667,52.170638" id="Fill-233" fill="#FFFFFF"></path>
            <path d="M66.0066667,55.170346 C66.0066667,55.9115384 65.3356453,56.2122455 64.5066667,55.8407297 C63.677688,55.4710531 63.0066667,54.570771 63.0066667,53.8295787 C63.0066667,53.0883863 63.677688,52.7885988 64.5066667,53.1582754 C65.3356453,53.5297912 66.0066667,54.4300732 66.0066667,55.170346" id="Fill-235" fill="#FFFFFF"></path>
            <path d="M70.0066667,57.1709211 C70.0066667,57.9111884 69.3356453,58.2118932 68.5066667,57.8412998 C67.6788757,57.4707064 67.0066667,56.5704311 67.0066667,55.8292442 C67.0066667,55.0880574 67.6788757,54.7882722 68.5066667,55.1588656 C69.3356453,55.529459 70.0066667,56.4297343 70.0066667,57.1709211" id="Fill-237" fill="#FFFFFF"></path>
            <polygon id="Fill-239" fill="#FF7300" points="66.0066667 66 65.9420964 63.3550191 64.0066667 62"></polygon>
            <polygon id="Fill-241" fill="#5793CE" points="61.0932322 39 63.0066667 37.868229 63.0066667 36.0622359 61.0066667 36"></polygon>
            <path d="M70.5011903,21.9676681 L51.7876994,11.1742248 C51.417828,10.9615117 51.0829445,10.9535224 50.8210356,11.0963298 C50.8210356,11.0953312 50.8220352,11.0853446 50.8220352,11.0853446 L49.0066667,12.1319332 C49.0066667,12.1319332 49.8103871,12.4245385 50.282223,12.5983042 L50.282223,26.211944 C50.282223,27.3194504 50.9559886,28.6057157 51.7876994,29.0860678 L69.6744779,39.4021549 L69.6744779,41 L71.5078402,39.9444236 L71.4978436,39.9414277 C71.8077359,39.7526822 72.0066667,39.3382411 72.0066667,38.7420452 L72.0066667,24.8417919 C72.0066667,23.7342855 71.332901,22.4470216 70.5011903,21.9676681" id="Fill-243" fill="#5793CE"></path>
            <path d="M69.4820946,40.8205169 L59.2352696,34.9966564 L50.5312387,30.0506096 C49.6889785,29.573342 49.0066667,28.2890039 49.0066667,27.1840148 L49.0066667,13.3153554 C49.0066667,12.2093699 49.6889785,11.7012144 50.5312387,12.1804748 L69.4820946,22.9483893 C70.3243549,23.4276497 71.0066667,24.7119878 71.0066667,25.8159805 L71.0066667,39.6856363 C71.0066667,40.7906254 70.3243549,41.2977845 69.4820946,40.8205169" id="Fill-245" fill="#D4ECFF"></path>
            <path d="M57.0066667,25.1709211 C57.0066667,25.9111884 56.3356453,26.2118932 55.5066667,25.8412998 C54.6788757,25.4707064 54.0066667,24.5704311 54.0066667,23.8292442 C54.0066667,23.0880574 54.6788757,22.7882722 55.5066667,23.1588656 C56.3356453,23.529459 57.0066667,24.4297343 57.0066667,25.1709211" id="Fill-247" fill="#FFFFFF"></path>
            <path d="M61.0066667,27.1707558 C61.0066667,27.9119426 60.3356453,28.2117278 59.5066667,27.8411344 C58.677688,27.470541 58.0066667,26.5702657 58.0066667,25.8290789 C58.0066667,25.0888116 58.677688,24.7881068 59.5066667,25.1587002 C60.3356453,25.5292936 61.0066667,26.4295689 61.0066667,27.1707558" id="Fill-249" fill="#FFFFFF"></path>
            <path d="M65.0066667,29.1707495 C65.0066667,29.9119419 64.3356453,30.2117294 63.5066667,29.8411332 C62.6788757,29.470537 62.0066667,28.5702549 62.0066667,27.8299821 C62.0066667,27.0887897 62.6788757,26.7880826 63.5066667,27.1586788 C64.3356453,27.529275 65.0066667,28.4295571 65.0066667,29.1707495" id="Fill-251" fill="#FFFFFF"></path>
            <polygon id="Fill-253" fill="#D4ECFF" points="61.0066667 39 60.9420964 36.3546748 59.0066667 35"></polygon>
        </g>
    </g>
</svg>