<?xml version="1.0" encoding="UTF-8"?>
<svg width="77px" height="60px" viewBox="0 0 77 60" version="1.1" xmlns="http://www.w3.org/2000/svg" xmlns:xlink="http://www.w3.org/1999/xlink">
    <title>Group 3</title>
    <defs>
        <polygon id="path-1" points="0 0 76.2813467 0 76.2813467 59.8718141 0 59.8718141"></polygon>
    </defs>
    <g id="Home" stroke="none" stroke-width="1" fill="none" fill-rule="evenodd">
        <g id="Services" transform="translate(-120.000000, -929.000000)">
            <g id="Group-6" transform="translate(119.000000, 881.000000)">
                <g id="Group-3" transform="translate(1.000000, 48.000045)">
                    <mask id="mask-2" fill="white">
                        <use xlink:href="#path-1"></use>
                    </mask>
                    <g id="Clip-2"></g>
                    <path d="M7.14476382,8.2118593 C6.55637186,8.2118593 6.07757789,7.73321608 6.07757789,7.14467337 C6.07757789,6.55628141 6.55637186,6.07763819 7.14476382,6.07763819 C7.73315578,6.07763819 8.21194975,6.55628141 8.21194975,7.14467337 C8.21194975,7.73321608 7.73315578,8.2118593 7.14476382,8.2118593 L7.14476382,8.2118593 Z M13.9820503,8.2118593 C13.3936583,8.2118593 12.9150151,7.73321608 12.9150151,7.14467337 C12.9150151,6.55628141 13.3936583,6.07763819 13.9820503,6.07763819 C14.570593,6.07763819 15.0492362,6.55628141 15.0492362,7.14467337 C15.0492362,7.73321608 14.570593,8.2118593 13.9820503,8.2118593 L13.9820503,8.2118593 Z M20.8194874,8.2118593 C20.2310955,8.2118593 19.7523015,7.73321608 19.7523015,7.14467337 C19.7523015,6.55628141 20.2310955,6.07763819 20.8194874,6.07763819 C21.4078794,6.07763819 21.8866734,6.55628141 21.8866734,7.14467337 C21.8866734,7.73321608 21.4078794,8.2118593 20.8194874,8.2118593 L20.8194874,8.2118593 Z M10.0384824,32.7719095 C9.65571859,32.7719095 9.31923618,32.5760804 9.11541709,32.2347739 L6.27777889,27.3357286 C6.08300503,26.9992462 6.08647236,26.5830151 6.28742714,26.2498492 L9.1280804,21.5380402 C9.32315578,21.2146734 9.66536683,21.0217085 10.043608,21.0217085 C10.2365729,21.0217085 10.4265226,21.0747739 10.5929548,21.1750251 C11.0967739,21.4789447 11.2595879,22.1360804 10.9558191,22.6400503 L8.44079397,26.8115578 L10.9654673,31.1701508 C11.1088342,31.4178392 11.1469749,31.7065327 11.0729548,31.9830151 C10.9993869,32.2575377 10.823608,32.4863819 10.5778794,32.6277889 C10.4140101,32.7221608 10.2273769,32.7719095 10.0384824,32.7719095 L10.0384824,32.7719095 Z M26.4233065,32.7738693 C26.2374271,32.7738693 26.0608945,32.7251759 25.8982312,32.6297487 C25.3897387,32.330804 25.2142613,31.6760804 25.5073266,31.1701508 L28.032,26.8115578 L25.5169749,22.6400503 C25.3696884,22.3958291 25.3262714,22.1090955 25.3948643,21.8324623 C25.4634573,21.5558291 25.6356181,21.3223116 25.8798392,21.1751759 C26.0462714,21.0747739 26.2363719,21.0217085 26.4293367,21.0217085 C26.8075779,21.0217085 27.1497889,21.2146734 27.3447136,21.5380402 L30.1853668,26.2498492 C30.3861709,26.5831658 30.3899397,26.9992462 30.1948643,27.3355779 L27.3542111,32.2397487 C27.1698392,32.5658291 26.8054673,32.7738693 26.4233065,32.7738693 L26.4233065,32.7738693 Z M16.1198894,33.2817588 C15.9842111,33.2817588 15.8521508,33.2565829 15.7276281,33.2068342 C15.1808442,32.9885427 14.9126533,32.3665327 15.1298894,31.8205025 L19.3600402,21.1846734 C19.5227035,20.7756784 19.9119497,20.511407 20.3518492,20.511407 C20.4866231,20.511407 20.6191357,20.5370352 20.7459196,20.5873869 C21.2928543,20.8049246 21.560593,21.4267839 21.343206,21.9735678 L17.1130553,32.609397 C16.911799,33.1043216 16.4678291,33.2817588 16.1198894,33.2817588 L16.1198894,33.2817588 Z M42.5504925,33.4269347 L68.0693367,33.4269347 L68.0693367,20.3671357 L42.5504925,20.3671357 L42.5504925,33.4269347 Z M41.4833065,35.5613065 C40.8949146,35.5613065 40.4162714,35.0825126 40.4162714,34.4941206 L40.4162714,19.2999497 C40.4162714,18.7115578 40.8949146,18.2329146 41.4833065,18.2329146 L69.1366734,18.2329146 C69.7250653,18.2329146 70.2037085,18.7115578 70.2037085,19.2999497 L70.2037085,34.4941206 C70.2037085,35.0825126 69.7250653,35.5613065 69.1366734,35.5613065 L41.4833065,35.5613065 Z M7.60064322,41.638794 C7.01225126,41.638794 6.53345729,41.1601508 6.53345729,40.571608 C6.53345729,39.9832161 7.01225126,39.5045729 7.60064322,39.5045729 L15.9573769,39.5045729 C16.5457688,39.5045729 17.0245628,39.9832161 17.0245628,40.571608 C17.0245628,41.1601508 16.5457688,41.638794 15.9573769,41.638794 L7.60064322,41.638794 Z M11.8549146,47.7165829 C11.2665226,47.7165829 10.7878794,47.2377889 10.7878794,46.649397 C10.7878794,46.0608543 11.2665226,45.5822111 11.8549146,45.5822111 L28.8723015,45.5822111 C29.4606935,45.5822111 29.9394874,46.0608543 29.9394874,46.649397 C29.9394874,47.2377889 29.4606935,47.7165829 28.8723015,47.7165829 L11.8549146,47.7165829 Z M7.60064322,53.7940704 C7.01225126,53.7940704 6.53345729,53.3154271 6.53345729,52.7268844 C6.53345729,52.1384925 7.01225126,51.6598492 7.60064322,51.6598492 L20.2116482,51.6598492 C20.800191,51.6598492 21.2788342,52.1384925 21.2788342,52.7268844 C21.2788342,53.3154271 20.800191,53.7940704 20.2116482,53.7940704 L7.60064322,53.7940704 Z M42.5504925,51.6598492 L68.0693367,51.6598492 L68.0693367,41.638794 L42.5504925,41.638794 L42.5504925,51.6598492 Z M41.4833065,53.7940704 C40.8949146,53.7940704 40.4162714,53.3154271 40.4162714,52.7268844 L40.4162714,40.571608 C40.4162714,39.9832161 40.8949146,39.5045729 41.4833065,39.5045729 L69.1366734,39.5045729 C69.7250653,39.5045729 70.2037085,39.9832161 70.2037085,40.571608 L70.2037085,52.7268844 C70.2037085,53.3154271 69.7250653,53.7940704 69.1366734,53.7940704 L41.4833065,53.7940704 Z M55.3099899,59.8718593 C54.721598,59.8718593 54.242804,59.3930653 54.242804,58.8046734 C54.242804,58.2161307 54.721598,57.7374874 55.3099899,57.7374874 C55.8983819,57.7374874 56.3771759,58.2161307 56.3771759,58.8046734 C56.3771759,59.3930653 55.8983819,59.8718593 55.3099899,59.8718593 L55.3099899,59.8718593 Z M4.1060201,2.13422111 C3.01878392,2.13422111 2.13431156,3.01869347 2.13431156,4.10592965 L2.13431156,12.1552764 L74.1471256,12.1552764 L74.1471256,4.10592965 C74.1471256,3.01869347 73.2626533,2.13422111 72.1754171,2.13422111 L4.1060201,2.13422111 Z M2.13431156,57.7374874 L34.3386332,57.7374874 L34.3386332,14.2894975 L2.13431156,14.2894975 L2.13431156,57.7374874 Z M62.1474271,59.8718593 C61.8493869,59.8718593 61.5724523,59.7511055 61.3678794,59.5320603 C61.163608,59.3134673 61.0623015,59.0285427 61.082804,58.7300503 C61.1206432,58.1733166 61.6122513,57.7374874 62.2016985,57.7374874 L74.1471256,57.7374874 L74.1471256,14.2894975 L36.4728543,14.2894975 L36.4728543,57.7374874 L48.4727035,57.7374874 C48.770593,57.7374874 49.0473769,57.8580905 49.2521005,58.0771357 C49.4562211,58.2958794 49.5575276,58.5805025 49.5371759,58.8791457 C49.4994874,59.4358794 49.0080302,59.8718593 48.4182814,59.8718593 L1.06712563,59.8718593 C0.478733668,59.8718593 -6.03015073e-05,59.3930653 -6.03015073e-05,58.8046734 L-6.03015073e-05,4.10592965 C-6.03015073e-05,1.84190955 1.842,0 4.1060201,0 L72.1754171,0 C74.4395879,0 76.2813467,1.84190955 76.2813467,4.10592965 L76.2813467,58.8046734 C76.2813467,59.3930653 75.8027035,59.8718593 75.2141608,59.8718593 L62.1474271,59.8718593 Z" id="Fill-1" fill="#3175F2" mask="url(#mask-2)"></path>
                </g>
            </g>
        </g>
    </g>
</svg>