<?xml version="1.0" encoding="UTF-8"?>
<svg width="60px" height="60px" viewBox="0 0 60 60" version="1.1" xmlns="http://www.w3.org/2000/svg" xmlns:xlink="http://www.w3.org/1999/xlink">
    <title>support</title>
    <g id="Home" stroke="none" stroke-width="1" fill="none" fill-rule="evenodd">
        <g id="Services" transform="translate(-120.000000, -2709.000000)" fill="#3175F2" fill-rule="nonzero">
            <g id="Group-3" transform="translate(120.000000, 2661.000000)">
                <g id="support" transform="translate(0.000000, 48.000000)">
                    <path d="M29.8953516,7.62421875 C30.5471484,7.62421875 31.0755469,7.09582031 31.0755469,6.44402344 L31.0755469,1.18019531 C31.0755469,0.528398438 30.5471484,8.32667268e-16 29.8953516,8.32667268e-16 C29.2435547,8.32667268e-16 28.7151562,0.528398438 28.7151562,1.18019531 L28.7151562,6.44402344 C28.7152734,7.09582031 29.2436719,7.62421875 29.8953516,7.62421875 Z" id="Path"></path>
                    <path d="M58.74375,40.5451172 L56.6588672,38.4660937 C55.9171875,37.7253516 54.9287109,37.3173047 53.8754297,37.3173047 C53.2019531,37.3173047 52.5554297,37.4848828 51.9825,37.7988281 L48.0536719,33.8746875 L48.2450391,33.6835547 C49.8389063,32.0865234 49.8383203,29.4914063 48.2449219,27.8997656 C47.6755078,27.3292969 46.965,26.9489063 46.1905078,26.7888281 C46.2971484,26.4207422 46.3532813,26.0351953 46.3532813,25.640625 C46.3532813,24.5443359 45.9274219,23.5163672 45.1565625,22.7486719 C44.5870312,22.1782031 43.8766406,21.7978125 43.1021484,21.6377344 C43.2087891,21.2696484 43.2649219,20.8842188 43.2649219,20.4895313 C43.2649219,19.393125 42.8390625,18.3652734 42.0669141,17.5964063 C41.4837891,17.0139844 40.7669531,16.6453125 40.0142578,16.4883984 C40.4169141,15.1000781 40.0728516,13.5380859 38.9806641,12.4440234 C38.0715234,11.53875 36.8378906,11.1496875 35.6490234,11.2757813 L27.8636719,9.80214844 C26.6763281,9.57691406 25.1935547,9.42796875 24.2575781,10.2816797 C24.1985156,10.3355859 24.1382812,10.3975781 24.0789844,10.4666016 C22.6277344,9.93761719 20.9350781,10.2526172 19.7729297,11.4134766 C19.0019531,12.1835156 18.5772656,13.2110156 18.5772656,14.3067188 C18.5772656,14.7014063 18.6331641,15.0868359 18.7396875,15.4550391 C17.9660156,15.615 17.2564453,15.9949219 16.6889062,16.5635156 C15.9164062,17.3328516 15.4904297,18.3591797 15.4896094,19.4535938 C15.4892578,19.8492188 15.5453906,20.2359375 15.6525,20.6050781 C14.8784766,20.7646875 14.1684375,21.1439063 13.5991406,21.7125 C12.8266406,22.4841797 12.40125,23.5122656 12.40125,24.6073828 C12.40125,25.4462109 12.6516797,26.2453125 13.1157422,26.9203125 C12.5298047,27.1189453 11.9930859,27.4495313 11.5436719,27.8984766 C9.94875,29.4914063 9.94816406,32.0866406 11.5447266,33.6860156 L11.7353906,33.8758594 L7.80609375,37.7980078 C6.34582031,37.1104688 4.54664062,37.3680469 3.34160156,38.5715625 L1.25542969,40.651875 C0.513398437,41.3929688 0.104765625,42.3815625 0.104765625,43.4354297 C0.104765625,44.4894141 0.513398437,45.478125 1.25542969,46.2193359 L3.85898437,48.8197266 C4.32011719,49.2803906 5.06742187,49.2799219 5.52796875,48.8187891 C5.98863281,48.3576563 5.98816406,47.6103516 5.52703125,47.1498047 L2.92347656,44.5494141 C2.62792969,44.2542188 2.46515625,43.8585938 2.46515625,43.4355469 C2.46515625,43.0126172 2.62792969,42.6171094 2.92277344,42.3226172 L5.0090625,40.2421875 C5.5303125,39.7215234 6.328125,39.6439453 6.93398437,40.0061719 C6.97664062,40.0702734 7.02597656,40.1312109 7.08246094,40.1878125 C7.18359375,40.2891797 7.29902344,40.366875 7.42160156,40.4237109 L19.385625,52.3701563 C19.4424609,52.4940234 19.5205078,52.610625 19.6223437,52.7125781 C19.7214844,52.8118359 19.8345703,52.8885938 19.9545703,52.9450781 C20.2075781,53.2311328 20.3473828,53.5965234 20.3473828,53.9862891 C20.3473828,54.4093359 20.1846094,54.8048438 19.8890625,55.1000391 L17.8048828,57.1817578 C17.1890625,57.7948828 16.1873437,57.7947656 15.5733984,57.1836328 L12.9698437,54.5798438 C12.5089453,54.1189453 11.7617578,54.1189453 11.3008594,54.5798438 C10.8399609,55.0407422 10.8399609,55.7879297 11.3008594,56.2488281 L13.9062891,58.8544922 C14.6731641,59.6182031 15.6802734,59.9998828 16.6878516,59.9998828 C17.6956641,59.9998828 18.7039453,59.6176172 19.4717578,58.8532031 L21.5572266,56.7701953 C22.2992578,56.0289844 22.7078906,55.0403906 22.7078906,53.9862891 C22.7078906,53.2340625 22.4987109,52.5157031 22.1097656,51.89625 L26.5319531,47.4794531 C26.5366406,47.4746484 26.5413281,47.4698438 26.5461328,47.4650391 C27.0525,46.9415625 28.4626172,47.0395313 29.8263281,47.1342188 C30.7952344,47.2016016 31.8754687,47.2764844 32.9308594,47.1548438 L37.7735156,51.9917578 C37.4598047,52.56375 37.2923438,53.2094531 37.2923438,53.881875 C37.2923438,54.9348047 37.7009766,55.9228125 38.4430078,56.6640234 L40.5285938,58.7470313 C41.2701563,59.4877734 42.2586328,59.8958203 43.3119141,59.8958203 C44.3650781,59.8958203 45.3535547,59.4878906 46.0952344,58.7470313 L58.7445703,46.1130469 C59.4866016,45.3719531 59.8952344,44.3833594 59.8952344,43.329375 C59.8952344,42.2755078 59.4864844,41.2869141 58.74375,40.5451172 L58.74375,40.5451172 Z M27.4242187,12.1212891 L32.5437891,13.0903125 L29.4794531,16.1534766 C29.0054297,15.9256641 28.3557422,15.5007422 27.6430078,14.8189453 C26.6674219,13.8856641 25.9695703,12.808125 25.9060547,12.1360547 C25.9059375,12.1357031 25.9059375,12.1353516 25.9059375,12.135 C25.9059375,12.1348828 25.9058203,12.1347656 25.9058203,12.1346484 C25.90125,12.0863672 25.9000781,12.0478125 25.9006641,12.0183984 C26.055,11.9808984 26.4649219,11.9392969 27.4242187,12.1212891 Z M21.4408594,13.0835156 C22.03875,12.4862109 22.9675781,12.4173047 23.6431641,12.8748047 C24.0260156,14.4800391 25.3953516,15.9349219 26.0114063,16.524375 C26.4679688,16.96125 27.9329297,18.2710547 29.4116016,18.6310547 C29.6116406,18.9178125 29.7205078,19.2596484 29.7205078,19.6203516 C29.7205078,20.085 29.5417969,20.5194141 29.2161328,20.8447266 C28.8914063,21.1700391 28.4562891,21.3491016 27.9908203,21.3491016 C27.5252344,21.3491016 27.0901172,21.1700391 26.7638672,20.8432031 L26.76375,20.8430859 L26.7631641,20.8425 L21.4407422,15.5296875 C21.11625,15.2056641 20.9375391,14.77125 20.9375391,14.3067187 C20.9376562,13.8420703 21.1163672,13.4076562 21.4408594,13.0835156 L21.4408594,13.0835156 Z M18.3569531,18.2335547 C18.6816797,17.9083594 19.1163281,17.7291797 19.5810938,17.7291797 C20.0464453,17.7291797 20.4825,17.9087109 20.8093359,18.2351953 L25.0951172,22.5124219 C25.77,23.1883594 25.77,24.2882813 25.0974609,24.961875 C24.7709766,25.2870703 24.3343359,25.4661328 23.8680469,25.4661328 C23.4017578,25.4661328 22.9651172,25.2870703 22.6400391,24.9632813 L22.6399219,24.9631641 L19.3885547,21.7125 C19.3835156,21.7074609 19.3780078,21.7027734 19.3728516,21.6976172 L18.3556641,20.6808984 C18.0292969,20.3548828 17.8496484,19.9196484 17.8499995,19.4553516 C17.8504688,18.9925781 18.0295313,18.5595703 18.3569531,18.2335547 L18.3569531,18.2335547 Z M15.2671875,23.3825391 C15.5921484,23.0580469 16.0277344,22.8793359 16.4939063,22.8793359 C16.9562109,22.8793359 17.3880469,23.0554688 17.7116016,23.3743359 L20.9729297,26.6341406 C21.298125,26.9580469 21.4773047,27.3919922 21.4773047,27.8560547 C21.4773047,28.32 21.298125,28.7539453 20.9716406,29.0791406 C20.6467969,29.4035156 20.2116797,29.5822266 19.7463281,29.5822266 C19.2802734,29.5822266 18.84375,29.4030469 18.5184375,29.0791406 L17.3361328,27.8982422 C17.3358984,27.8978906 17.3355469,27.8976563 17.3353125,27.8974219 L15.2673047,25.831875 C14.9412891,25.5062109 14.7617578,25.0712109 14.7617578,24.6071484 C14.7617578,24.1432031 14.9412891,23.7080859 15.2671875,23.3825391 L15.2671875,23.3825391 Z M13.2117187,29.5683984 C13.5380859,29.2423828 13.9742578,29.0628516 14.4398437,29.0628516 C14.9053125,29.0628516 15.3413672,29.2422656 15.6676172,29.5680469 L16.8515625,30.7505859 C17.176875,31.0744922 17.3559375,31.5084375 17.3559375,31.9725 C17.3559375,32.4365625 17.1767578,32.8703906 16.8491016,33.196875 C16.524375,33.5220703 16.0892578,33.70125 15.6237891,33.70125 C15.1582031,33.70125 14.7230859,33.5221875 14.3960156,33.1945312 L14.2477734,33.046875 C14.2457812,33.0448828 14.2442578,33.0427734 14.2423828,33.0408984 C14.2401562,33.0387891 14.2378125,33.0369141 14.2355859,33.0348047 L13.2128906,32.0160938 C12.5380078,31.3398047 12.5374219,30.241875 13.2117187,29.5683984 Z M37.2625781,42.9814453 C36.8019141,42.5201953 36.0546094,42.5198437 35.5935937,42.9803906 L34.5435937,44.0291016 C33.5458594,45.0268359 31.7380078,44.9012109 29.9896875,44.7799219 C28.0911328,44.6479687 26.1278906,44.5117969 24.8574609,45.8160937 L20.5103906,50.1578906 L9.63972656,39.3031641 L13.4867578,35.4630469 C14.1226172,35.8528125 14.8563281,36.0617578 15.6240234,36.0617578 C16.7207812,36.0617578 17.7492187,35.6366016 18.5173828,34.8670312 C19.2907031,34.096875 19.7166797,33.0690234 19.7166797,31.9726172 C19.7166797,31.9624219 19.7159766,31.9523437 19.7159766,31.9421484 C19.7261719,31.9422656 19.7363672,31.9428516 19.7465625,31.9428516 C20.8417969,31.9428516 21.8694141,31.5189844 22.6386328,30.7507031 C23.4119531,29.9805469 23.8379297,28.9525781 23.8379297,27.8562891 C23.8379297,27.8460937 23.8372266,27.8360156 23.8372266,27.8258203 C23.8475391,27.8258203 23.8578516,27.8265234 23.8682812,27.8265234 C24.9631641,27.8265234 25.9913672,27.403125 26.7657422,26.6319141 C27.5696484,25.8267187 27.9672656,24.7666406 27.9596484,23.7087891 C27.9701953,23.7089062 27.9807422,23.7094922 27.9912891,23.7094922 C29.0880469,23.709375 30.1163672,23.2843359 30.8857031,22.5135937 C31.6566797,21.7435547 32.0813672,20.7160547 32.0813672,19.6203516 C32.0813672,18.8540625 31.8730078,18.1215234 31.4845312,17.4869531 L34.8563672,14.1165234 C35.1076172,13.8663281 35.4174609,13.7092969 35.7421875,13.6444922 C35.7773437,13.6407422 35.8120312,13.6351172 35.8463672,13.6283203 C36.3673828,13.5564844 36.9145312,13.7172656 37.3129687,14.1140625 C37.9878516,14.7901172 37.9878516,15.8900391 37.3154297,16.5636328 L36.2885156,17.5863281 C36.2851172,17.5897266 36.2814844,17.5927734 36.2780859,17.5961719 L35.0953125,18.7769531 C34.6340625,19.2375 34.6335937,19.9848047 35.0942578,20.4459375 C35.5550391,20.9071875 36.3022266,20.9075391 36.7632422,20.4469922 L37.7942578,19.4173828 C37.7944922,19.4171484 37.7947266,19.4169141 37.7949609,19.4166797 L37.9508203,19.2614062 C38.6275781,18.5908594 39.7239844,18.5922656 40.4000391,19.2673828 C40.7253516,19.5912891 40.9045312,20.0252344 40.9045312,20.4892969 C40.9045312,20.9532422 40.7253516,21.3871875 40.3974609,21.7136719 L39.3646875,22.7485547 C39.3645703,22.7486719 39.3644531,22.7487891 39.3643359,22.7490234 L38.1816797,23.926875 C37.7198437,24.3868359 37.7183203,25.1341406 38.1782812,25.5958594 C38.6382422,26.0576953 39.3854297,26.0591016 39.8472656,25.5992578 L41.0353125,24.4160156 C41.3600391,24.0907031 41.7951562,23.9116406 42.260625,23.9116406 C42.7262109,23.9116406 43.1614453,24.0907031 43.4885156,24.4183594 C43.8138281,24.7423828 43.9928906,25.1763281 43.9928906,25.6403906 C43.9928906,26.1043359 43.8138281,26.5382812 43.4866406,26.8640625 L41.4276562,28.9238672 C40.966875,29.3848828 40.9669922,30.1320703 41.4278906,30.5928516 C41.6583984,30.8232422 41.9602734,30.9383203 42.2622656,30.9383203 C42.564375,30.9383203 42.8664844,30.8230078 43.096875,30.5925 L44.1059766,29.5830469 C44.1117188,29.5775391 44.1179297,29.5727344 44.1236719,29.5669922 C44.4483984,29.2416797 44.8835156,29.0626172 45.3489844,29.0626172 C45.8145703,29.0626172 46.2496875,29.2416797 46.5755859,29.5681641 C47.2497656,30.2416406 47.2491797,31.3396875 46.5755859,32.0144531 L45.5496094,33.0392578 C45.5492578,33.0396094 45.5487891,33.0399609 45.5484375,33.0403125 C45.5480859,33.0406641 45.5477344,33.0411328 45.5473828,33.0414844 L43.9189453,34.6679297 C43.4578125,35.1285937 43.4573437,35.8758984 43.9178906,36.3370312 C44.1483984,36.5677734 44.4507422,36.6832031 44.7529687,36.6832031 C45.0547266,36.6832031 45.3566016,36.568125 45.5869922,36.3380859 L46.3835156,35.5425 L50.2011328,39.3556641 L39.3314062,50.2121484 L35.4367969,46.3222266 C35.7083203,46.1476172 35.968125,45.9423047 36.2119922,45.6984375 L37.2614063,44.6503125 C37.7227734,44.1898828 37.7232422,43.4425781 37.2625781,42.9814453 L37.2625781,42.9814453 Z M57.0764063,44.4430078 L44.4270703,57.0769922 C44.1311719,57.3725391 43.7350781,57.5353125 43.3117969,57.5353125 C42.8885156,57.5353125 42.4924219,57.3725391 42.1964063,57.076875 L40.1108203,54.9938672 C39.8152734,54.6987891 39.6525,54.3038672 39.6525,53.881875 C39.6525,53.46 39.8152734,53.0650781 40.1108203,52.7698828 L52.7601563,40.1358984 C53.0561719,39.8402344 53.4521484,39.6774609 53.8755469,39.6774609 C54.2988281,39.6774609 54.6949219,39.8402344 54.9916406,40.1366016 L57.0765234,42.215625 C57.3720703,42.5108203 57.5348438,42.9062109 57.5348438,43.3292578 C57.5348438,43.7524219 57.3719531,44.1479297 57.0764063,44.4430078 L57.0764063,44.4430078 Z" id="Shape"></path>
                    <path d="M14.2239844,6.62929688 C14.454375,6.85921875 14.7560156,6.9740625 15.0576562,6.9740625 C15.36,6.9740625 15.6624609,6.85851563 15.8929688,6.62753906 C16.3533984,6.16617188 16.3526953,5.41898437 15.8913281,4.95855469 L11.5907812,0.6665625 C11.1295312,0.206132813 10.3822266,0.20671875 9.92179687,0.668203125 C9.46136719,1.12957031 9.46207031,1.87675781 9.9234375,2.3371875 L14.2239844,6.62929688 Z" id="Path"></path>
                    <path d="M44.7330469,6.9740625 C45.0348047,6.9740625 45.3366797,6.85898438 45.5670703,6.62894531 L49.8643359,2.33683594 C50.3254688,1.87628906 50.3259375,1.12898438 49.8652734,0.667851563 C49.4047266,0.20671875 48.6575391,0.20625 48.1962891,0.666914063 L43.8990234,4.95902344 C43.4378906,5.41957031 43.4374219,6.166875 43.8980859,6.62800781 C44.1285938,6.85875 44.4308203,6.9740625 44.7330469,6.9740625 Z" id="Path"></path>
                    <path d="M7.36160156,50.7660938 C6.9046875,51.2308594 6.91101563,51.9781641 7.37589844,52.4350781 L7.37929688,52.4383594 C7.60863281,52.6638281 7.90640625,52.7760938 8.2040625,52.7760938 C8.50957031,52.7760938 8.81507812,52.6578516 9.04652344,52.4224219 C9.5034375,51.9576563 9.49535156,51.2087109 9.03058594,50.7517969 C8.5659375,50.2948828 7.81875,50.3013281 7.36160156,50.7660938 L7.36160156,50.7660938 Z" id="Path"></path>
                    <path d="M40.1491406,41.2812891 C40.3286719,41.2812891 40.5107813,41.2403906 40.6817578,41.1542578 C41.2637109,40.8607031 41.4975,40.1510156 41.2040625,39.5690625 C40.9105078,38.9871094 40.2007031,38.7532031 39.6188672,39.0467578 L39.6123047,39.0500391 C39.0303516,39.3435938 38.7998438,40.0516406 39.0932813,40.6335938 C39.3004688,41.0446875 39.7171875,41.2812891 40.1491406,41.2812891 L40.1491406,41.2812891 Z" id="Path"></path>
                </g>
            </g>
        </g>
    </g>
</svg>