<?xml version="1.0" encoding="UTF-8"?>
<svg width="71px" height="60px" viewBox="0 0 71 60" version="1.1" xmlns="http://www.w3.org/2000/svg" xmlns:xlink="http://www.w3.org/1999/xlink">
    <title>web-design</title>
    <g id="Home" stroke="none" stroke-width="1" fill="none" fill-rule="evenodd">
        <g id="Services" transform="translate(-120.000000, -1589.000000)" fill="#3175F2" fill-rule="nonzero">
            <g id="Group-5" transform="translate(120.000000, 1541.000000)">
                <g id="web-design" transform="translate(0.000000, 48.069726)">
                    <path d="M70.1227397,54.5786301 L70.1227397,49.9979452 C70.1227397,49.4305479 69.6627397,48.9705479 69.0953425,48.9705479 C68.5279452,48.9705479 68.0679452,49.4305479 68.0679452,49.9979452 L68.0679452,53.6964384 L2.0660274,53.6964384 L2.0660274,23.6291781 C2.0660274,23.0617808 1.6060274,22.6017808 1.03863014,22.6017808 C0.471232877,22.6017808 0.0112328767,23.0617808 0.0112328767,23.6291781 L0,57.1894521 C0,58.6623288 1.19835616,59.8605479 2.67109589,59.8605479 L2.68219178,59.8605479 L67.4519178,59.8605479 L67.4630137,59.8605479 C68.9358904,59.8605479 70.1341096,58.6621918 70.1341096,57.1894521 L70.1341096,54.7238356 C70.1341096,54.6743836 70.1294521,54.6261644 70.1227397,54.5786301 Z M68.0679452,57.189726 C68.0679452,57.5294521 67.7915068,57.8058904 67.4517808,57.8058904 L2.68219178,57.8058904 C2.34246575,57.8058904 2.0660274,57.5294521 2.0660274,57.189726 L2.0660274,55.7510959 L68.0679452,55.7510959 L68.0679452,57.189726 L68.0679452,57.189726 Z" id="Shape"></path>
                    <g id="Group">
                        <path d="M70.1342466,2.67123288 C70.1342466,2.71958904 70.1406849,2.62465753 70.1342466,2.67123288 L70.1342466,2.67123288 Z" id="Path"></path>
                        <path d="M67.4631507,0 L67.4520548,0 L2.68219178,0 L2.67109589,0 C1.19835616,0 0,1.19835616 0,2.67123288 L0.011369863,19.1773973 C0.011369863,19.7447945 0.471369863,20.2047945 1.03876712,20.2047945 C1.60616438,20.2047945 2.06616438,19.7447945 2.06616438,19.1773973 L2.06616438,17.1227397 L31.5554795,17.1227397 L17.8393151,30.8389041 C17.8282192,30.85 17.8184932,30.8620548 17.8079452,30.8734247 C17.800137,30.8820548 17.7920548,30.890411 17.7845205,30.8991781 C17.7575342,30.9306849 17.7321918,30.9634247 17.7094521,30.9976712 C17.7075342,31.0005479 17.7060274,31.0035616 17.7042466,31.0064384 C17.6834247,31.0386301 17.6647945,31.0719178 17.6476712,31.1060274 C17.6423288,31.1165753 17.6375342,31.1272603 17.6326027,31.1380822 C17.6183562,31.1690411 17.6057534,31.2006849 17.5946575,31.2330137 C17.5919178,31.2409589 17.5886301,31.2487671 17.5861644,31.2568493 C17.5735616,31.2969863 17.5635616,31.3378082 17.5558904,31.3793151 C17.5553425,31.3824658 17.5541096,31.3854795 17.5535616,31.3886301 L15.7119178,41.9449315 C15.7106849,41.9521918 15.7105479,41.9594521 15.7094521,41.9667123 C15.7075342,41.98 15.7058904,41.9932877 15.7046575,42.0042466 C15.7042466,42.0078082 15.7043836,42.0113699 15.7041096,42.0150685 C15.7005479,42.0490411 15.6986301,42.0830137 15.6984932,42.1168493 C15.6984932,42.1226027 15.6986301,42.1282192 15.6986301,42.1339726 C15.6990411,42.1687671 15.7010959,42.2034247 15.7050685,42.2378082 C15.7056164,42.2424658 15.7063014,42.2471233 15.7068493,42.2517808 C15.7113699,42.2869863 15.7173973,42.3216438 15.7254795,42.3560274 C15.7263014,42.359863 15.7273973,42.3635616 15.7283562,42.3672603 C15.7369863,42.4021918 15.7472603,42.4365753 15.7594521,42.470411 C15.7605479,42.4734247 15.7617808,42.4763014 15.7628767,42.4793151 C15.7756164,42.5135616 15.79,42.5471233 15.8063014,42.579863 C15.8075342,42.5821918 15.8087671,42.5845205 15.81,42.5868493 C15.8268493,42.619863 15.8452055,42.6520548 15.8656164,42.6832877 C15.8668493,42.6850685 15.8682192,42.6868493 15.8694521,42.6887671 C15.890274,42.720137 15.9126027,42.7505479 15.9369863,42.779726 C15.9380822,42.7810959 15.9394521,42.7824658 15.9405479,42.7838356 C15.9590411,42.8057534 15.9771233,42.8278082 15.9975342,42.8482192 C16.1919178,43.0426027 16.4539726,43.1491781 16.7241096,43.1491781 C16.7827397,43.1491781 16.8416438,43.1441096 16.900411,43.1339726 L27.4661644,41.2934247 C27.5083562,41.2858904 27.55,41.2754795 27.5910959,41.2626027 C27.5982192,41.260411 27.6049315,41.2576712 27.6119178,41.2553425 C27.6463014,41.2438356 27.68,41.230274 27.7131507,41.2149315 C27.7213699,41.2110959 27.729589,41.2075342 27.7376712,41.2035616 C27.8120548,41.1668493 27.8828767,41.1206849 27.9483562,41.0647945 C27.9576712,41.0568493 27.9665753,41.0483562 27.9756164,41.040137 C27.9869863,41.029726 27.9987671,41.020274 28.009726,41.0093151 L31.6215068,37.3975342 C32.0227397,36.9963014 32.0227397,36.3457534 31.6215068,35.9446575 C31.220274,35.5434247 30.569726,35.5434247 30.1686301,35.9446575 L27.2834247,38.829863 L25.830411,37.3768493 L41.8123288,21.3949315 L43.2653425,22.8479452 L33.3820548,32.7312329 C32.9808219,33.1324658 32.9808219,33.7830137 33.3820548,34.1841096 C33.7832877,34.5853425 34.4338356,34.5853425 34.8349315,34.1841096 L44.7606849,24.2583562 C44.8975342,24.3236986 45.0480822,24.359589 45.2026027,24.359589 C45.4750685,24.359589 45.7364384,24.2513699 45.9290411,24.0586301 L50.3846575,19.6030137 C50.7858904,19.2017808 50.7858904,18.5512329 50.3846575,18.150137 L49.6582192,17.4236986 L49.9593151,17.1226027 L68.0684932,17.1226027 L68.0684932,45.5461644 C68.0684932,46.1135616 68.5284932,46.5735616 69.0958904,46.5735616 C69.6632877,46.5735616 70.1232877,46.1135616 70.1232877,45.5461644 L70.1346575,2.67123288 C70.1346575,1.19835616 68.9358904,0 67.4631507,0 Z M2.0660274,2.67109589 C2.0660274,2.33136986 2.34246575,2.05493151 2.68219178,2.05493151 L24.7934247,2.05493151 L24.7934247,10.9584932 L2.0660274,10.9584932 L2.0660274,2.67109589 Z M2.0660274,15.0679452 L2.0660274,13.0132877 L34.7076712,13.0132877 C34.4636986,13.3241096 34.4246575,13.7424658 34.589589,14.0883562 L33.609863,15.0680822 L2.0660274,15.0680822 L2.0660274,15.0679452 Z M36.000411,15.5834247 L37.4534247,17.0364384 L21.4716438,33.0182192 L20.0186301,31.5653425 L36.000411,15.5834247 Z M17.9879452,40.8586301 L18.259863,39.299863 L19.5476712,40.5871233 L17.9879452,40.8586301 Z M22.0227397,40.1560274 L18.6908219,36.8257534 L19.2378082,33.690411 L25.1575342,39.610137 L22.0227397,40.1560274 Z M24.3772603,35.9241096 L22.9243836,34.4710959 L38.9063014,18.4893151 L40.3591781,19.9421918 L24.3772603,35.9241096 Z M45.2021918,21.8794521 L36.9690411,13.6463014 L39.9710959,10.6442466 C39.9716438,10.6435616 39.9709589,10.6441096 39.9716438,10.6435616 L48.2047945,18.8765753 L45.2021918,21.8794521 Z M49.4156164,14.760137 L48.2047945,15.9709589 L42.8775342,10.6436986 L44.0883562,9.43287671 C44.7560274,8.76520548 45.8421918,8.76520548 46.509863,9.43287671 L49.4156164,12.3386301 C50.0832877,13.0063014 50.0832877,14.0924658 49.4156164,14.760137 Z M68.0680822,15.0679452 L51.6512329,15.0679452 C51.9364384,14.4184932 52.0306849,13.7047945 51.9320548,13.0132877 L68.0680822,13.0132877 L68.0680822,15.0679452 Z M68.0680822,10.9586301 L50.9378082,10.9586301 C50.9147945,10.9343836 50.8923288,10.909589 50.8686301,10.8857534 L47.9628767,7.98 C47.2513699,7.26849315 46.3054795,6.87657534 45.2993151,6.87657534 C44.2930137,6.87657534 43.3472603,7.26835616 42.6357534,7.98 L41.4249315,9.19082192 L40.6984932,8.46438356 C40.2972603,8.06315068 39.6467123,8.06315068 39.2456164,8.46438356 L36.7513699,10.9586301 L26.8482192,10.9586301 L26.8482192,2.05493146 L67.4519178,2.05493146 C67.7916438,2.05479452 68.0680822,2.33136986 68.0680822,2.67109589 L68.0680822,10.9586301 L68.0680822,10.9586301 Z" id="Shape"></path>
                    </g>
                    <path d="M6.43808219,3.42452055 C4.73863014,3.42452055 3.3560274,4.80712329 3.3560274,6.50657534 C3.3560274,8.2060274 4.73863014,9.58863014 6.43808219,9.58863014 C8.13753425,9.58863014 9.52013699,8.2060274 9.52013699,6.50657534 C9.52013699,4.80712329 8.13767123,3.42452055 6.43808219,3.42452055 Z M6.43808219,7.5339726 C5.87150685,7.5339726 5.41068493,7.07315068 5.41068493,6.50657534 C5.41068493,5.94 5.87150685,5.47917808 6.43808219,5.47917808 C7.00465753,5.47917808 7.46547945,5.94 7.46547945,6.50657534 C7.46547945,7.07315068 7.00465753,7.5339726 6.43808219,7.5339726 Z" id="Shape"></path>
                    <path d="M13.5610959,3.42452055 C11.8616438,3.42452055 10.4790411,4.80712329 10.4790411,6.50657534 C10.4790411,8.2060274 11.8616438,9.58863014 13.5610959,9.58863014 C15.2605479,9.58863014 16.6431507,8.2060274 16.6431507,6.50657534 C16.6431507,4.80712329 15.2605479,3.42452055 13.5610959,3.42452055 Z M13.5610959,7.5339726 C12.9945205,7.5339726 12.5336986,7.07315068 12.5336986,6.50657534 C12.5336986,5.94 12.9945205,5.47917808 13.5610959,5.47917808 C14.1276712,5.47917808 14.5884932,5.94 14.5884932,6.50657534 C14.5884932,7.07315068 14.1276712,7.5339726 13.5610959,7.5339726 Z" id="Shape"></path>
                    <path d="M20.5471233,3.42452055 C18.8476712,3.42452055 17.4650685,4.80712329 17.4650685,6.50657534 C17.4650685,8.2060274 18.8476712,9.58863014 20.5471233,9.58863014 C22.2465753,9.58863014 23.6291781,8.2060274 23.6291781,6.50657534 C23.6291781,4.80712329 22.2465753,3.42452055 20.5471233,3.42452055 Z M20.5471233,7.5339726 C19.9805479,7.5339726 19.519726,7.07315068 19.519726,6.50657534 C19.519726,5.94 19.9805479,5.47917808 20.5471233,5.47917808 C21.1136986,5.47917808 21.5745205,5.94 21.5745205,6.50657534 C21.5745205,7.07315068 21.1136986,7.5339726 20.5471233,7.5339726 Z" id="Shape"></path>
                    <path d="M53.4224658,44.0138356 L16.7116438,44.0138356 C16.1442466,44.0138356 15.6842466,44.4738356 15.6842466,45.0412329 C15.6842466,45.6086301 16.1442466,46.0686301 16.7116438,46.0686301 L53.4224658,46.0686301 C53.989863,46.0686301 54.449863,45.6086301 54.449863,45.0412329 C54.449863,44.4738356 53.989863,44.0138356 53.4224658,44.0138356 Z" id="Path"></path>
                    <path d="M44.7663014,16.9878082 L41.8605479,14.0820548 C41.4593151,13.6808219 40.8087671,13.6808219 40.4076712,14.0820548 C40.0064384,14.4832877 40.0064384,15.1338356 40.4076712,15.5349315 L43.3134247,18.4406849 C43.5139726,18.6412329 43.7769863,18.7416438 44.039863,18.7416438 C44.3027397,18.7416438 44.5657534,18.6413699 44.7663014,18.4406849 C45.1673973,18.0394521 45.1673973,17.3889041 44.7663014,16.9878082 Z" id="Path"></path>
                </g>
            </g>
        </g>
    </g>
</svg>